<mxfile host="65bd71144e">
    <diagram id="1fS2l9E80IBSgGVDK9vQ" name="Page-1">
        <mxGraphModel dx="726" dy="568" grid="1" gridSize="10" guides="1" tooltips="1" connect="1" arrows="1" fold="1" page="1" pageScale="1" pageWidth="850" pageHeight="1100" math="0" shadow="0">
            <root>
                <mxCell id="0"/>
                <mxCell id="1" parent="0"/>
                <mxCell id="3" value="" style="strokeWidth=1;shadow=0;dashed=0;align=center;html=1;shape=mxgraph.mockup.containers.browserWindow;rSize=0;strokeColor=#666666;strokeColor2=#008cff;strokeColor3=#c4c4c4;mainText=,;recursiveResize=0;" parent="1" vertex="1">
                    <mxGeometry x="20" y="30" width="550" height="370" as="geometry"/>
                </mxCell>
                <mxCell id="4" value="Map" style="strokeWidth=1;shadow=0;dashed=0;align=center;html=1;shape=mxgraph.mockup.containers.anchor;fontSize=17;fontColor=#666666;align=left;" parent="3" vertex="1">
                    <mxGeometry x="60" y="12" width="110" height="26" as="geometry"/>
                </mxCell>
                <mxCell id="5" value="https://flightdeck.dev/map" style="strokeWidth=1;shadow=0;dashed=0;align=center;html=1;shape=mxgraph.mockup.containers.anchor;rSize=0;fontSize=17;fontColor=#666666;align=left;" parent="3" vertex="1">
                    <mxGeometry x="130" y="60" width="250" height="26" as="geometry"/>
                </mxCell>
                <mxCell id="6" value="" style="shape=image;verticalLabelPosition=bottom;labelBackgroundColor=default;verticalAlign=top;aspect=fixed;imageAspect=0;image=data:image/png,iVBORw0KGgoAAAANSUhEUgAAAggAAADuCAYAAABcfv/VAAAAAXNSR0IArs4c6QAAIABJREFUeF7sXQd0XNW13VOkUe+yZEm2ZMu9G9yNKzZgTDU9ptcUIEA6kPIhBUIgIf+TAAkhEEIzHRswLmBccMXGxr3IkiXb6n1GI035a7+nIz09T3kzkoiTzFtLS9LMfbece+85+552TS3OVi8iT4QCEQpEKBChQIQCEQpEKKChgCkCECLrIUKBCAUiFIhQIEKBCAX0FIgAhMiaiFAgQoEIBSIUiFAgQoFTKBABCJFFEaFAhAIRCkQoEKFAhAIRgBBZAxEKRCgQoUCEAhEKRCjgnwIffLAM55+/EGFrEBoaGpGYmACTyRShc4QCEQpEKBChQIQCEQr8h1DgjSVLcPkVV4QOENxuD9Zu2AiPx4O5s876DyFHZBgRCkQoEKFAhAIRCpyeFHBXVqGtuBRwuYCejjvkGd9igTkpEdFDBykECAsgeL1eLPtoBUaNHI7+ebkoLTuBfnk5ES3C6bmmIr2KUCBCgQgFIhT4D6BA4wuvIvGGq3t1JK17DyB6+JDwAcKmLV8gJSUZhQMLsHL1Z8jMSMOZ48f2aqcjlUcoEKFAhAIRCkQo8N9MgcYXX0Pi9Vf1Kgnc1bWwpKeGBxCoPXj/w49x4YJz8OnaDRgzagSOu1LRJw7ISgA8XmDrCRNGZXgRF92r4/BTuRdeLyLajH8F6SNtRigQoUCEAiFSwOvxwGQ2g7KlJ3zZiouPIj+/QOlFT9UZbEhut1spYjKZYTb79sfjOGE2wwQv1D/9++153G6YLZZTmj3tAUJ1dQ3qGhqQm9MXH61YjcmzFqDSDljNQL8kYF+VCTuqTJiU5cGYLBIsGGmBltJt+N6fVuOpX/8AzoZKnHvXn/HpCz9TXlz+0h/wo8f+hjaXG6kZWfh09SpYLQEqrduFZ5aV4I7FC4M3bLDE8aJDSMgbhKQogy94W3DwcAUGD+pv8AVjxZrqatBoTUbfhFMXjrEaIqUiFIhQIEKB04sCn77zDsZeMh8r39iM88+dAGdsLNKs1rA7uWLFcsyffy6ANvzhj2/jnruvDLsuIy96vR7U1dbivXV7cfn8iYiPtZ3y2v6KCjR8sQLZUxcjGyfwxrYKXDPXv9b9pUd+iSt//CD0Z+zTHiCsXrNO1RocP4GYmBj0KyjEO/tNeHq7BfnJHhyqNeHyYV7MK/BidJa3iyOFP7Dwvw/cjS8bbHj08ceQYnJi7c5inJlrQVWDA+6YdOSYK3HTHz7DP39zG/aU1KKhpgqj85OwbssuTJo5D5mJNlQW78Gmr0owb2IGnll6DDdeNBlF1S6MGxq6kHa1NOGOx97Fcz9djCd//xSuuWExUlJSEG32v1xcTjt+/tTrWDRrFAYPGw6Py4PivVsxdsocI2vMb5kHH3kWD//4dqxa+haGTT8XqQlxiI8KjLp+8/27MPqim3DBzDOw5M+/gHnS3bjszLRu9SPycoQCEQpEKNAbFCBAGDxvMt5+4RPc+s1vIMYCLF+/CWOGDEHfzFRUHjuE7aXNyGo7gv5jZ+OLHbuRk2JBhTMelQe/wriJ47FmTzXim8twxqQz8eXOnbjiskVwtTbjf371PH5w94X4cn85Yt11iModh7ED+2DjBy8iffAU5KSYsO1gHZrra1CQlwZzTDI++3gDbvnOjWg8th0H61PRWn0YmekJcNvSULx9LcYML0Rj6kicPLQbM2fPUkji9bjx2updGBldhrb0Qag9UYqo1krkDZuI9MRYbC0qRUzFfvSfcZ0KELaWoXTLRlx0yQI4KvbB0/5ORrQDfYZMwMY3XsHCO+81ABBaUPPwC0j76R1hTU3Do79H4o/uhVaidMvE8OmWAxiQn4+KqmqkJCchLzMBMVHA+hLg6h1bkNc6GJ9fnqJ0trLZjO07dmHc2JHYt/8QJo4eiDjbqVL23p8+itvmFeLdoym456JRmHH33/HSFXF4cY8J37rxGqS7jisA4bkHrsT8G36Cx//nR4h2VsPlacULLyzBg9+7Af/34QFcMjEPw/vb8NTr21Bz7DB+9PCjyEgweuzX0teLZ+7/Fq588AksX7UB2W31SJ80Fus+2QVbzQHEtNZg9uLb8eeXVmHO2FxMOWchYj1t+Otf/orMwnG4cN4ovPPmJ6g++hVGnnUuPvn0M4wbkYf8Pin4bNcJnDVjJsYOU1VgwZ5PXv5fpJ+1GDtWvoU506egLLkQa5e8hkFpTkRbLIgfPgcfv/wM7vzOrXCmDcKABDN+85NfImn4INy4cBp+/b+v4YwLb0baifUoPrIXUxctxJK/rcTwwRlIGjEL88f2C9aFyPcRCkQoEKFAr1FA1SCcjff+sQ43XLdAaWfX9i0ot1swb/oZOLRrB6ILRyGlfDPcaf1w7HgbRg5MxrLlG1FV24abrluIhx5/HVk5Kbhj8fn4YOlSLLzgQgCtePhXL+MHN4xCiac/ci0V2FAWjfmThsBeX4EvNn+Ovimx+LIc6JeVCUdDCWKScmAxR2H8GeNgNnmxatVyuL3xyI61Y9T0c1GyfglMceloShmBsgNf4pxzqanoBAhJxzcgdtCZyEhJRb/MOOzYvh1nnb0Qe0+Ww1K0GaYBc5FtKseGMgvGZzqxYd3nMDntSBs+QXnH2lSC4ZPm4ciX21Ewdjz00vJUDUInQGj78hM4S71wl5YgZvp4tOw+DpO7AklXLUb96x/CmmSGOXcIXPt2In7OJDTvbkXL3x9D0sO/hC0/o2N+uwUQNm/djvz+eWhobERTsx3Dho/C+mMmPLnVjCSbB0V1ZtwzyYMR6cCwNBceeeKPeOAH9+C5F17GLTd84xQb08ld7+Hexz/AGcOysX5rEV75y6MdAKG6//mYPm4Q7KU7OwDC9/72OZ753sX4y1NPorK2Hju/2ovvLpqMSVfeA0XxXrsd0+dcj2899iKunT8+7EXtqT2At99bioHTrkH9rg1w5WVg3cbDGJgWg8vmj8Vf/7oE1qwhSE+NxtWXXQ6qmVxeE4o3vYHy2ME4eegkspMcmDh1Ji698ze4ct44TJk7BzvXfILYrIG44OxpxvrmrMKzf/kbkgbNw/QB0SiKycVLzzyP6cP7YPbZM/Duc88hdshUJJkrcdUV1yt1EiCcu3Aclm05jksXTMPeunQc2/IebA1HMP7iS3B4ZwMunjUAf15bgR9dHQlRNTYRkVIRCkQo0BsUOLBjB/LGjcHWD5dh5NwLkW4DPv1kFTL7DcHIQf3Q1tKE5R9/gvgYB8ZPWYivtm1Ec5sHU2fMRcXh7ThWUYeRE2ehqWgrDp1sRlJ6JqacSfW9F+s/eAcF08/HgS1r4IINs86ehWgTsH/rpyipduCsOWdj45pPYE3MwLgheVizcQeS+xRgxoShylCXv/kyRsy9DOnWZqz6bDNsiX0w/6wRWLliDdyWGJw3r12D4PVg674yjMm1Yc3n25GZkw+r/SQqm9yYPXcuVq1chSlTJmLD2nWAxYazz5mNj9//CNbYJEyfNAzrN6rv9E0EsguGYf2y1zDxvKsQrbMmBwIIzc88jJjFP0brmjfResKMmCsXwVS6EVGDJqHleC1i+6WgccVGeKtPIn72JDgOW9D2xpNIefLxLq4A3QIILU4nDh0+ghHDhuLt9z7A1LMvQGmDSVFRDMvwYk+lCeuPmzC3vweZnpOoqalRwiE/WvEJFpwz95T1dfeiObj3mQ8wIDMWL/7hIUxadDOufeAlRYNQW3ABpo4Z2AUgPPCPL/Dk3efhvh/8BIsWnIUn/u9F/O9jP8Djb+/FFVP7Y2R+NJ7/uAyV2z/CVd9/BKM1yCjUxf3jn/8BD//iHuxe+xn6ThyH5x77PRJT0nDHd+7EM/98B1dN7Y9Pjrhx1bmT4G5rwc9+/hDMMUn47j23Y/f2Q8iIc2BrkQMZzbtxpDEa58+agLdWbMDYaefinGmjDHfnz3/8P3zj23fCeeIIapLz8enTv4bDloRrrr8NK5a+g6svmYeHnlqKh398s1LnP5/9B664fTE+evs9TJ88FrvqkvDJy39EbnYqpi2chb8/+Say+2fi9ru/i6TwTX2G+x8pGKFAhAIRCoRLgZbmeuzcewhHdm3DpdfeAlvU1+ODVVtRik27S3DeHIOHuXAHGMJ7pwKEVtQ+9CRM+f2RfPW5qPvr2zDnFCBx7ijUP7cEiLcg9fbbUfenZ+FtMyHxxuvg/HQZ2iqaYJu8AKbSlXBnTEL85ME9o0GgV+g/X3sT37hyEfbsO4CmpmYcT5yAASlexSmRUQxv7TNhQqYdK99fgttvvg4HDh1W/BXy++WFQIpI0d6hwAm89e5hLLo4ojnoHfpGao1QIEKBCAV6hwJGnRQ99dVoLS5Hy+qVSLnn7pA60y0NAls6WV6BA4eOYMa0yThSVIxlH6/ELdddgwZvItJsbny1aye+/GoPrv/GFUrHXn3jXSy+alGPhLCENNJIYR8U8MLl9sDqI4QmQq4IBSIUiFAgQoHTlwKN/3gNidcZyIPg9cDrbAOiomCyBPCu9zHUbgME1knnw5q6OiXNcktLCyqrqlHvSUJUaw3SUhKQkZ6GxuZmvPTKEtx247WIjv6XJEU4fWc60rMIBSIUiFAgQoEIBUKgQOOrbyPxqkuM5Q8IoV5tUce6TYg9a7LyUViplqWyoqPF+GLHLgweNBBDBxeipi1W0SDU1VZhy7btiIuLxayzpsESOa2GOVWR1yIUiFAgQoEIBSIUUCngbWuD88vdcJ+sYBaoniWLCTCnpSJ62GBY0sLMpKjvES9rOnDwMIqKS5CcMww1ZQeQmpyA0SOHISkxsWcHEKktQoEIBSIUiFAgQoEIBb4WCnRLg/C19DDSSIQCEQpEKBChQIQCEQp87RSIAISvneSRBiMUiFAgQoEIBSIUOP0pEAEIp/8cRXoYoUCEAhEKRCgQocDXToEIQPjaSR5pMEKBCAUiFIhQIEKB058ChgACkyPZm5vhar/S8vQfVqSHwShgtVoQFxcfcm4KOqXy8RWZwutMPe2etR3fq3dvB+uO4pEr70phs1mN3+X643WqrMZi8ZH6sb0NluPDK2M7/lYSrqoPe6F8blIzf+r7xe9cLpeSI4LXz4bzqO3yOlcvpP89cYWt9EU7rkB0lXmSPhgei9er0Ev6XOux46SnEYORBrfbo1xRq15pa4a0wbJ+I5V09Rnph9TL9OWNjU1ISIhXErLx4dwkJCbC0dKCI9Y62D2tyHcmICkqDq2trUq/uVaSk5NPWdtKvdr12N43/XqTtcL1qKwZ7foBr+lVrybmo6+zY6W3r3mHpw3HUIfBlkxYTGbwGl9l3trbdnO9RUWp9HRz/6j7i/Xwul/WL3+fsgaUegC3h3uD82JCm6tN+Uzpo8eDqOho5TfXM+nC9W2znXrbYMe8yHy174+v67pk7bqQ/d4xL+209HX9sZH1dLqV4ZzKvmzzurHLfQJxiMZgS4ayRkJ5OJ8WXiEdJr/y15as76AAocXhQGtbqyJMrN24gjOUQUfK9j4F2traYLfbFWbBLJfBHkVgeL1obm5WGFGinwgVh8OhMM/Y2FiV0WnAgTCb9qpOaZIMXoQD15qsN37G/vJ7f+3qGRn/l8/0wEGYqa8x19bWKn1IS0sLCp58MU9pVwEa7fslUHvB6K7/Xsaip62+HIVBW5sLMTEBhIGPxqX/ZGBurwe/cazGPPcAjEQfhf5OpxMJCQmw2aIVwMCxkV7x8fGqMGsXVL5oH4wZ8V22oYJBgjwPeL08n8TEBNTW1YPANi83D0VHi2CKsmCF+xCK45txi3Ms4izRyMzMRGlpKfr3zz+lOfaddQvttLTkZ8zVwnHLGESgshy/U5ixxdKxrlifrG8VmHD8nWteEdgeN15wv4FCz1fYHzULM1GHkdGLYIFNKVtXV4empibk5OQgKipKaYPtKvR3uzvWEP9mHzwed0d0mwgaAWvcm3yfT3p6+injFwDMdgI9XdeYQq1Ql2m3yhNcu90uJb8On7i4OGX/8zHCq8Jt3B9fCrc+f+9x3WhB2nFPA/7h3AaryYz7Ymai/fgStFnSp76+AcnJSQHpogUkQSttLyDKgIAAgQuloYEdSDZab6ScHwrsqzRh+0kT2lT+9C97MuO9mJHvRUJ73qramhokp6R0IFp/HZPMi2TgZELctL4erhmns1U5d5GZaplRoNOIbE4BCWSu2k0U6knGn/AOdponI66oqEBGRkaXvuvHqt90WhCiCspOxsrv/J3kQx0Xa9UKcX/zxTKkZcDTYntdWppoNQ/lTTW4rflNPOU5H8nxicq8cz4ppOobGuD1eJXTfWxsXIfQ5Jy73C6YTSZERUV3aBb80b1zLCSYevqXEzrBZn19PaJt0UiIj4fd7lBkVVpqGmpqa5CakoKqmmo8ZFqDVEscvmeaDrPJDEeLA5kZmV00SaxXBLqvvvAzAjqtJoTvCKCwWqOU92NjYxQ6ELwQgPGdTuBrUr7TggYBDGU4hoNoxRhLLLKsBTB5VaHLdwkQOFaCG3lXTtHsj2jEWlvb2rVo/IwnTW8HmJF9QwFKmgmI9z1WYyH0HCPbCWeN9haDE/Co308Ulqpmi+sunBt8u2oee6v/rJdjIJhLSkrqaMYDL37tWIWzrAMwO6rQcPPq+qQGz7fmgfu5pKQE/fv3D8rjtY0aAggEBxQEEc2B4fk6pSDvpnhigxk/Xc2TR/j19OSb+cleLL/ehYJUlUFxEQVKZkVmH4qquqXFqTBQ7YnM34nSH2rniUE2uq8ywZiWVmAboZ1W4NfX1ym3lfKkqmewWs2EXjuiFRRa9bteAJORiWIlmEZAPw45pQcCHTJeMk2ZA18ARzQzou3Rlym1V+Pu5nfwuP1stFF7k5CIpuZm9O2bjarKKmXtxMXHwWG3gwLU5WpDQkKiotauq6tVTn2FAzuZnS9h5Q/ssG8UyHzYP/5P4SvzRPAhNCz3NOL2pjfwTPSlyI5Rr5rX0p9MVMwPImzlt4yZa01rOmC/2H8BuSrwdXbQk3/LaZZtac0booHgb9bJugVs8G9V60LwQQGv9pWaKwEIKsgwK9oSebR0UjUbFAwqQyGg7dOnTwcY5PeVlZXIzs7ueD+c0/HXBRBEK2IkoZ6//UL6k9Yq34juQjt/+19PE/2aMMI3wi3T2NioyFbtmI956vAL+wo8k7AIVvVu4m49XAOU3fzdt2/fgDycBwmtnDcEEGqqq5HmQ1XVrV7/l728u8KEM58+/a5MnJLnxac38yQUHCAoNi4jfgTtc0vBRCZFxs4NS2ZHJsBFaESw6ZeItmkBWWp/aEbwvaC0Aj8YWNALfZ7maH5JTU09ZVP5AybShrYtPWDQng5FiLD3pJUwCq0g4BikDj1AM6I2DKRFoBDiOAkg9CdnoWiJowo/avsI9x0chr5Z2YrKl3OYmZmBk+Xliu0zMSlJOQGzrShrlGJ6oAmCqs+mpkYUFAw4FTTrTBH6NcH/2T/+UAirp2PVt0Me0oP9plo/KsqKV5w7UO1qwl0JM7oIVQpyrelD/7fQVXvq5EmdD0+jMi+sh4InOjqqw/+AZWS+BcDIZ6ST1M36VM2IWp+WEYuQOnnypGLW4nw4HC3KmHwdzASMsB0BL9Xk0zqTGOequ+r4YCC8J1h5WxtNSuoBJZSTv6++qWvGHbJZTcbxdQIEttnc3IT4+IQuZHzBuRUxsOIq27huk5drjtqDQYOCayTKyysUs5TwqAhA6Db5jVXwwEoLHt8QmuOJsZq7V4r3jDc80NYrAIGqYNWZTa/KNIW9ebs32sBvawFCS4sDlZVV6NMnEzExqh+Fv0fe4/d65qKeHkWNrNbgT6iTsVGYyAlWCzbEJq4HPCJUgzFxMgmW8SVsCBBEe+RLmLzfugf/aNmG1xKvVcZHISknNa0tnO+SwavCVHFx7BCc2lN5qHMoJ2WqT6X/NF+pJ9vONhSQazHh/tbluClmIsZZc5SmCE5pBuicB9UvRWz2IsDFTEBa8G85+fN/rR+AME9f8yj2ctav9lfVFGiBNWkna0VVlataAtZ37NgxRQ1MGpK2nSaEruBcNW+ooD6Y+ShUekv5YGtKW061p1ObEzqPE7DD9riGjB5CZA32tGY7HC1LuDSW96g54kFEnmZvK+5oegN3xkzHlKhT/WhCba+qqhJZWVlBX6OvDzUacmfSaQsQqk4eQ0Z2v6AD+ncpcOcyC/66LfTN83WMr+VnvQMQRJ2qVfNy4YWrPfClJTDKxIzQUQQyGc/hw4eRkpKi/Pjzs5A6OzUbqqOeCAd9f30xHqEN6wo0Fq3mQMpptRTaE7GvsYoWgfT3xYD9vV/tacYNza/hj3EXY6Cl0+GNtlN5R4SUMBWpX++EpQpFY3Zv7Rh80YVCv9OJUdUosByFZSnq8WDzclxlG4uF0cOVcuLcJmuPfRTQpNrXxbHQ3OVCOQE2Mlbt/xLJIX3VOtcKaBShyfco1AlURCvAOgV88HtqAOjHIQ6l1FSIxoEnYmotjApP/RoIpmkzsj/8leFa4MN94ssUF6jPAg4o5AUc+2uHNKWWgSYsmW/RIBkxS3RnjD31bqD1rwLZtg5+U+t14CH7SkTDghtsZ2KYtQ/MYTqK+gIIvrRLBAjU+Aro7DZAWLtyKbbvK8Xdd36zg4Yr/v4IBi74Dg6sfhGuAedhXHotovpNQHZwJ/mOOk4eO4zsfhqVSH0pPitqwcxxg7o9V9s2rcOBvXsx7eKbkZ/abuOp3YEXl+1HW0MVLrr5O8j009c1H3+EWeecF3If/AGECYXAmVnA0s1Amep4jCH9gcX9gV21wBu7Q24q5Bd6CyAIY+cJVZhEuOrOcARLqIRQGRDt1E7U1NQqpxluFF8RE8H7o56ggz1a7YOW6anCVD0d+2Ow8q5W46A/rWrbVz3bqUUw7rxF7cFnbUV4LH5hl6GQsdvtqmDgOGlO0AMWcY7U95+e6VS3kxEFp6NvCoqXv1brIyUJVKphx4P25Xgk7nwkeqIUxiu01Jp4hOaqdiVKEd5CT305bU/EiVLozffFV0LqVOeQgEMV7OK0K34OAqDFP4FOhfzbZotRAAuFpmgpOmnLqAZqD2ha6NSoaNeLnmJaGodLb3/rmHMswMxXGSMmMHlPfDu060VAFH8TXHHM/F4AmzbKKdhe+3f4Xutkyv7SaXG7qwwfte7HEXcJrrXEY1rsBbCZfDuH68co9dHMp9cgXHbZZXjzzTe7vNLjAIG1v/Xai1h01fUdDblqD2L9AQdqy3ahstKFgckNmH3BIixZugbx2UNRe6IIV543Gc/+cxX2VzVi+qAkDJt8Doq3r0az04XUvkNhrtiAsy9bgGXL9mDPniOYP20Q3txQhivnDMLBsnpccdkVfj02jSyEFe+8imFzLke/5Ha/gNodWLL6GJwNVZgy8yysWfs5rN5WXHHdTdhzogypZV/iSGs2Vr71D1z77e9j44Y1cDfW4Jpbv43k2OAM1x9AyM0GbhsN/Ho10Noe2ZCXBdwzBvjrFuBoPJBaD9wxH9i+E7hgGBCbAOyrAKyVQOIYoKkUyM8AapzA8+uASyYAQ7OA728EHh4G1HmA36wE/nANcONLgGLG1Ty9BRCkCVG7cmPrba9G5ipYGa1gClbW1/fa92lH50MBRIZNtZ/WyzjU+vV9U4WUKlTl0WoEtNqVYOPSAgQRSsFOmKEwbNb5v471yDTH42qdLVTAlAhenh61dfNvEYh650eJIuAJPBSwoqW90EbGLWp7/k8BzHX2nnMPijzVuMs2vUN4a4WLXmsi2hWZA1/01fdBAIKchLuamKjRUFXmvuaFp2GaESRCoaGxAS2OFmRkZJ7iZ6EIi3afDemXmCFkLckpuqdBQKhr3heNfNUhPjdaTSPpJL4w3IMSsSHvc275facgZfhucCAeyhhC3SOh1G2kLA9UHKPeF6PYXYHalqVocm3DkPjvo4/1VL8eff0SbUYwLwBh69atWL16NZYuXYoLLrgAU6ZMwcyZM5VXvxaAwIZefvUlxCf3g81+CDt2VmHx5VPxwfqvUI1MTM12o9qUgKnTJuIvS3fgFzedg1c/3o6kaDvOnz0NLz37FNIT2nD25eejqSkHm9/+I0bMvAzrj9px9tA4vLJ0PW674ybEhXl99Lrl7yCm3zhMGFHQSc/aHdh5PB6bN32O4f37omDGXCQ0VqLYnIam2uNIPb4Njr6zse/TNzBn/jw89cpbSI8249pbvonM5Pig8x7IxJCZCsyOAZacUKsRp+XHLwF+/DmQ3gB85zxg43ag1QX07wv8bRuw+TJgtRl47GXgG/OBDw4AM+KB4QOAEbnAj9YBo1zAuibge8OBw8XAk4dO7WpvAgRVrdoGs9mi2CgDnYiDEtFPgWCCNFi98j5/EyCI+rmqij4IfQwDBH/90AoivdDR9y0U5hQIIGgFaFeh1TUnRSDaMHnLg47l+GHMLKSb1fwGgaJY9ABBhLaoK0VIypqQ018wUBNs/kQ4a4UI+7nbeRI/av0AbyfeCKvXDKdTjafnI0BBC158zZ9+veq1JCL85SQt37N9f+Yc6YN23fEz1iG2aDWMtGs+CdKLoEsFVqqQ5MOy4rVPDZGRSKOvC0TIGCnoefrX+qdI6KiYf/TzLABCaNxbvhbadiX0kNpDiTQJtv5663vmxqCJUx5Vm+JGs7cKXzn+D/lxVyLXOiZovgTOQXV1VQdAYDTD5s2b8cQTT+C+++7DxIkTFT6nBQhcu1xflvYcLgHzIASLYli+7G3MP3sOfvqnj/Cr+65WGnrhyV9h8uXfhatsIw65CjDM/QVWbz8GT8ZI3HnpWPzi8dfwwF3X4I6fPoYRGdH4xrd/jDXvvICS6mbMuuhaOA9+jGkLZqHZnoWdy1/A4LlX49k/PosZ0wZi/8FS3Pyte2DThP+EMkl//P0jiEtMx8SpU7Fs7UHc/81LgYa92FeRhOS2YmwubsXWtSsRa7PiRw/+HA8//DASrW6cd+29+HLZn1BZIMukAAAgAElEQVQ4/Sq89vyf0T83DbfefT8SDOSg8QcQ/nY1kGIFrn4F+P1ZwHfWAKMHA3+YDlQ0ANe/C7x1JWCKAZ5cpQKEnCzgjV3AW+cBn5uAv7wPXHQW8GkRMCUR+NY0oLIVuH8TMNgFvFcEvHQ9cO2LvqnUGwCBDIh2Uy0T644zkV7IaUdiFCAEYoriO8CoBTKsmpoaxMTGIDkp2W9SJiNrToS4VhWt1RL4GocIMKP161XhehWt9n9t2WCOgwfdVfiLcxN+G6eaF4IBBG1SKDJalvflkc7xS+ilmCFEqIULIFUVdGdIrGIXN5vwqPNTFMRl4nrbBDD5COsXtbWYFLQnfO0YZe708yBrUa8NohCkaUA0GFq6+wIa8pkWOBWXlCA3J7fd4U89GTOaQUCBqoVjGB/NRWoED4WuCFl+bzQKoLdAgphf2Hdqi8RPQP5nf/X+I/72Nz8P1yxpZP/4AiXkAewz+8jEX9q1Kc6h2tBbo/QOtT8MgSSAFTAovJTCOyraig0N/4MBsZeib9TYoCDBlw/CN7/5TTz99NNduiUaBI6JdIhpT3TXLYAQ6sB3ffIWqtIm4qyCaDzx0T786KpZoVbxb1f+oU/N+PVn3Y9pDWfgBZnAzyYBNy879e24KKDmJz3rpCiMj0yM9lI+RP/dPSkGGnu4goV1agWBJOUhY2B/4+MZoxx+eKovIaP3npdxkVYUBgoDaI+T9zVm1qllwr4cGPXv6bUNwYQ933/C8RkSTTbcFjM56LILFCXhqy8cZ1xcrDIOhi7S9t8TjxYocP6aHXY82LoCTqsHj8YvRJLJ1i601ARO+vnXmgwEFGkBhKxhtsNHu6YppMnUmVxLW6/ep0H7rh7cMW+Eo8WJ1BSG1qo+KJKZUTQuUp+AKzXrpEdJ3qSf194CAcHmSrJN6ve8CDlZj4HWId/9OrQG2rFwPVL4SybKYOPk9+QVvekkKcBbDRVXtUfK+oIXr9Xdg8FxN+PM6LEBuxpKFIM4KZIOPaJBMEJEbZnaujol+5nX40ajow1J8SF4L4ba2GlS/mC1CaOf6hkmGOqQUmIBhxNwqjyty3NOoQfvLe48WQVa6L7yIKhOfWpyEj7c0NpN78+eFuoYeqK8gAgtmNAKW47B4bCj7Phx5PTNUcYSiB7C5PhbkvdIHLcvtb5W0+FP68FNye/8OV/pBb2WLmqync57KOQ77XiNAANhPjc2vYafxc5HoSZ6wd88qONXBb0RIKjalimkrRoHQjUDnjakU077EiHhr32edniiphlL3mdZpV9eL1Z5D8PhacUcRz/lVObrVKqljf6EK6mVtYKff8v6oMaCcyY5PrS0599akKEdg2iu+L0IfiboEsdPEVSyrliemjlqKtiW2OklL4P4MxiZg6607HpvSE/sNzltS12iOSBtxfyiZj707UPg61ChnSMj4CecgwPf4XoSE0ggWrDvdNANnd7GKUzQ6S+1fLWnHj+0L8cPY2djqEU1E3QmX+tsIxyAoOy99lCsgBoE2mW58QRxGx9apGQnowCW7Dbh9vesaGmPVvhXU2dWgQcvLnIjK8FYJkV/iZJEJcfx6MOVJEGSNhvcv2rcWicvbR/U+Hj1tMb+0jmRp0C9iliEg3zOfcGfxqZGxRTBjRkdbVN8FgQg6NXX0q7+VCl1y10TZI6dGSQ70/GGQzstGBFA5y9rorb+G5texY9i5mKoOaMDAPpSBQtoocZIH4oXiEEz02ZUFPMmqMCZp2Cei9QTEz3/1cuGxMdAKzBUQaneicA+EaT6yxapaDeUfAit8LpaYY2O7RLKqNXyiGpZBLYICZlz/pZ1JKCY/aDvAJMUCZDQglH+LaBFDwx9AUVeulRUdBQ5ffsq0QrkvWoyKFXbwt/qHRid+dolh4N2jcrakzYCrR3ltKhJ3qQ114Sz5ny9I9oDrcmBfZO51DonSnKs7rRtFAz7a4N9UIGn/4d71Mhe6s44OM/siz9tyiF3FR5zrMHP4uYh1+z7OgRm2UxL68yz4K8/zJrMpE0hhTlyEsk0tQ4T3Rnwf/O7jU5gTbEJzn8xSMhPBibkdoYz0IklLa0zg5avOQqUSVFOvlomo1WfhouwjZwSjK4nrSDQMnx5nwyF3r68MZCbiY6VwlwpABh/bXc4lFTD/Jy24NTUzsucqC2pq69Hbk7OKSF1nUCxM0mP9jOt6lqcs4w4m+lBiy9ayBjI9FWhypNu+yUcAYjHC5ryTMm41naGoROSniH705Jox80+8T1/wl07N9Q6SBZCvkd686E2IBCTljXkaW3CunW/Qva0uzAkRk2ipH3kNM/PfIFD+VwLekhPOrPyFMkfbRmpW7/25X0tiJR5lPeZXU9CQSVpkwhtyRpJnsz2CUy668Mhp31JB61N2qXVyMiYOh0Ijee1kIgXaUPAHesUjY3RNW9kz4ejPWC9nQDQpNwiKiYhX21+HVcQSGIyf1oE9mubqxTPtmzEI/HnI9VHCGQ4GgTWaygPAguyk8wuZ4u2weznQggjkxYpc3pRgFfLOltblUtwxN7kr4eBAIKEMvIkzkQv4W7OnqSOL3ChMjaaQ04NM1Q2hIuCp0Vh+lTjJimaATKKBiWPOU9w5eUnFU0Bc9xrGTPT5FJI6DeyVgiKINBrFvypoI3QI9STklYwBTpdrmo7iPede/CY7XylGxyrL2Hhr49G1gDLiEMj/w7m+S+pllWtpi1oeX3f9rjK8YeWtfhJ7FwMsKR1fO3rZC/912qehHZqiKFHOThRgOvz6XcFo6rpR4CC1jlUrbtTyMo6oIDmbZS8l4FlxC5O+tgddiQlJilRGdTaJCQmKOmttamyRQMSbP0IKBJTjv6UKp+L3VvWmlZ7o45LTXeualjUmya1wl7GKZc+idaxO6dvI+sr2Pj137NO7V0bXJu+tAiyDgIJ7VDb9lWevINrnRclBgNP69qK8HfnVvw6bgH6mLumbu51gNATg43U8e9NAWMAoXevYu0OBYVp+zttCbMkQxCGT0bIk2pSUqLC5AkUWpytyGw3QchJi/2S2x+10RpklmVlxxUVOHMqkMHLSVPGIicUEUShOjwZYZTBNDG+vt/nqsD/NC3HL0xz8YB3Bf5ivgQJsfGK6SOYdsDIPAk4ILMVgSuOd3xfny9CW6e8G05kDKMzHrR/hGfiL0OK2X8abZkXEQa+oj70WjK9aaFzjnkHg6ULoNQmW1LHq94CyYyKbIvqXrFvp6RQQKjvSyge16hcDU2hxggIalhSklMUh0UKlWCpj8V3hGCYdRM8i6BXwYrSsy7TKc5yWtCoLSDaAPleNSOoGjc+Anj4mw5+p9sjd43I3FKrqF6K1fUhmDLqRGlkj/qiA+eV/Ijae19aWP2+ZVKlXztW45G4BSi0qM6yfEIBCHQe5gGIj2ENwuk2iZH+fP0U8AUQtKdXbRYwX6da9aKbztvywjU7hDNyAQf8LQBB374IBBE+BAaJiQntwkt1XKLDkDYjmdik+Q5DI7mRtWFPRP98j8y6uqZauX5YYtxlHGTSJcdKEB/Hq4ztyM/P7zip+1JPy3t6NbjWbBJIMyBAJBjD2egqwfNNG1Hpbcad5imYYMpV+t6dU59+7qhGp98CH/bZl9Oa3llNmC1V7ZJxUF+vCHV/a+Ul5xd4y7kLv4lfgH7mVMSarD5DxfR+K/xfzebXmTZdyrAtralI1gYdGCVcTfu9di3KuxSuRUVHMHBgYdATo7+xsT9lZaXIycntEMi8etutpGvmRVO+zUvsj/iRBNpjLCdOueL7oAdqSgx9x70cXWvjGpdInUDrNJx9HgwIh1OnADL9u9QeGOFhnH+WUzOHhpbUiXQkbbVrKNgY6jwOXNH0Ip6KvwhDLH1DBgghp1oO1qHI9/8dFNACBFHFccELitamXfUFEOiUxhN1sLsNeoOa0h+t2pjt6NV2ZHyi5lUZZpsitI4WH0WfPlnIzsrqcpmS9n2WKy4uVi7boVMmT4LUNvTLU6+L5kU8BBfqfRQeVFZVw8U7BTweJCclKrb0qqpq5OTkdDASowwlkNDX09OoSeIHzUuxt/UkXPDgNcvVatS916uYUIKpO33Noa8+6p3hhN4SxSHz4S9MVj2dqg6L/JsnZ383e3aWdcPtdeN171dY4toFOnnlmJLweNyFGG9V/UdEW6AV4tprj+VzLYDQaqa0gk8FFaozJR9R2wuNpC6OvbyiHDXVNRgzZkwXYaKlt7ZuX+uD35eVlSm+CUVFRcq13DwRso4TJ06gX79+PkGC0VOutC+5F/yF5IrjaG/s56+7ToIabegj6W7EvEAaSJQX512vPTQyDjFxhAIwSlylWNP8J1yd/BCiYO2iQWCSpOeff76j6SuvvBJz5sxR/g8rk6KRQUTK/OdTQAsQuFlkw0jImOqoSBODGurIR4Qs/5f0oUaFnlGKBjs1aBmfP+EoGgae+LmhaedtbGhU/A64qcVRTK9S1vdRBBxzGpAhJyaqEQ08AZCRVlVXKY5PmRnp7TZjqwIMxFufvg9U8dGTWICKETpoha8wcH/Cg/UFm4NWrxv3NL+L80yJaGo7gEUxt3SEI4brmKWnvZyO9GCDQEuSDWkBQDB1Lu/QkGgU1imaHNYh2i1+LvXIuqhvtWO79wQebPkIA8xpijZhkGsThtsuwYWx09v9abpqDGRta0GmaC30ApxrQtaPAAT+lst5GPYdHRWFuPg4xZdA7+irBSzauZN2fAEGarpYb5/MDOU2Uplv7tHKqipk9eljOKGSr/UntBPHV+0tjGKqC8Vfxcga15cJtu/DqdPfO/qIhlByH2jXvfAZowCb5Wtra5CcrGZUNGJ+FLr83r4cY6MKMTdqUBeAwEyK9G+Rh75U5HMRgNCTK+a/sC49QBBbpGgRJOyKi5jaAp6iyRhZjp8Z3RS9SVr9KYkaDfa1vKJCOVXRTDB82LAufVUZnXFvba3wIG3E0YknDmEQWnOAdrwsS18GbtpAQlzPaLTj0v6t73cgBtXS6sZ9rxRhaVECTjRbkRDtxHmFjbhi7jOYl/Y/HcyJAlZUy8GAhr+51NIhWB0sKzfP+TaLqCGqAib4mzZj7fXOsv78rUEl/NOsgtpYUxQc3jYsbnwZD8edi5HW7I5hSDtaQa01Z2hBgvwtAkJvfiBoKS09pkTCGHFCk/q0mgo9fdW2SA81MsBXlj+2W15erggFMQ2Io2goWQEFCEgmR4lOUMNTjSeFC3Vvhcof5JDiz+QRrD4lo2BMjLIGRaNlRHsQrF799/6APQW6tBdKVsktrmN4vmUL/pSwKCQfhLBMDA4vUOE69aKfUIkQKX/6UYBpAPpagegg5jFfPghyCtKrvxgJQIDgj+EYUWf2BOMIVAc3OyMPom3RSEtVQ8XktCbMWBvbrz2pGZ1FMlFqD7QpW30xBq3wIPMOBhBEQ6NXPQcTtgJeZHxSvsHehoVPHcPnTafelprhOYz1tycgM1l1XOJchyJIjNIqUDmOV/L5s89qXo3AC1Zsx+Hm1f+wdR+edW5ErikZ19jGKUAhxXSqU6MeNLB/em2J1pm1c5xeNDQ2gpFEBAha0CFlRIuk1RboAUJHGGe7f0QwurDuhoZ6xQEtLjZO8auh8GMUE3Mv/Dc9wXiMrCECKa570kmrhfo6aEUeS80PNXehHLIavU7c1/wenk24HNXUGmVlBe1uWCaGNi/wVasJMUpCmcjzn0iBBrcXE2xeWAJMsb8oBjXEUQ1vFAEkWgMjKjF/9NSezPRl9Bvb10YPtvlZJ4Ux+6hNjyuaELFta0/Moc69AIRAJw4BSyL0S0pKkJ6ebhhUSJ8CmRaC9fv3H5/ED9aruQESbcCEHOBANVDWQDuRG8Pd27H8uwXKTaC0Z6ckxiLa2ql2D1Z/T31PsEU6EaAEy53ANtU0xEwspNrgQ33c8GCt8wg+cu7HCs9BfD92Ni6JHokYdGaMlHnzVbe2TTpViic/yyqpmZlsq1E1ZWmdV/VrX0CI1pdBNCYC8iThl5ExkiZ0wlWTUllRU1OtzCvzfzAhnhGgaaSd3ixjZH+zfe38+DPbBeI1or3qzbEYqVsOGkbKSpm7m9/Bk/EX9y5AKG3zogGWHr5UM5RhRsr2NgWYMmmg1YOYEAFCZ/4D9VY5OYFrQ8JCZTay8bvGh4em4jdKLzIPxrITnUuaXH3Sp3AEi7Svnny7ZvnTC3K9NoVMm6c6CkD2S2gq4EvKC121p0uW8ccEA9Gk//0HcTxqKBiJdvLHQEYcUNXkwoBfHEcTLw20xgONZUBCFmCOQoyjDG/cmoVzxqSDwDEc7YrROdKWIz3pJ0K6UMCGK/hDbZvjs7ucuK7xVcyMKsB34s5ClMXaPm41dp59cba2weN2ITY2TmmiUxPVqkQ+aH0RqLpW6eZFXJwa7id01Ds8ypyKsNPuKe160mqWtOYOf2tY1pJqlnHh+PHjygU9GenphuzdodLRSHmjgt9XXVptivZ77Z7Q0sufJrOTvmp+h9PhIaALNYLo5qbX8deEK1BdWYXMzM6wR3/jqa2t6+CFLGMozPFYmxdNMG5TOh2IGelDaBQIFyColwupjlVkTmSU4ozIHvRGhrTQRha8tHrJToPiUCj54kXzIY5WoQpArdqZJzuqx2lLJIjiRlXTCqsCxJczF2nJ7I1M2xzMf0McFEXAhAMQrPedABJzwcu7mn8O2Fs96P+LSlSbswBnA2C1AZau15aaPG24of8+/PW2kf+SxFicN66vUOyywVdD4BJHjx7F/Slr8e22CRhhUSNSSH9GqIwYMUL5TW0AHSaZx4CJjsrLK+BsdSqgIT0tVXEeZDgs1wPDXgM5X8o60gJuLYiQ7/UgUuu06gscsDzXF31wmEFVyhDwEyQMGDDgX65FCEWD2N15DfR+dwBLT/WLEVGMSgn1sHVn09v4bfxCNFfVIytLvash0EMfLK7TkFItRwBCMLL++38fLkDQjlxOy9qLhkTFS8EYalKbQAyipylOxkhzA23BEsan90cIp01x5OJYBHywXrYn4Z7+Nj21CIxqyM3N9Ru7Ln3S26glwY1RYDPyF4ew3zsEUWag/CfA1X8tw8flOYDHDdgrgQTVNt0/GYiJAg5W8dwLWN3NOHKvB33Tumo6wqFVOO9IPH6wy5xCqVvWMX/rL+wiQKjM9OJ3rZ/h9voxyHMyWZFVAcbDhg2Ho8UBnsKoiKurq0NySrKSVKu0tExZV8x+SLMCTUhk+nm5uQowDfSIsNcCAy0oFJ8HAZzaOfcHFgkMDh0+goz0NCVzqC0mBvFxcco4aAYJ1qdQ6NnbZbVakFAFqK+++eI74fKingIXoqEKlZa/tX+CWdGFKKyL7T0fhAhACHVa/v3K9yRA0J7o5JQXznXPPbW5jMyGCG2mE2eIoZqroDM9rq86tFqCQKd2rVpYBR3MUGdSBAkz5OnTPgujV/0XmpQoC4ZaBlKnS198ea5rT5Os29e4/vbZSdy+MhswmVGQApTXNMFhbwI8bYpmgZ/fPgF46iKArgd/2QLc/q5SGy5N3YZ/fnuUQiK5rMsIzQOVkXwyRtS7YhLylVCJY/flB0Ma0FGPt9VZLbxzQw0hk/sCWCfXMQV6SoqaAZOPcur2elBms+NZ9xYMb03FVabRaHG0IC8vTzFXqRfrRMNudyAhIR7NdntHohzmvWBqc9r53e2hwnRIZT8lSZSveHetWlxPN+186oWlP+HJ8dXU1ip5PRiSy74quSTgVdI494YTarD9FO6aCUSbcOvUH3zC0cr1RNtSB81q4eRQ2OE6jn+2foEf2icrc6193nrrLSxatKjLZ2E5KUYAQk9O9elZV08ABH8j0wuo040CZDA8zfHEziQyWkcwo30NxPy0amKtw5TkfBcBRgZNFTUjHihYRMNA5k3hQc993g3h66GmRpIOBTpN+wNdjGI489dHUORIBSxRgKtF1R5YY4H4TKXJqvuBdNW0jvImIPsR9e/85o3Y/csxyt9UVfcUSDBKe5YjLSWdr2hrAvmOcE6oSqcgJyCkfZc0pAZJnB9ZD+eESYcoOHljJ7UFkvK4yduKZ11rkWwBvhO30G93WbfWX0QNlTMjPj5OCatlXyQEloCLeQuMPloTg9bnQExXrEfKaIGSXGesdZ7VAl7JyxHMdyGUfrJsT5zwpU3tvjLaD6GH3ofDX78k0RFBm8oX1JaMANdQ+hSsbCBzWiDe44EXv3OsQW5dFK7Pm9HRzIEDB3Dttdfi2Wefxbhx4zo+jwCEYDPxX/p9bwKEcDfy1zUVZJYUwKmpzHeuXi8szMwIQwt2MtKqfIUWrJftaq91ppAjUKHdmj4RZoul/RppNZcCk5vwlOrrRCw3vgUKp/RHT/bpULkdM58sR2W0Lsyx8ThgSwKiE3DvNOB3CwAGM/1zB3DtG+SUHtya9yX+cP3QLtVrkxEFFtS8ynYnPO5i2GIu6daUK7kMWulRqUbUBJo7Mniq2XmLaWpaOqKs6pXTvh7WSxqxPJNcOVpakJKcrAChSjThp23v4W/xN57iHCrv8bfkwuCV0wQYknyLnysZFMvLFUBIjZIkyTJCDFlPkoiLYxZTnvZkrQUMrJeaDgLiPn36+L36Wtu+3slP1ryR/aEfRzgnfl97rKcPHr7As8yb3IlhZE56qwznWJKLEcTKHqN2gdoufybcBm8LnihbjofzL+3oGoHB+vXrMXToUNx///29AxDszQ0or2tSblVJiE1ATGoiEhm+01yDek8sMhI7kbDH40J1iweZccGvmQ2HwMpiMZtxYN8uDBo6+pRwvWMlB5HXb3AHAjy1jWbU1HuRltz1FiyffaHHr5eq1tM77JPqU7Oy6l3Yffg4RhQy5a/vUK+eBgh6mx3npzvRAMHWBBmImv+dJ1g1t7+vR2VonZ7JZABUG9NpTN1g6sUyeoCgfy9Yf+R7rVc5P+P/wtjEK1kEPh3b6MxIZkRhVHLsmGK/lkx4zNnAfkpkg5ZJc1h0fAyHxs42NyY8egx72wYq3bZZVaNHi1xJ7qgBYnmXvAmT84DMeGDpfnWEMe4GVD1Ib365XEn9XE7hEkbni1483bzQvASTXJsxLOFOWCwFhsgayB5MGpCOpGkwvwQmU+L9GGmpDO3zv2a0neLccd64ZqjlMdsseNr5D9wdewusFquyhlhGQAH7yropjPkew2mVNVdXC0s7UBChTqFNYEOAEOojl4pRI0LzhRaUiplFL8xpTqP/gf4iIL3Pgy/1ek8I51CBuJYmcqLmPBudu1BpaqR8qGbQUMtr+9B50OLuVC/SEk0GwYOEY/vqt/6yJiUNfHvGUoJEecqrq5RIiThbrMIDuh3FsG3jcsQOORdxdUfgKShAP68XUQx7ameGXphgbb/FS/mMaLz9M2UR88YwL1mFekqikFeEmskEr0e9AU37OfOhu9xq2l61LhY1Y+9XuxA/ciT6Mx2l2QyXco0q6/DAbLEqsdx83B41zzoHL/ZHBenjOHYfBsYO6aeeFrxepZ42F1PmWmA2sSUKVw8a6irx0TErrhqTpmZsY5ZA0T0pykiOyQueQ9VNYFLAhAcmmMGxSmY+rzIBFgvH4qJ+VgE27KPyjtBNxsxIAdrF22+6oyDz8sTA8bo5Pr5DOqqhU+uOHMHMQSooIuOs3r8e8YVTEG87lRn2NEDQL9LeBggcIzcJ5zYUFS03CvvGU7teEPD/cARuIMYiAEHqpRaBgIBrTk061ap4EYuKt6mpUfFVYDQDNzQ3szDscE5v+r6x3fe2VeKydzMAsxVZCUDx91WQcPFLwHv7uIhdXRwVO+vw4rKMXfj7rYUdfeJeItMms/InRNrgxvLW/XjC8RkccOHDpFu6JCCiIOW74d70xzEpiX8MgATeVcC7L4KlcdbTjQKZPgx87z3P+xiF8RhozUd8rHooIh0k8oBjEe2PnPKo8WG+i7y8fsr9ESxDkwf9EbreBqrysZ6Ya/ZLq8HieiMoIZ0lVbK2HX8CvLvgwJ8GQdXSeDpusdQKfm2bPAiIcAs17M/f3gwEOgPt5+4IfCMAJJQy+ntNtO/qAQLn/dChQygoKFAcZuX5Wdm7WG8txfS4QbgrZjqSvGrk0htLluDyK66AqcXZekrUZyAfhE6AcABbG2Nh3/4GLpw5EweRgP27j2PhrIlIS0pQmN8eux07tuzBwkmjkZGUgMqTJVh90grb7jfQakvB0InnYPeuHRhR0A9po0aibPlLGD37fKz+shTnjh8Jm9WDPz7/Kq64YD6eXLUPccWb8Y2bbsXn27ZgRGYarIOHYOtLf8Z1F5+DtTXx2LppA644fyaWbDqO0VEHMWPu5di7ZTU8/Sag5NBeDMpORUN8f+wtrcBFeQ044e2HCUP6YdvmdWjMGInEsnXIHjYNy955A4OH5yNz8GzYi7dgYH4B3i/yoKB2HbJGzcfOAwdw9dlnKYR02Bvwys5q5FetR0tsOuL6joC3thgFQ4bisCMLE+zrUJU2GoP7JOP9FR9j0pkTlVv8apqa8PpLr+Ls2aNxwJ4CW2MpLjl3gaLC/clz7+Kei8bjq+JGVFUWo6m+GTMKUxBXOAHL33sN+YWDYckYorRTOGw4Xt5Ygm/PGoJ1h47gnNFjEGVpxRMvfICLRybAVjAReRlqXm/t09MAQa8S7G2AIMxPFepqqtlgD5k8Q82YYYzMXISbtq6eYszSF9JFhAf7SeBGgSj+Bnv37cOgwkLl9Cttk3YEP2TiwUIeg43ZF0D41Qfl+MVmNUkSIxj6tN/Ae7gGGPSE+kZM7W60pI7o4lA5LLYc276XBpNXFYZUqDkPfgJrznC44jNgM0fjsKsamdYEtHndSDLH4oS7AZc0/R1TLP3xk7i5yDIlIsbUVb3PVNMcbziCW0tnNd23WQH4/hwVDxw8iMKBA7uo5TlHRoAh1w7n0pXkxWLnC7CZUzA/ehi+GzMD0SaLotGS2zx5K6jk02cfOafUQqhrTQVDFXG//K4AACAASURBVBWVykVfel8ClvG3DrmGg/nMaEGB1M3f7ANBCjUIBNUMV5bv/fkg9PY+Vn1t1CRU2jHrM4YGokmgPdDT/T+dAALDanmQ8PX4uu6Z/k70udI+J6srYYmNxkmrHc+2bMTvYi5Qvu4BgHAE3gEDUbXqZfTvV4jiqHykm+3Ysmc/rj5/QQdASKyvxSe7inDLwjmKE9RjT/0ZztwzkV35BRbd9C1sWbMasVl9kD5wNI5+9CfMuvAalJQ2Y0RhP8DdgF++8CkeuHEBbnr8TQy01OOH996Bt5d/jLF5OYgbMQqr/vSIAhAOWQqwfvMm3HbJWXjo2VWYkF2DcxZcjfe/KMIlk/PwhxdXYPakMYiJtqEqPgdTE4qxq8yG8QpA2ILsSRPxxVt/wYJLbsXH7z4PJGcha/AM1B7eiEnjxuPDY1bY1z2LgdMvRmZKEkb0VxksBfqjTz4F68AzMMZyHANnXIKW4q/QmJyDsqZYjG9eD3f+NAUgLPloGa44byEam+qw80QNVix5FQvOmQFrn9Gwn9iFGZNnKFqUu55eglvmnoGsrGxs3/gxDrtysDDHjryxc7D8nb+hui0eMxdeobRjT8vD0dooXDEqBWsPHcGMQVQbO/HECx/ihimZSCycgmglTW3XJ1SAIPZV/WlHatUz2HBOHeGieiNCkkyTgkh1BoxXIgXIqOVE0h0ba7D2JTeEAJHy8pNKLDpPTMpFUUoCHQ/S0zO6MMmeZm7S/u8+LMNPNlH3Bnx2KzCjXdO/sQSY+qw6mnjncTS3tAHJ+cr/Uc5qrLjOiekjspS9TUDjOvIpWvduxImkOLyUZUFxTiYGmtPwpfuEcrfBMwmX4ZO2w0rKtWts432SSbRdkgQpGC2NfE8hqqc51219Q70Sq5mamhrWCZ118nZEvs/1Ulx5HO8mFqE8xoF7TdMQ1+xVnEq5F3zdeKhqOhwoKTmmCEVqscjg/QkdvbmKYw90alSF6KkOdbIX+ZsaNEmdLWYhARR8Xy+YexowB5q/cHwVjKwHKaMXqKQHzVM2W4yyHgjuJM8F6aCNbBK6KgDR5er4jjxFMbnHxyEhgQZ3prXuFNyBhHgofdeXJd+gVspfxlaGS+vzIPjy6+BtsgSrHKvT64LFo5rRwwYIFSeKYU3Nh9VZDyQnw1GyD4mJKWgwR6PoSCmiY+Nx5rBCBa3WtLlw9PAheK2xmDhkgNLw/i3LkTbmbCS3NWDToTLYYmIxpn8WPt15ADaTG2dNGIPGpjakJavEPnBoDxqdHvTNH4q//v3vWDBzMqIT0jEwPRY7S6uR4qrDsIH5qDcn4fjJkxhVmINNu44hK74FbU4n6rxxyMrMRlV5CTyIwtBhg7BmwzYkp8RgWL9CZKYmooIOQ1lZiHLUYdPB4zBFxWJqQRrW7j6s2LenjhyCFV/sxcwhfbGjpBJpaRmwulswuEDlrFV7PsGJ1LEYmRaNz3YdVIg9ZcQQLN2wDWlxFowaMQYpcTaUnyzFgfJ69MvNR9GxYrQ112PM4HyY4zLQ1lyF3Gz1Pvfdu7bBbopBbnY2ahsciDHZYao+imJzDrzWGMwemt3RzoShA1HcZMbgdBs2fLkTo4cOR2KMGV/sOYrh/ZOx82gdJo0adEpWzFAAgoSVySLV347XU0ykt9A57cE8/dEeLKFDokGgmUYu+empcfja+FomTEDA0yQ3t/gf8DTJhDvak2+nDdKPH0n7hUWhqKRZ59GKZgz9nQOeuCzERwO/Ow9KwqRfrQEOVFEK2dWohpZaIC5TSZp0W9Y6/PCCAuXEK33kvRUMmePDFMVV5hb0j0oFDXgWnggN5mLtrXmXeRB/Far9SePuXD/OWz/r6+qV0EXekNjc1oKl2I8NbUdxnq0/Lo2fGhR8iJDR3uIYTFiQn6phkbwboz20JNhLmu/F1EWAQ80UhRw1abLmtQC5UwOhmnONPD0xh8HWu5F+BCpz+MhhFA4sVA4KBGhV1dXtUSpm5U6K4ydOIDsrWwGBFJqkEXkfVfLMcZGRmYmTJ07ARPOxx4O83DzU1dchPS1NAQXUDvI7pWx6Opqb7e1JspIVvxclYVZyipLmum/fnG5lrgwWBqleV90WcC3SZK01Y5J23fZB6M4kNdTX4q1P1+L6iy5S1JOhPr9/4S3ce0PXOM5Q6+jp8kSgL7zzLq5bdAVirGEMymCHjn21DtnDpyGq3U/B4Gt+i4UCEMRBSFtZOHkOgvW5J5iMrzYkB714JnPjy5W82lS4wfrX3e+FAbL9kmMl8Hq8HXkRyGCo/tOmr2Z7gbQI4Z64+N53XyvBn/YUdPU0lAHWlwBuJ9B0AvGNB5CeZMOtg4oxcuQITJo0WRGyKg0ZvtdJFV8nZ1+nlnDpGGx9BGqLQpmMmVoaI+aEQH30dbKv8zRizbYnsGBfFKKv/YlvuoY78Pb3CHRlvYaTTZL0ocBj8qekpERFk6a/xlibwbE3AXM3SRHy61w7hw6rAGHv3r3KIY4AjXQkX+AVy9QAyP0WdBqmwGcOjIT4BCU/xomT5cjNyVHMYdYoqyLseTtnRkYm6uvrFM0M66ypqUWLswWpKSmoq29AUmKi4tuWmBCvXJDFiBhqAKi5CPchT9NeuR1OPQQHaj9sHSbOfylACGcQkXd6hwLdBQgUZN25mMnXqIIJAL4TjhlCBQhtire43t7cXSaoOhtS5ajeSyGx+drxaQW5MGk6vPF0xnSq+rKKfb/9oqHeMDMQHK2vLcP5jznRGje8S/smRxW8vIehpQZRldtxmfVt9MtOR35+PkaOHIXx48crDFXC9fTz2Bvroid2AIF8XV29otb3N+fhAi59/9T6ezanP/vGU6GAxnDCW+VdCj/67JRXlKOttU3RZDEfhP5iKD2Q6in69MR8hlPHoUMHO+7HoJDvk9VHOUFTs2hvtishsDTrquaoBjjsdqRnpKPF4VDCXbl2qF0gQGZYcnZ2X9DplfNNv46m5iYlfNbNjJzR0YrGIMoapYCMrD5ZqKgoR9+cHCWDJXlGd6IxesJ0QS2EgF3RZhHA8AnbxBDOxETeOf0oEApAkN7z1MgfPmQWYqNzOlsRFxfb4WgkNk9/o/Z30gsEEMIBBmyfCLnoaBEGDqCJS02EI/ZFnhaUyJB2b2rxr5DPg82aCg7U+wG0jnEMvfTlHS4Ah++wX1R1Dhw4UGFSQhOxXfszG3T3RM5Mjfv27ceXtkqsNrfh1X+ep967oEiPNlyAt/Fxwzi44nPwYPo/MKawDwYOLFTU0RL5IeP2RR9/9vdgtOyt76Wvhw4fancG7Xq/RG+129P1ck8R6GrXajBTieynQPtKTBcUdIMHD+5w3tSuPwEGenDdk2M0uq5FC8e2udZIE5qB1T2o3nPCvcV9zWgRY4cYNYqsO4/R/nenDe271CYFuzFW0pJr39OuBQIErQaVcx4bp5qv/r0BgteFyvoWZKaEHj/cUxNktB5HUz2ssYl+TQMOeyNM0QkBzRNUC5qoBjLaqIFyoQIE7QYwshnkRkMDXelSxKhw9levnhny1EWBzM2kZ3pyMyWZpEQMiBAXphis/6yb9Qq40EZGaN8VpC4MjuGNDD3iKUTNCqgma+JDkKDVIujr8aUi96X29tX3o8XFiqpzedsBrHQeRNyHg/F02VTAbMHw6rdwRdZObD1Ug+LWTEyMP6JcSHTmmRMUcCCOfxarBakpqYralHkb9P0jLaWPvtaKAMjeFDjSJ6qGmZlSHLGCzWdvfG9EM2akXdWurDrIcX/582APVpe2P6zn8OHDii0+Jye3I+eG7AOpqzc0WcH6Gex77j01SyWjmDpzmWjXXDBTKLUpu3fvxujRamZQAmg1DFlt3eGwKz4fovkjf2KYOn1RaHrQHgQqKiuUz2JiY2A26LsRbIz+vqefA7UW+vkhT6HgJ08pLKTDeiDg40VxcbGSWlzmu9cAwsv/fBXnXnMplrzyNmZPn4rYhBS8umYzLj5zCPL65iDBFoXjpaXw5uVBdcXrxkOA0NCCxtI9GDhyklpRzRFsrovDpIHZ3ai451/dvuZN9Bm7ELkpvu1NX25ZDkv/WRiV5d8edfDAIViHDILq5tkzjxGAsMFdjElR/ZWwtFAYBNX5VKGFYyMLV1PgjyoEAVTHUY2oFVpkjKIF4btiewyVuqxDufzGpto0/T2kn/b0U1lVqTATAhftFdoso3Ve6669XN8fqkhJ4zXeo3jh8/dxaXUBHtg2GM6oFFzt/Tuy05MUWypTcyTExyMjIx1z585FTW2donIl06Hmo3//fDCRE+P4tQmKZJ0EAgjaPvlTW6upUVQNT7gP6+bc8yQZHe1fcxDK2g63Lz3xngAE1iXq6XDyAsg65BxRmHAvUNjI2vMFjr8OMBcqjURoy3j0Wjd+How+3IcetweJSYlwu5hbhqYch+JzQB8Brm0CYya0otMhNRaMhNJe5U0QwpwWlMXc02o+jiicOHkStmibEr4b6sV1qsBWKeIrhJtrluCIQIHjlORXsi54o2hurnrhWqCnrOy40jcJs+4mQHBizaadKKqswcR+yShvjcasM8fDYjaBAGHA2AK4E0birIJEZVSvvv82kvuNwLnjhilOiWvXrsbJ+HRYDu9EQv/hKK6x47YFM+FsrMGTH6zH1DGj8e4nm/HoTbOxfNd+bN9+DEPy0zFpxhwsWbYCZwzoi+lnnAGbpQ5PL/kCia4S5I6agdmjC7F300p8fNKKSf1i4XBbUFpShMWXXg6Lu1kJdexnacIxbxzanK2wOcox46xzcPB4GWKbSuDIHI7XXlqKG6+9BCNy0vDQ7/6As+bMRll1HcbnJaOiqQ2bDtUhuWIrhpx9FaqPHUC//EL0iXagpK4NJUf24bLJI7Bkbx0cjY1YfP4c7Nh3AJ+s/RIXnpGCvu0A4dP1a+CNSsDIEaOxb98urNpZiktHx8CVNBQ7edOarQ3nzTgDy7eW4PC+Hbjw7Ln4bHcRYr0OjJ83Fxs+3YaktipMGTYAr+44icXnzER2YhSe+NvrGDt6CGpd0WgsO4TRZ4zHhMLAcMIIQFjathd/dK7D5dFjcL3tTCSYg6tniciZHVBCqGShG8lTEGrZYIuf33MjHT1apAg0/SaVU7cwFi1jDMU3QYS/nO6074pKmGUYh0y68DRLpixJkLSmG/aZDEdOQaH0wwg9WC9BwnL7Tny4bwPO+CoWZZX1ynXPA7OTUTioEGPHjFEctsjkKFhpOyXjYQgfwQxj/Ml4GSoqIXPStpE4fW0/e1M4KzQvLUW/vLyAjolGNGJGaMsyPMFR9a+1L/eUBkESBnFNSBQOT7vhgEhZ6wx7NFvMSEvt9IVR6cG9c2qG0UB04HuS+pphu/w/nFtdQ5kPMbtQOtO0x3dln3P+g2XX5J7kQaahsUHRitH5kM7DvKUzOoo6WzWZE51b6bNBMEH1PrUEyUlJCsBnbg3uC9KQe5cOoDTZMGEffRIGDChQtA69/UiaaLZDHydGHMmzc+dOPProo7j77rsxefLkjs97FCA0lBdj+a4j2FtcijsvnY8PNu3GOfNmo0+URQEIo6eOwO6KWFw9ZbDSAbfXiyN71qHM2w+zRxXg6JEj8AzIxyM/expPP/QdPP3K27j9G5fC6nVh2crVKG+xYXxSJTYfa8VFl8zFqrUlmDMyDTtbslDTZMfiM+R2qjo8/eYuzMxvw4gJc9XBlu/B6upENB/fjwvmzcNXG5Zh2OQFimr/b+8uR3JSDHLTYjBm9CSYW46hujUVxZUViKsrgjt3DFav+hI/uG6+UtVDTz6Hn9x9C95cvgI2Zy0aLImwWhJQu/8L3HzPd7Fr22YcrXch19qE6TPPQcmWD2BNSEWZbQDqD32F9JFDcfxoCd568z3cceEk5I1XNQivf7AMV56/EM1N5fj8y/14YdlW3HXpSJQ74vH5gTIMy0nD1fPHo8luw86NS1HpScLAMXOR0HgUzpy+ePO9NShMicb8YX2xpTEJF40fCI+zCXe+vAF/uukcPPrGSuTGAdeePy/oWjQCEJhZ8oinGmvbjmKD6yhujJ6AqVH5AZ28mAmQAEF/l7lRJmm0XKABan0g6IzEiIHhw4af4hcgwEBbnn/LJS1GQY30he+q1+d2pv0V8EBGxu8kQyKFiFbjQD8Ojl0YmvaUF3QywyhQ0vo5jtV+hcz6mcoV0+wnQQGZJU88oskhw+fpaNCgQR3hgWREfISRyzhkrMbsvmF0Osgr0j6LkWGL8NBnzdQDlFDCRIP1midy0sWoE2Eo610AAvtAkwD3GfvONUOhGCyBkr7vnEfFvBAdjfz+/U8BGrIvjIBUjoNZZqn21z5GUiNrzWvasEvWY3RuxI/HSDbNrnRQ/Q8IaFQHY1UL6BukqI6ncr+Glt48GPF/1qEmblNvhlVpaCxUNNjaCvY9eR37wfEwjJrAhM+7776LrVu3YsKECdi3b5/iZHn99dcr32kBAjVUDOXkE5YPgqOqBEs27UaLy4w5gzNxoKIWc2fMRqzFgs8+W4fxM8/ChpXLUOXmjXBZKD+6CzFWMy489wL0S41DbXU53v/iEGb1i8a2E01ISM7FOWcMQUtjLV5Z9wWavQm48/wz8ft3PsO9l0zCmi9OYFS/BJwwZ2HThy8jNTMN8+acj6ToZiz/vBij+3qx5YQLF08dC7TW4PkPt2HGuAKs2XkETk8Mvn3xLGWw+3d8iu32TFw4Kht/+XAtrK0O3P6Nq/HS0g9gdrdgxux5+GrXUVw8a2w7QHgKo0cMRlRSDsblxGLFrmLEJmchpeYo5ly4EKvWfAK724o5YwZjyfqdaLR78L3zhuFwawrsJ0oQlZGEjTuLUFd5AhecOQDpA85Eenw0du/+Al8er8eIEaOw98B+lB2rwMVTB8CWXogVK1cgu28mzp02Hi1OK44e2IqUnKFY+tnnsHiACy9biBf+8TqG9E3F7HGjcMgejYkDVMC0dvU7qPXGIX/IONRVnsSsM1R7WqDHKECQDVvjseOmptfwQMzZmBjVNRsXNwGZFxclBR8RNhdhOGq1YP0O9j0ZFNVujM+XC3pSU9NOiX3XMgBfjDAUxq3vk/4+AjJiblw1i2N2F0ZshPkGG7Ov74P139m6Fm73McTFfqPjddKBJ2A1WYzq6S4Z9jiX/pzitILZV6Kdnh6j3gyljtWL+voGVFRWKn9n9clUwviEiXcy664Z+0IRguHMQ0++owUIokHQmnI41lDTVTNxU2lZmZJdUi/IRMtgVJslGgQt4Ob4g/kBCI0EKEhmVO26CaRu5/sE2OrNm53COFRzJW/a5Pta276/+SMgoVlRSzNnq1NNkhXgbpieXA/aunj44A/b57ipGSJAoDnwjjvuwH333Yd7770Xv/zlL/HEE0/gueeeU8Kqe1SD0FuD66jX68WevRsQlTIMg3M680V3r10nXnp9Kc5fdBnSDGp5fv3sK7j/9mu61+xp/naoAIHDOeapw8z6P2F5wq3I9sSjzc4rgqHknediVNO3RisCmmiW9mn9aTIU9WGoJKRgPnHiODIz+yjgRJzq5DpiX7ZK/Um9kxn2zBWvZHqiRieAcnvcXdS5/pwRQx27lDfKFFe1rEGxuww3x3cCBG2bBFpa3wiaEnwBPtEmyElP275RwRLqWH2NUU2jXaEAMKOnzlDb7c3yvNGFd1ZEwerXrcwfQNCaxkI1OfDkTGDFRnm9tT8wp907Qgf9XhZzmjjuSjmaGVTnXQrwTodCX/RUzQS9SWnfdZO2Sji026UAGq4nhirSjMY+M0SaDox82L04+um0mzDo50K6sw76HfTNzlYAC0NH+Xwd65H9lTBYticaBGq0Fi9erACE3/72t7jrrrvwu9/9Dq+//rqi5d1AP76odMVXgrwopv1ukbA0CF//tEVa7C0KhAIQRMCRmRQ1V+Jb9rewy1qFuZaB+EHsbIyN7nQ7lZMrT6IECtwkqvpa3UC0jdFzX5Culrl1d6xMgMKwQbH/GtmYWgHH9sWPIFBf1DBFqneZ1U4N7/T3CECQvvDClAEDBnQAJ3m3u6fsYBoDff82ODfD7m3CvJh2E52fAZDpKIwjptOJVoSFCAhfDp6hnsy764vARDcUQKF49ne3ze6uV+37dR4Hvm1/C4PMGbgzZjr6mE+N0NICBAFJerAUKkBgH7ie9+/fj6FDhyg3Q+ofbWiz+D9o83RohaCY2XzRhgCTP/72vF77JPWGS2dfQNKfJkKuT6dDa3FxicK3mC2z45pvmqPj4tFsb1aAA/MFqEJVjWpobGpUfBcUHtfYoGRf7JPZR/FFoImLfELGR6dmOj3qfUcINOTulWDOlb5oQoAjJh7y34ICNU368uXLsWTJEjzwwAN48sknMW3aNFx55ZXKd3ce+zvmWVIxM3aGcnFiXKx6MUsEIIS76v5D3gsFIHDIFBSHjxxRHF9i4+PQbGqFEy78ueVz5dTzQNzcLql1Rd0oC5Z2bm4abii7w4H0NP7dPdscmVFNbY3iOKQ4R5lMCnoX8GFkqoiw+aiCXlVV+tqcwtQEUAijk3BOXwJeK0jZBjc/6VhdU4O83NwOYBGOoDKqKfBHg9cdn8ELF66KDQwQ+H5van2MzFGgMjIvZK6kiVGAIO9pBW2wdroL4oKNlfdXFLlr8P3m93F77FRcEj2yyyt6gKDavFUNlTyhAgS+yzXJiBRJRa7VFOnTrJNukqtDr87XdlZCEPVjFo2ZZAzV018LHgLRWy1HO3/3eEhn/7xQTQzMrmjruGGSORao1WhqtisOh4zQ4m2+1JSePHESffuq/IZ8g33iuEnTtDT1unTyCx6UuD5JV9XZV40U0u5hMYFpwZa699TLvTj3BOn+wqhZlm0TJPBhm+KDwP9p3rznnnsU8wJzmshzuKwIy8yrYY86iAJYcWnSz/89AILd6UScLYDXvNeD6qYWpCeGnpc82Eb9b/jeCEDg1dk0FbS2tSpxvbykRi98qRZ94//Z+w7wyMpy/9+UzCQzqdtLtrKNhQWWXgWkS2+KgOL/ilflWi7Xil5FxS73KtcuKKAg2KjC0nuHlbKF7S1bkt30ZCbTz//5fV/ezJeTMzNnyi4t53nyJJk55ztffd/f2+Nv4KHkGhxXtRdme8fiEH8zqj3ZEtOmGp9/d3V3qXaoBmMmN3rOs3w2HXxox2NZ72wssk5kJIxKv19XYtQhWnT80wVyhAm7BR48dBLuyAPKwys5CNzuAfaNxEHbI7OaBDs4YJ9IXKiypBaFZpBCHtZu+1DKfffFHsYU32Qsrtq3lMf3yDP5gAmnmsSQ1Qkp2THigk6Wdj8JZ4ajM16KVscNQDMBxe4e/PZML74TfRhfrjlOnaMxntBQqLEu7JWNLiDTEZU+P2fMPsdFplbMxb1Jh0UKADQVCvMiQMh9aec+iSCQ80dnRe0sp698Zgv5nsyvmDneE6DVDIUuBhySZpq+IOLASd8s0jy2RTMG96qYIXLNMceZrXhJ2qcFjVwXgQgvO0DIdT99EKygDwj50ZAOIjDIc9/2GoQHXnoZpx56SO69mejBf934NP73k7o85ehV3Ay4AQhE1NyMDOcZ7rGbGSH9b0p3Ynm6DSvSrdiQ7sTZVQtxamC+MtjZVf2MdGAVMRI7OgTRoZBMlr/r6uqVHZARFNruF1EggEyAoUck7NOnTVOe9QQRVYEq1A1WUSuVaLAfZBKSSz1L2Nz5IYi2RIpY8XkhnEJo5aCr7GZWRuVrnzVzZl7zRHErWtzdT26+BftMORHjqt4eeUPMtZO56uvvV4mYhDjzc64T55CgtaOjUxXZMSVet+CwmNkSsOfGZFVMu073dme68Vj8STya3Iy4dxymecejzerDXt6xuDR4EJpS2gSggal2SjP7px0ziwMH0g+ChM6uLnXemQNAapaIWUGcUYthlvYzmQVsOh01+y8RGIXmTrQlZJhyXp1qqRRrbsv33lJpSq42Sc84rzQBEERQqyrCDsGCvM8ES1xn3m/mcsnVvuTKIFAYP37cMCGEbfJdnDPOH/9ubW1TdJj38rOmMdr3rySA8K+n74F31rFoW/8vzJo6Hg+9tBLeYAgnz6pFYvJirF39GvadPAaPbe7FpScfhRoA9zz8IDZ1JnDBCQfjjoceR3DK/uh97q9oPPQ0fPzEw9G5azv+/sRzqB8/G9N9O/HUyi342Ic/gtdWLUdtOoKlG3fiuKOPww//8gCOmWrhyKNOw461S7G1ux/LOmpw0T5BvLKlG0cfdSxefeVpTJ8+DycdsqjQXnvPf+8GIJBJ24mB3sCcvtx29y5rALdE78LBVj8WVp+OWt8E+DzaQ5TPMzvZsmXLMX/BfOXx29HZodfDYoHQBhBAqPKj8bgKnWLMMWOUd7TuUAVUWASFkn6hVKOql3n8A/T37kBAoQ2jU73q+TI1Jlniq1NUC/rf1d6uEhFRqti8eZOy/TLVrVSbLPS+cr63Mim0P/IDNB33n/AHdNXUt/KygwMSLGalC9WE0NTEtdbaGe4HmqqoOZg6daraA8WG9pnjzPrWZLVUTgCj0kwi11xvTnfit9G/4KLgoVgUWMw6o4O3WvhHfDl+Gnsavwyfg/39utS82JzZZ1Ft8/yUEz1EqZlzTGbE+WW7HL8kDJJU5VwPyWIo4+F9BMlcJ3ESts8d25QoH5obxUTgRovDe8QkaJ41XYStMue4kjTBaZ0F5Ip5RPYbNQucOwIBRoDZL13mmzR0ON1NIYN/xlciggTWZzpgpTKYlx6LAzAJdf2a3vIdAu6eWfo8qvaPoj9hobM9gX28c9A8oRmTGscpoaYsgAAkcO+TL2FgIIEaqwNnnnYhnl1yM6rrJqN69iFYveo17D91PKKT98Wiej3Eh1euxUkL52Lb1o2487HH8eQWLw737sBnvnYVaEB49LEnsN+xx2KcJ40lTz2B5195BRd88OPY0boJTz1yP1Khcdh38VF4YXM7fvXRE/HA6pPxQwAAIABJREFUq68j0tGJ845ZjP+66THsWPospi+cjQMPORZViV6cf/yRbyWte8e8u1SA4HaA9MrekliKrbG7kfT4UeOZgAbfBDR4pqBzVwpzpi5G0MERy6l9SdpCfwNu+Eh/RIXo5JMW3RB1O1Eph8jwADJ7JE0NOrmKPphyEUDIYeXnJAQ33HC9AghC0CldnHTSyTj++OMLAhu36+BIpJIRJB76AYKnf7ecZnbLswQH1FwxF4Nkimts1CYkElEmbiITLGetnDouBPQty+EAC5/qvwNXVB+GA/zNjnP7RmoHfhZ7Gp+pPhIHDt7D+dLOv72KoXOfcX4InhNWApvTO9BqpVDnqcFs31jUe/InOyMj2rZtK6ZNy5b1NjtDExnNOQQIlOTJmLoyMSStFJp9jQgHqtV3phMj/6ZTL49DNpIh22o0GlGRUGPGjFUaRdGK8A7+LeCb+QfYDs8Xw/hYRXGoyJDPN3RmREoWMMO1LQc0VWqj2xOiyfg4n8L4CfqcfKC09kr3xMwumvJkcFbPjfhY8GAcUzUbyUwKj8RW4w+ppfgGDsah/vkIenX7pMlPLXsJN8x9CoelUqjK9OHedANqPJNwc+BCdd7KyoPAzv32pt/hiNM+grr+9fjDk8vRla7Dzy9ZjKv/9CD6YhY+d/qRiE1agL0HnXB/9Jtfwxcci7lzG7GmpRubdqSx0LMTl1/5eQUQYl3b8ZXf34kF05rxzBtvYuGEAM45/zK07tyC/u0bsDVqYf+DT8DdL7+Bn3zoWDy6bAXWvbEUMY8Hu5ITcdrULizvCWL/Qw5Be8t2nHHIHHzvry/i65eeWql1fVe2s7sBgn3SMjzU6Z1o6VuFztQypPyvoydwPs6oeT/CHvdVJshk165bizl7zSno5OhGKqnE4oqJgcRMIijsAMV0JCMBu/banyjCN2KeMhlV/+CCCy7M2zXRUgiRKWYcyd4WxJ66EXVnfDPvY5VmwoX6qMpgb9miKkcKo968ZbOWYKuqVFGefNUYpX2Ze5lzN6YBWYu3CiAsT7fiwcRqXFnzPnjzaOfaMxF8IXovLg4ciJMDc5VjMMe5bds2xVjIYMls/ZNrcV38j5jrG4sJ/n2xItONp5IbcZR/Bi4OLkY1qgadii00eGsQgBd+eLFrVztCdWFEAilsT29GBmlM8k3HJF+T+l6AFHwePJRYowDLWG8IG9NdKvLi/MAinF61AA2eALweH7xDWpDcq89cDCtWvom9F8xXIJtRANwL1C5K+CGzd/LdjACYMGG8cvSlVoNaOJpFuG7ULDIdMh0E+yMRpVJgFUba+imdU52fSwDZ3aGV2omRSZN0Hg6THrDvFCz0mdY9NGvSFDqHG9Md+FX8efwodPrQ3ulLx3Bdx/eRsUL4sO8SjPfXqiqT34w8iIU1k3FBem8V3kqHTAIz+oz097PCpXZgLMnEQAT3l0efwyWnHldm7atCpGL0+909A24AAh0HK2nT5QFp2boNUyZPAnzA/8Wexb2JVfhj3UWY5s0WHjHHrsOmYoPqZG2mWLt2rVLHFzIfmADBtOnlm9tCh9HtujhpMIQovPzyS3jooYcGncl8uOyyy8Dwx6eeeko1z3F9/ev/ndNpyyQu0p9i1mn7jpXoXv0CFh73b26H4+q+cgEZ1ceUhKlilbXVmhldMVMyBkpncq0Vn3EDCkxAIX0vtKdcTUQJN/3PwFM4MTAH+/u0+SDfFbUS+Hr0QczxjsGnao6ET2UCpFRNnyEv1of7VcjkLXUXYZ5vwpB0GmfG2sSbWJJchU5rAFRPt2f6Mc3bgLb0Nhzk9ePlhBf+QBgLvWNwcdUMNHmDuDmxHhsyUVwdOgnzvOPRbQ3gU/3/wHRfI74XOg01nipQAIhYCfwt8QZujz2LOYiAxqtG30RcUnMupvuyzNkEtxynKkbnATZu2qRi85UUXV2jUkD39/UjEo2ivq52KBcBNQc0QbFscltbm64j4PWqZ3S+Dp/aR3X19cokQfMk26TZpNxLTIjFtsM9LFqM3bHHju35Nb4fOg1HVensidpRMoQBJBVIC8Kn8jdQ4xMeAodQIZ10PqcWg+bb4GA4c0kAoa+nE2l/CI3h3IWFip240fvfmhlwAxBUMZ6JEyumntOJjHaoXOWMPOBBWZtux9eiS/Cz8NmY6h20Sw1OCe/ftHkTxo/T6T83bdqkcgjwsNlTOb81s+j+rSJ5kZHffvttymOckgNDj8Tv4Omnn8Zjjz2mmOEll1yqcjoUYnRuTCn2Xm548wlUJdOYtt8J7gdQ4M5S+mFvknNEgk8VuUQjlNKuAAQx6RQapNiFiwmPLdRmMd+nlXnh7/hWzcmY6tPJdQpdCaRxfexFPJvciGvDZ2Kytx4DyRj+llqGnyeew59rL8Y8nz43BS8PEM1EMZAZwOstm7Bo6jyM8w+vVLgt04Nb4q/i9viraPTU4Is1xyonZL8RZijSr9rr3gzimRjeTLfjhvhSJJDBBE8YA1YKUSQxYCUw0VuLi6sWY3HVVKUpoJTP3zoUkvp0D1hMiTSD9UGoXeDZkB8xZXD9VJ4V2ukHozoIGlTNhOpqZbuXrKAF52IP3FApIcTs6h3xZSoS7JyAjkqiH8nEiQSH+S/JpMi5f9PahQPDOndCSQCh0MtGv3/nzIAbgKBK5Ua0h2u59dJlZgQkNDc3D0mJN8RewvZMD74Z0rUwePHQE6Dw4IszIgmDjmpIKHXh7kDie2IFb775pqHCTV/+8peH1OnLli3DHXfcodSPZ511Fvbbb/+CAKGU/j725C+wYO+TMWXCvFIez/mMWy2NUwN8lr4HvExHu2K0EkJ4BSCwLbd7RLQyxWhiKjV5MSuF43p/jfvrP65CGou5Hk2uxQOJ1Wiz+rE6tQsnBubi89XHYEwmqHw2SPg5NjfpgxVj6ehQYcY8X8WaW3g+GW/POWQhMrnSyGBLuhu9VgxBj1+Fbgbhxy6rH7fG/6VME58NHo2AJ3f43lBbgzSA68r+iZ+Bk3MvBQlJPFTMnOa6t9KM3QS/1KI4hVjb3ylg1r42fVZclXA/P7CvMh21tzOtezbfQa4xMRqMpjsCqoexDmeFdJr+UYBQiR3zDm7DDUDYvIne9X40N2cdAkuR6Mxp4qFlwqX58+YNEe+YlcR5fTfjO/6TcHCIFcjoIZ1UNjLJvWCfarMf5TAmpyWsNCGwv+Pxxx/Ds88+qz5mKeUjjjhCaUX+/Oc/K/sxx/PVr141RKArybQ6dq7BQ3++Bodc9h3MaapkAXEN6ophygIEhYlL6WFqh+TKt9/yva9YHw25P5fGphigUixZ2Jnpx/l9f8Qj9f+uGGilLslk6hYk8b1k8lTPi92+Un3J1U7USuKG2AtYlm5VqnCCiLk+hnc2Yoq3Hof5p6PBW61s60wk9WJyC54b2ADLC8y2mnAK5qKhmnkw3PsxuR1TJZ2Ynd5p7m3OOQHd9OnT8iZ/olaEoM9pvL+KPYd/rz5c+YqYAOHVV1/F5ZdfjrPPPltpLvn87373O9UlsxbDPdZqXFR74ChAcLtB3s33uQEIVPf29/Vh9uxZjilYS2GuPBT04JfiPyS8/Hk2tgG/7nsW/zvuXEwNNKG1rQ1jmprUZnZz2Q8zbaL5nL3ytekGILi5J9c7SAx+8pMf5xwbi0t9+tOfHox6yIaCuZmHfPekrQyWPvwbrAp58PKMevx82iXlNlnW85oZ9ahQVmqJSCDphGh6nJcCSCXqxQQgZi4Fk2HKvSbYML8X4CDmCvt35gSI5oLe/bkKW8n9GWSQsNLosKL4XORunFI1D5+oPrwo365S7eF590g6jW3bt6F5qi6RrfJ2uCibXNZGGKxv0GMNIJlOYX2mE0vTW7EqsxNTvQ14OrERY71hpcQkaJjgqUWzVac0JhvQiR+ET8ckX/nhutR0dGUG4GNGTk816GI5BFRhgd/vykRBR9FOK4puK4rXUzvQbkWx2DcZh/qnY6F/4rCMsm7nhWeBkRm5nHC1g+aAEhpyVcj8TOQufLPmRKWRMQEC1/DMM8/EkiVLcN999ykz3r/9m/Y/EoBAZ0WVCnsw1XZeDcLWpIVei2Ejboc3et87bQbcAISdO9vQ092tsqsxaVG+qxgJi4eBzIB2sp7eHsydM1fZCv+J1bhu4Bn8teoixHb1Dtngi5lbEk0e5K/3L8FRiXqc3nRU0QdWmH85IKBQn19++WUsWXL/CCdQzuPXvvb1QTtsaQlvNGPUyZpM7cOSXc8Ba5bh/Ud9HF+K/BNX1bxf2a7fiosaky0tLZg8aaLynqbpiCrRQrUtzL7mAw925mkCgVy5Dti2k7Sdz/wgAIJ7miGHfJ4e6Uw0lOvqTHfgC5Hb0YoAUrBwoH8qfhj6QNH7tNx1ozmA8y4pltke16WlpUWFEVMDIXkH6Dhq1uMo9935nifAkgRKOv4/MOiTMPKp11PbcfXAQyrM7/iqOSqMkyp2NxdpIB03qcF5OrUBDyRWoRMxlciM2oozAwvR7G3AS6kWrEy3KSDAEMtJ3nrM8DZioW8iDvZPQ7O3Hv9ILMOt8VfxhepjcUFwkes+uOrnYDZFzkk+genLkX/iP6qPwgxf0zCAwP1LDcL111+PJ598UgGED39YFyOkfwfTS9NEo4Cgm0yKaQt4Ne5B2Oduot0McvSet9cMRDMW9g9Y8OdZYiZKIhMnYciXlEhGVgxI0ExMp7s1r0dja/ClgfvxbMMVqPGWrjZkXPZ3fv8fGH/uhfjM2BNK1iZUYtWEwZjqa479Rz/6oZLQzPk75pj3qTwIlbqGHPZg4dyeH+O3dZ9UIWtLU9vwm/hzuD48MpyyVGDEd5G405Yq2drEOVPy92uNUVo5nLHM8OxZs9Q+yBWnXooGIZfpoVBbTs8VeobrJGOUPPjiNMf1jlpxWFYaPo9PqX7Xp1fj79El+ET4Uoz3MYulW3ZWqR2Rvx2OpbunB5H+/mF7k08xN4UwKIKhQlqSPdNj4J7ESvwxvhTUQNA88cXqYzHLNybnzKasDFand+LG+Ct4Od2CfXwTVXgmAYasBjU8zyU3oT0TVZEBDOXkd8p30nImmswz8N/RB3CkfxZODyzYU8Mfeg/f/eHgYjUeU4Nw2223qYqOBN+kNwR/jJrixfBYAjDWh+DZrQlpH5i8GgTeELdUJV+XWGyPz8XoC8uYASJnyqbBAvhPAALBgXh4O6U2ddMVt6FnNA38V+ReHO6fhouCi900re4xHdPkIXp6k3j8eOBx7OubjLn+cUqVe1CORDSuX1bkjWQYTDBDfw6TEVI6++53rxmsO2GpCA1GL+SzGbthWDIfpqScyXShI/pbjKv9iiJ0yUwanx24C2dW7Y3TAwuHjahUgMCEN1RZUiKlU5xyOmTc92CVTEVX4jGljSKh0kVx+tS9TDtbyFbuduzm+AuBVhMUmHtUQB3bKuQDIgBB+icOZN+OPox7EstwRaAZy1OtGOOpwvsDe2Nx4BCEPLpqnnmVOu9O27GYuTKfp8S+efNmpQ3RGQqzRIKCAku4EwgxykBL9qQklSyaVOThAnBC729VBAj9FXZkenFHYjkeS65V0v2Hgwcof4aIFcf9iVW4M7kca9Lt+FDgAHwkeKBSxxeTh6VQ77qsKC7r+wt+WXtuztBtpzbc0sd872c02GXBgzHfN34YQOBe2LmTpdAnqnWltksEPjEx8PzxTLoGCIUmYvT7d/8M8PD39fYqNSSJBWslMDWqzmQ3vDBRIeJezGwxpIoSAVXgbi+ToGuirsOkePVYMRUlQYeoHZk+nBFYoFTwlexzoX7aE/HwMFLV98Ybr+PFF19UfWHkwvTpM1QIp12aNW3o8l0uxiVqb/P7RPwhxawDgWykCOf5vN4/4q91lyq1ZL5ruI1+ZFpbnYFvm/J+b21rxcwZMxUxIlMRT3qpNiclwGlzpRmEiVokwVSheSyekFrKx4FMzUkLZjonClM1zRPCtO3rQTW0CrPz6FoIcrF/BAiPJ9fjjsQyFZteVyB7YaEx5/s+F6goFSCw/zQtErhJFkMmMiLjmDF9ujKdiD2cHvBc30AwoD4bO2bMkDkgV+Ihp71ZzvhZ/fK62NMqSZDp4NlvJZSW4NnkJhUtQRDA7JNzvGPVXjf9C8p5v9OzTyU34KvR+/FE/acQcOF0KhkWyzXhfCV6Hz4ZPFxlzHQbxbB167bBMum1Sqs3ChAqvRvexe3ZazGQya1ZswYLFizYrcyViWC+EX0I/xPe/YW4SLB0Zb/sQpqmgHKkOjpjkil1d3cpJmhe/I6SGpnqK6+8opKa7L//AQqI7bPPPmp+QyFWM9GZ19hP+m0QPLiRbk0GkbaSeKX7Usyt+xHG+HUiFWFqj6XW4QcDj+EvtZdqRzCHy2SiAlSkkI/czjAtAgESOWpGCAbocU21tFvmv7uOEvvPPtHz227DLcSw6Nj5x/i/sDTdAp/lwRRvA9qtCF5LbVfrcox/JiZ76nFBYBHCyqcgg+fSW3BL4l/4VugkzPDmB167a8zltMs54foS4EkZbUqYVFFL4SCdq8A7tB9ZhbW7q1v9LyWndzcAp0qfUvPFgcVY5B9Zv6CcOXDzbE5wBgvMS/B4ar3SUiz0TVIAJZ/TdKmAzuznf0buwVdqjlN+RfQv0eHp+a/t23eoMEdmqhzVIBSardHvh82AHSBwA7V3tGPihIm7FSDQNPChvlvwx9qLhklfbph1sQeNbabTukqgBgacAmaQLN//ZuPGjbrgTUpnUaunp353tyK0rCdBkMAMZqyopoq0TJkMK2MpACb2QkrZDPWkul6r5avVM9HogGJ2ZMD5LgsZvBl/Gm/G7sOpoW8hqMpw6/Exrz1zSvwt9joiqTg+M+l45bCUCyTI3PB7xSh6exAMBBUYoOlg0qTJSnpmmltqnjj2SmSvq8SxZP9ICNk/E2CJCcJJG0Nb9fcHHsFkXwMuCRyIFNLYnO5Cg6cazZ4GZDzAM6mNuCexAr1WHFXwgXuXKverQydjeo7soJUYT6XbcDo3/EzlNfCxlkICfp9frSnt1aZGhYID9wYlUAIx/j0Qi6s0yLyX5ypfTgVTS2NqcQqNkY6ER/T8Ao/VfxJjvMXljyjUtpvvC0WREETelViutJfUJJxSNR8nVs1VmSd3x/XJ/r/jp+GzEPIEitYg1NWFkUikEK7VQkJBH4TdMYDRNt9ZM2ACBB5cSoRkDDz0w0sbZ50Ni2XQ9hlR3uYWcFHfLfhQcH+cFyiuMmchm3OuFTBV+AoiVKA63Pbt25Tdj5oCzhslK9rfpegMq1T6VW13D/r6ehWB5T0EEzU11YrxsrhNV1cnqgIBBS66+3owbsxY1IbCSCW1w5E55+IoqJigL4N11jNYnXgS5zRcg81rNymQQTMAgQa91BlWFfdlcGXnnfhh9amY2Jgtr8x5sKvWZf7ICMSWmSsqwI0ESeU8NUa7Mv3KBDTOG1Y/pYaoOq+vpcCQGTtO04aYmZz6Se/2H0cfgMcTxFdr3g+/LYmP7DPRPJkq9XyMQzQW9n4W8nPIRzkKMapyqI7pX8F2ClXP5D7nvuBz3NM070jxqFz7gfdyX9IMtHPXLowbNxaNDY0FhRDmRPhO30O4s/4yBPzumG4lzrU5n27nnmDm97GX8HJ6K66qOV45U1bSzNGTGcD3Bh7Dj8I6GsatiYE+CNx7pOnaxECtpQuAkLEsJFXlrNHrXTcDHqjiN4UIuB0gvLFsGfZZuDBv6uVyAYLMNUMVL+27TWWFO6xqmitfb5EMyyG2lQAHWZu0mC88yn+DzJ5zzr9JOLW03Y+62jqVQ5+FaKgdoBQvtmxF0GDhzdROfCH6T8VEqa48zD8NnwkeiUZVVD3rT0FNQ29/H1INUbxi/R7pdBPO8H8GrIhIdTEZGUHI5i1blIcGQ1gJSK7pfQgzrAZcWn+oStmaS/VOJ9KdsR6s2rAWi+csRK2/Gr4cWgf2K5/PAHP3/zr2PO5LvomJnjqVJKfF6sZszxh8J3wKpnkaVca9gFdHAFTa359j4T5T8zfor0Lv9bXpDny2/y4s8I/HL8Pnqu8KmSLKoRH2tp1MOm8VQHB6r93fR+gIf8t60ymXbu7t7bqUOzMrcp9JbgWCAYJUnoGWli2oqQkNCR4URCQDIp8hsJNoH8me2BHvw5mxm/E/iZOwuG6GqyirctaoUs/2W3FcGblHAc4v1xynHBm5t3Nd2ruFFABqr9K5OIYUkvyPPBoZlYFyWaoVGzOd+LfqQ9RJ6WhvV2ny5VLa3/Z2ZQKSdeB369atx6OBzTi7aTHqvEH4qzTQyqtB4Ab9+e9uxJaWbZWal9F23kYzwIPc2NCAr155RV7Vnx0g0JbOGgrFpmAtdeiULGljTFgZfKL6UBW+4+T0UylQ4qafbt5lSt0iHS1btlz5GUydOlVJVnV19UqrwHubmhoV45YwOa5PdW0N/B7mkM/gutgzeCC5Gv9Xezamo1FFWW3IdOI70YdxXtW++GBwf+UsR8nt8Y3P46bxmzHVO4DP15yG2lgd2ne264qIgYDSaPA338W2QyGtUhxIJ3BVxz3YVR3H5TWH43B/M6qhK8wJ4KJD2Lf6H0RNv4V96ppxu7UMTBNMqeV4/17wGXn588+lpZz4fhF7VsWNM6pEHMyYVXN9ugM3x5fi2fRGTPLUI4oExiKEo6tmYoF3Ehb5Jzr6S5CMdmdi2Gp1w2/5VDGh8KBJxexPlzUAZp27O75CaSvYb+41OrByvAf6pyitwb7+Sa5AiV3LUrwj5cjZKgWQuJVm3ezzfPeYWhB5p+m3I8BQnBzp5NyydSuCgYDSik2aPFnVTCDj27mTKYEnqDLeWjsBZT7jRQ2XmCj4TgJcAuBwUx2+FH4C8wMT8e3gSejt6XlLa7MUq5VQlW0zUWW+eiPdqhIsHeffC/v4Jqiy3AkksSq9CyvSraq41jarF02eEKo9fkz01GKGbwymeuoUeN6S6caWTBfWZTqUfwzPQEcmguN7p+CqGdqH695778UXv/hFZcakcMBqqY8++qj6bk3rFvwk/TS+GzwFYxubVMXHggDhzdVr8fs/3V7uPhp9/m0+A//9pc+jsSF3ohxKknLweUAJEGpr6/ao0xmdvjakO/G3+Ot4JLlWVbz7YvVxQwzFjcOewuAOORfyHWyn+7VjHsu2omAMuDwvphlqCOj0RTs4Va4knlnGwh4yvXQKa+JtuCbzBJq8NYqIUFo40DdVSRu0XZp9ZlW9b0QfRG8mhiP9k1EfvxfdqMOC7tNxzPTF8Ht96h1MW93SslWBAxJdhqrJ+4X5s91IPIZnOldhabgNm63ViFkDOMY3CV2ZPjybiqAnGcb3Aqfg0PrZamf3e5NYltqBn8eeVY579KA+P7gvujIx9dmmTBf28o7FOYF9sI9/olKp0q7/tej9eDO9EzfVfQhjbeF+TvOuktlY/SqhzRPJ9bg9/ppKv3tF8MjBeHMP7k+uwi8HnkPI48d5wUXq3meSm5FECs3eRuXLsjnTqSSx1kw/PhE8VMW9N/salMTFrIbUYFA7U8mwt1JJgKlFMNvIpfUjOCTglERTxWohSumnG7AsZ0/2OvvJPUcwkK+PvI+mOUZI1IZr1b3Mu9DnS+LzA/eoQlT/HToRXksXJqKfjpg/3ParlDFX+hmeYe7H9el2tGS6kbBSKmfGFG8dZvrGqvGxdgULW9V6CAnyJ0+jlqEnE8OaXVtw1JRs+PK1116L1atX49RTT1VzxRTvvJ7dtgK3eN/At7wnaIfTQVtZXg3CGyvexB9v+3ul52K0vbfZDPz3lz6nNAm5LqqpogMDKuUxY9bXrF2HhXvvnVODUCyStr/XZKrynUkQCRb+Gn9dxTpfWfM+RdiF4JiSrtmu2IqL9U2gCeAVa6tS2zH5CC9dltYzTEU3nHhnw/9EiqRz15aWLZg9SzNVFRqnYscV6RyMUND/6RwQ96hwrI8GD0JXOoqMxxohLZsSKyWGlak2rEhux/RUCvv590VPd48CA/IeAg/mYGeJbJoWJk6YMALgiCTIMTL98dix49CDLvQkehBpj2DmuNmorqoeVjzKXBvGf/859jK2JV9Dr6cOF1Yfizm+cWhJ9+Du5HIsTW7D4VXT8UJyM44PzMGV1e9TElEpF5k8Q9gIjui7QK3SQb5mXFZ9EBao8sb6YhjnxX1/xi/C58KvkhYlFWPZnWGHpYyn0DOy3mrHGEDXnH8pZMZ7nKI1CpkTC/Uh3/dODNmuRePzsh/tGhentnkPzw5/S/gfJeMrInfik9WH4/1Vc4YeY7hwLB5XtIwSMhP+MOqiWKBQDv3K+qJwd5bv4Ox2Pex91pknq0b4IFxxxRX417/+hY985CPK3HPhhTpBWsu2bfiK52GcXb0vTrRmo7ZOp6weBQhuV+BdfF8hgCDbnMSHKml6rU+fxmJKI69yDpe0JgdatAKmbXPoHhXa9AD29o1XDoyU9vLZpstR99LO9/n+e5QKvVimIgSOqUxpVqDmgJ+xP6xXbyf26rBmuvG5/ruV0xUvATW5CB0/J0MnQWSSItp9+QyJI7UEwvQJEKiapXNib18vGhzMRKYnOePb+TzbZ4KVCRNYH8GdE5jT3mCf0h5LaQ0oCY2HToq0O5gW30VNDZkk/Tk+0f93fKPmJGVu2JOXXn8Sa213L++yhhwqzTNiziE/1xEE2g+AdmZK1JyH3THP5nicGL4JapzpRfFMlAnUmN748upDhzVJpkgaRd8F0ikySLLpcCikPhfHX/aJ/5dT2EnvLWYKHX4e2Ae2z9/U4lBjmCsXhNu9wHUkSMpVe8Fsh7kqpKQ1HcjtToo8+1ItlfUYPvCBD6jH6aR4n28tHvBvwA3ecxCu1Sn135UAYez4iRjXGEZf9y5s39Xndh2GCGm+B3jIan0+9KUzquJWwJPExm3tmD2jGfGudmzp6HX9vrfLjYUAgj3MsZx+k1Eyn3sxVy5Jg45kvxpxDqM7AAAgAElEQVR4Hi+kNivperw3rFTZlCL38o919A4uFSj8bOBplZnstCJTp7LvNMlUV9cogpFO02veUoTDJNgmsLo+9iI6rIiyf7sBTQQG1E7MmjlLMQRp1z5vBAibNm1SDok0MUipbJPBCJigXwLDLqlupN14WvNUx7oCbjUy9nnn/7RJSx9J/Dg/diaqIwyK2S36Xh1yGVdEle1e3P9nfLvmJMz1jS++sTKe4Djj8YTSvO0OBi3zyi7KXHKdyVDkfRKBQAlcUl1zfgplQ3Uj4ZcyNeW022fF8Kn+f+D6ug8iBGewynUfGIgOMWZJBc2aH1MmTx5K/02AUIofFZ2Lu7t7FADNOl16VNVZzu9AbAC9Pb3Kp0IVPvL70dfXr5j1zMEzWsy8MSV5JBJVIJMJqvLtI649wQ9/EyCQ9pjlngn0+cO9MGdOVvtCgPC0bws2B/rxCRz07gYIp5x6Gl58YAl6WHwi6EMs41OVufxVXniIMKMDCNOG7rXQ09uPUDgMv68Bx79vAe5b8hiSaSBYE0Io4EN3T59St2RSCUQG4sq7c1GoBnuddgZeeuRubGmP4Khjj8ezTz5ezJq/re7dkwBBS6JZ9W9+MCbFhkbWanB6LoEUXk624KbEUlU45arqE4ZqywtRymWCKLQgW9Jd+N/Y07g2dAb8OZzw2LZJ/ITZ0hmRhIOH20mKNMEB67lf1n+7imN2Sq5jjkOYQn9/32CmwuGFgUgo7ASQTJlOSiKBiglC/hfiQymMkihzGUydMmWYKaJYJziZl+EpnzNDBYAEoFDCs1+m1iQfY3HSXHEMW9GB56vacGviNfy97qNo8uhoD6f3cLxkJqUwjUL7Z09+L5o3ggCar2gm46XzFHiUp3+xavdc/be3I9K5JFCStZf7ytWiPJRYg7A3iKP8M/KOwWl8BE3M50ABhXNRauIuaifoz8Msk7Qi0IFSRQY0NSlnS2oKGYpMDSE/o3mWuSM6OjswrZllnItHvBQCSsmwWEyYI4EMtY7cN+SJvN6VGoRTzrgAJx4yDw/99TZMOupkTKxN4sEnt8PXvwIN0/dG57qNmByO46X+RlR3rschh+yLJU+uwcnv3wdLHn4GluXF+w7eC63pZjQGIgilduHFlTtU+JkAhPoFk/Hki6vVJI6b3IzPXnIGrvnpb5Fihat32FVJgJDPxEDCRTthsRqEYqeTK/D72IsKHHw0ePCQSl/s/m4Pm+m3wD7ckHgRSVi4IniE6tIwv4jBjHP8nAyGBIiHjQSRar+e3l4lcTRPnao8teUy52tJYpWK1vj36sPw6eojHYct6kZ5fyTCzIDBQXXm8ORG7AMJpb0AUtvOnYgxvKymGmOamBa3aihpkBBwmpFiAzEF5goRNKc1NzULToydz7B6o6Se5nsp0YlUm+udpjNqIfPEPweewv/FnsIXwmdir3ZGMgSGTC65QAJBBdetWJBQCdNasfs81/2cI5knSp80OckakGkxzLYQs7FrhnJq8QYTi0lfmF67vq4eW7dtxfx584ecaWmu4rkvtJcKzcEXIvfiouABOMg7RQEft2YC9p9FwZgGutziUlzrV5YuRTqVxuQpU1RK6gXzF2DlmysxdsxYJbEz0oImiE2bN2OvvfYiTlMAYcL48SpyaU9dNCcwn0S+eefcrF+/YUjjQSBVXeOiWNM71UlRNAjdAA45+UIcUrMBj7eMR3zr82icuy+aUh1oWbUaG6Ih7F3nRXhaE154vRunnLgvHnzkOfirgrj0lAOwtKMambZV6ErW4LB9Z+DOJU8OAYQDTj4MN/394SF7D3wBfOnjp+JHv7lrT619xd5TWYCgY8Xtl0idPDhE3G4v0yZuSq75NjyJ2850P65LPINrgicPFQbiO3WBGa9iiqazFNsTtTQ/FyLCtihZqvurq3Bj7wt4w9OGH+KkYR7Y5pilXar4+Dfb1vZ/1nmfYGM+FrYnV2JV9A94yrsvPhY6BzN9TWpf6XK3LBscHMp7T4JDkMF22V+pcSDe4HbgIqmPzf7pv7UTlcyjOHlKVEPbzjZF7EqVsmR9RYK0M3NRhZqx7cpm7BBlYt8r5j25TEb04r6y92e4pvbjaPA2KCBCcMqMjrmYCtvlWtuLE7ndq2+n+zgvNGPRvMF9lAWkrMMxMtU0v3cz94XGyBLRXd1dKsHRmDFNqpQ3ARdNa7NmziwbIFwdeQjnBxdhXqppaP+72aNSvlryfRQaR6nfC716uwBGrqnkjvhc5G58PHgo9jfSUfNccG10hlGdIZPPuCr3/E4FCJOnTEXAC8TiMTTVVyOCMBrH7IXa5EZ09Q1g7ZZW7DN3BhKWD+vWrEZjXTXauwcwd95c7GhZg0jci/0W7IV4xqtQXwM3eGIAG7ftVIS5gaE5jeMwpalGpc/tj/sQDgKZSBc2tPWUurfesucqCRDyDYKbUZhaKYMVAlaIkPH77ake/CbxAr7uO07Z7ig1CUDgbyYhIsIXwiiMkQCCzFYyRIpjJgEDmVxfpB+/Sr+I0z3zMQPOkR9sl9omqvOFUPf29anCRbSHZy8L6+MPoTX+LBaGP4lG35RhjpacKwkFYz/sYVwCBuw+ByZI4Fyo8q01LK4j0RIjAZzup08BEj5Dm6Q4OJarFjbXWgCDXgPttCfSrvl/Pu2Aff2dQAIjQT7WdyuuDp2KvXzj1Ji4toWkRyezTCl7tdAzbvdyoXZMIGYHZaIF0Ymx9NrLfhLw6rQ2hcxg+frEmiKsx5BKJtEfiarfArjmz59ftqMmnU0/XX0E9vdMUueLYCefNsQUMAhWqMVgcrj34nVz/BXUDABHRSajoaEe0YGYEgJ46aRtKUUrCRhcJUp6pwIEp8Wfv/hk9G5+Djs6+9+LeyPvmCsJEHIh50JM3e2iuHVaW57YgUfSa/GfNe8b0bRZUdFkLoK2c0kkZLQ8RPek31RxyB/wzR+MMNA2RTJgVXNB2X4145M0xpItTgAJv+uztmLlwJ9xaN2X4Ef+UD/2jQChtjY8lEzGSe0rzNZksFJQicRUGKCZf0HmQLQdbJd+CpT87FK9XkcFQYbAVS5tjtNamU515nOi0jbHREdJU8uRS83tBDL42SuprXgptQVX5DDXuN1zu+O+fGMp9n3SltmmObdUGWvir2tQCFhyKq1taprMdS6mT5LkSNMCJtjyKSfNsr35YeHDfbfix6HTC1YdtfeX/VDCXn1D2VqxYubi7XQva0Lc1/U6zt01Y8jXhr4U9Emhg6WPUVUWlOYnFH4XRzG8nRblndCXSgEEExyY8cAiuZZrf8w3lyZj5H3rku34a/J1fD184ojHTCIoknMuVbX5MAktQUI7orgyswS/8Z6pKvfJRZUuiaEABH7O++l/MHvWrCHiTF+EDNJYjVvQHDwRk/zzXG0TKaXMBEuNjcy6mM1uSFszGbzOf68/d7Kji6Oazr1gJmnKmhvYLitGUsokEyk076bEaUrG8re57vxMwMBIgJAtze0kYecDmeaaKqDnsfBkar0CCV+tOV5bVGx+I64mfQ/clB1X+bHzufaxaG5yaWbMs2sCDrmfWgHu/5rqasdQV6qoq6oCQxoCrbpODRb90sC5HIDAcW2KtePqzKO4IXzhsJLObpeIBc+CwYBK51ysj0mhd/CcE4BXUttW6J3Ffk8H6Cs778A34kfDQ1+5wQgh0hLSFtIDOjUyxHHCBJ2eOa+T4q72DvzvL3+nijeMXu/OGWAI4ze/eqWKFc51uQ1zNNV5QmQqfWDs6mjpMw+ohHDxM+Yq/0LsPlwXPssx9a848JEAilRlMqysLTHrU0HGLva8Z6zNmO0di6nQHuFZkKAdFM2Lqm1K/izQxO/Y1+2+FxDNbMP+oY+62lhC4LV03z2UyVL6TCewUDiEnW07EYlGMH/ePOWxLU6GBC68N5GIKwK/o3WHcpgSpqkjLJhwKqNMc4GqAOhwxrAwOrmJicXs7HBpc7hGQfrL+532QC7tR779kg8gSL/kvT+NPw3WeKAGqd5D6VWvkd0csztBq6uFHbwpl2al2DZyzTc/L+Ud8gylb1bs5HzRl4ap1uXMMYpGM106mgZVjo2mxkZ0dHRiypTJylGPlV+5L6uDuuoneUpWo5FRsax0WmXqZScnZiZH+0LkHlwWPAQH+qcWMy1D91JapqPi1Cnah8c8syU1OPiQ+BhxTNSU2K9S/BHoO0RAVsgfJhc9zDWe7w48guOq9sLR/lnDwod5xkmbCKBU3o6AFnwKVnPc2d6B3910y1CoTDkTOfrs22sGglUBfPFznyyocisWIBQzStPx0O1z+RyBhjQJXi++Gr0PX6h+HyZ4dVYw89Jx4jrbnKjCc0k4ZKo8QPa+aqmIFeiygIBe4ub/Qpi7mf88HFYOXJnmKFZEf4iTG3+HWlvf3DBBAg72Sbyh2S8S6R2trapgEp2NKP2zb+PGjVfOeSo2Op3CQFT7WDB1Lf0hSMhJ2DKsx1ATUqCCQCM9GE/NnOyTJk5SJgemZpXLJEy5sljaPeFNJpWbMZcvRfM9q9I7VQbHQilp7eNx2oPlgly3DMJJa+L2TJj3udlDshbynJMWyGyTAIERAFRF08dm2/btai+NnzAeTY1NSn2/edNmNDc3o6OzE+PHjVV7T/wE+vr70dq6Q+05mtsYIVNXV4u2tp1qP4ZCNcruTQ3FxInZ5F6yT55LbsYN8RdxQ+2FeSt8ZjWXI2dOTCtkvsuWL1cVVBftt0gVSSv30nUjrKEU1+W0R9okQD6ff4UkhjLfJdFAud7P+iasffK/4TOH+TuJn4p2iq6GV1WXdQEQyhno6LPvjhlwAgjCLPVvbSsu57IT0WKBg/35tJXB56N34wchnf1QqZ1TdPrTFRJZS4HSjj0EkGMwVazUGvB/EkUia1Nq5r06G6KOUuCliJ/hNS7t8dAzemNLph0PR6/BRQ3fxhh/tspaMXPHPjAxEqUyUWtyPCtWrMSUKVNUjQeWhqZpQ8o6d3V2KRCgKrh5vPBX+ZXtMRqJKue9adOalWNiVaBKfcZ2SUgZIsVS0AQIDQ2NwyI/xMRh9+Mw58geKZLLxCDzVIpE75YBFzPHI/djNn12Me2Uem8hk0Ax7Tppa+R5eY+5TrKu5jvEgY3gVyRmmhCojeKe0mdLm7ioheJ5ocpabDv8jPfrLH/UZCWVtEpzGOkHnYj5W0cY6eJgZIAScfLR/tvwtZoThqXQLmYOzPHyfFJLRoBDezuTmJVzyfzyvIhWpJz2JMIoXxt859atW9V8MZkZLzk7uTIuqn56PLgm+rCKBNnHN0k9RxCnrQTaNEmHZs9gZdaCGoTyBjr69LthBkyAUGlinK89cZLSElFxBJr59r858KBKbCSXWw91IZpkfLraoVZP8+AREJhAQcwTop6XMrQmQdJ/W0jU+fHZyF34hudoNHT7VZQAfQdIHMVBsNB+MYkRNQOU2Hgx3rm1tRULFiwYNLXIfNklcknXq0jKsKxr/ISSCwm7OGqS6FH7MX7cuCEiVChqQjsWZkdiMiiTIdnt5W4l30JzVMr3xe6vUt5R6WeGz7Fz64XmNJ+KWtbKZD4a4DG3xvCcG05vzwdM5H6eLzJsnhsCVtlbZq4SmheYevyXtee4qqpZaJ7ZLxYsmjx5kjKVlAJKnd7BPnNudArm4U7HxQo8hcbAcFxq+3hJtkYKBmIylfBhCia8RJtHDc66TDt+NPAErg9foO6n9kDfQ4Cgw6p9g/0fBQiFVmL0e7g1MezOqSqWgMetNP4reg9+Hj5HV+lLJNQh4eYvRBB4nylFSX4EEkWRjhhfLloF3i8RAlnmqaUiebbLG8fVgSfwzdDJWOAdr9KdJpIJVfqWDJUEktqHQk6BJvDYtm2rUuMSHJCh0746rbl5KIWyk7TuJO2L+UBS9Erufv18Gtu36/TYJtGzOxiKM5s4QeZyhhOG5YZ57M79NNp27hkwQYUJEghiCRi5hyRm3s085nMAZmIqnRp5QIFd7huRxFWuDyuNa2NPqqJMh/md67/k60MuusFzyYRh9MMpJtkS6YiEQJvvlfdIDQgnzaSbuSrmHmoQTIdoDRYYoq0ztkqYtNIaDpkeWZskgBtiL6mS0e9PzRjymeLcC410FeZYTGdH7333zsDbASBoKWa4FiEfk6E6/cK+P6lqj8cEZqmEMSqFaCikJBanOHBZQR6SLEigTwGdqpJKrU97a3+kH5MnZetJkLGLL4I8x8PWsrUFzVOb0W/F8S3rMfy/4KE4LDhDvYZ9F9s9/1+/Yb3yHKafgpkPQLytnSRBAgOOhZIXbbhUFUaiA5g8SasOScw0cfAqU4OUwTXHyb9J1Myqd5Knn9+xTTorsjiXtGWfdwEi0q5bD/FC0m05J0ryVzilby6nXXm2WMBaiXfuqTbygTjuI/4II+Fv7ZSrTY3iKOxWIyZnUQAn9yzbk3wh9yXexLL0jmF1SSo1DxwHQ4dp+uMZLuRrogsxaSZsv1c0BDRJcg7cJG8qdxwK5LS1qfWQM8k2OXc80+bFzyQHCPvaXhXDlbF/4ibveUM+HQLOVHizWyfFcgcx+vw7fwbeLgDBPpOmutrpu6XpbfhL4jV8L3Qa/BmzvHL+NdE+CqmhxDIkfJRqVq1apQqxHHTggXju+RdUuuJx48cr8DB2TJNSxe81ezZWrVqtKh8StdMn4MVMC57xbMHXqt/vKK3wfevWrVUHmBoKFlEi4aTqb8aMGTlDskgEyMDpPEiCRU0AmbgTUyRAos3XvMz5oyTHcdCeKQyfv5WJobtbjUeSTUkbhQhqMTu/kgyXDEZi/0kY94Q057T/Cmmqipmft9O9OgpBF3sSEwX7x/GKdO1kushnziCTE03WkD8EgE/2/wPfDp2MyQ6OxvY5cdpDhfYVwf+GDRuVwySznObaK6KB1CZEApjhdU/4HpoeOQecGwHJbrQThfqYC5RKnzivpBc0O9DMwHkkQOHZNYED6cqQcAALn8/ch+96T8DE6qahe4dMFEEdjTFqYng7nby3aV+U5Pk26pscKCeCYz9sf4i9rMonf7nmONR4RmZQ00ScqnRK9dpJiodKDjulBd5DyWDdunUqbJCMmbnm47E4jjrqSCxfvgLNzVPR2dWFTDqDxqYmhEM12LWrXalNb0i/jAMwBUfWzFKzaCcaJCgrVq7A7FmzFYHlQac/waxZM5WXN4u/iERiHnhR9bJNfk4mr0vMjpRwSExEujPnSGyTIjVmIw90kR8SG/bXTKoj8+6sKciWJDaZB/voBCjcEEc395jbU+zXrOhHhzch+vn9XbI7nPfRHvtWXsWOOV9fK9kW11T74OizojUIOq0zpXATFI3cU7qX8rlI3TxPwzOM6vvSsHBl5B78JHR6SXkPilk/njeOhXUU3GrAzPbtPgZayGCZb+3crKt5FudHVaj/DG0mCBCaQgDAarnsS21tHVgkzn5RCJG5ft1qxfWeV3AdPoAqrwZ7Qv9qBsPeRwFCoVUY/T6nD4JIoHZ7c5bp6uqG+STNcg6N/VA6OQIx5S4rwH068g98Nng0Phs6ClUY7mCVZYrZxdbe2lmmxoJL2iTgU3nLRbVKxM6qbuFwSDFT+gRQ8qeEQamIY/9d+mUcielY6JmgAID4QZjMXginHFDpExk7CSg1FzRv0O9B6r0PSQOD9SI2bdqIvfdeOETgCnmm83n72E0iwb+pPaAKlh7opvOivFv6y/+FOYjzHPtp2rBzgYRcR6wSJohKO4e9U8lBJedBg4TEEKOXiBcx29n9Fsx9OlI1L1FDwwEa907CSuMTkb/jt+HzUe0ZmWlUzHmlMHSndRQhYJ999ikRJIwEAOKrpGlkZQECzQvss1zmGudabwJ9ggTlo5BK4tPpe0Dx7+f+M+G1tJaV6zcKEN6pJ/0t6He5JoZKEHr7sIsleNszvXg4uQZ/S7yhUu+e6stmL3QCMKb6XaRzYXDiiMe85bS9SoZFEkqqKhkTbYY7PmFtxFb04iPeAxR65/tygSYnIsL3E2zQnMD487lz5gylQOa7mSGOZgZR74r9N5ctWSRkJxW43aFMxsYwSl40M4i3tKyJng9d30KAjp1YmUzCDihNTYNdujSByFuw9d/WryyF4ZTyTD4AJ+tNQE0Q6aQJMNfXDlrF7u0U7x+3Urik/zbcUnsRqm3aPzF/5QrpK3XhyHAJ9EupOJuPJtlpYLH0yxwPNYz6LPrUfLNtas0IGOxCh30e6K8kNWLYB9KNH+EZ7LD68GPvyQj5dGG4UYBQ6g56Dz6XLw+C03QU40xY7HSKdsJN2lYnYNJhRXFz7BWsSLfiWN9snF21EPU+HQctDFMImvxPNZ54C/Mz07Qh5gfeI7ULhGjqYlAeXB9/EdsznbjKf0JZSVk0UEgqAEItRkdnl0p0xAqFdmdGk9HamX6+ORethwlgxJmSEQ2dnV3KT0HCO00gJfMlRMoJgOi5GZ43Q9owK1Ka7ZprU+x+eTfeXy6TL4c55ZpPM3uok0Rv1yTJ3iCzcqoJwfe0Zvrwn5F78Kfai1DlGa71M+3rbMuszmr2sdixco+vWbtO+RK5dTSkaY9+Pzr6QheGs7+3EkKShIPybBLI8LcZ9cRzLrSK3/Nv9kvAl5xLCY/kPBFgsI2bM68iYPlwaWCxdhIdNTG8G0nH7hlTsRqEUpyF3PS8GMJYiEm1WxFlergvuQon+ufgo8GDhmVo4/PiUc2DqH0SNGoXYkgAQGdG5eDnszC+vgmppPYoFgZ7f2Y1fpZ5ChdbA3jNNxvnVHlxUs3ZqPZknZwkk6Ob8QmhFZBid6rSYECx1CEiJf3hb35vEnA74XLKFSEAg/fS65uEZ9q0aUPOjKbHul3z4sTc7czCSUtgghonE1CxhN/N3LrZg3v6Hnu/KzWOSrdbDAOU9ede4/7NBSR/MvAEuqwYvh86dcS0i4Oe+QX9TegLUerFTI88z2SqrE9g75edpsj/Zugj/+Z5KOQYW+z+NeeXIdLU1jSNGYPq4EhnSbvwpNPKMzRV+2CJAy9Nl1JKvhsxfCPzKH4TPEdpK0cBQqm76D34HAECNyU92XV2tPKvYgldofsLfW/vsSDwSFUanxu4B+f698FZVXvDBz0+0QzwN212BAF0XNNSrmaym9Kd+EvmDezI9GN21TgELA+moQHHe2cjmPHhbqzCXZmV+Ib3eBxQPwMWLNza90v4vONxBk4HU10LITGzsOUimFr6zjrPmUBEvhPC46TSlPoTJvHKxYjlPWY7vJcAQQggCQkJFR2ipFaDXfvixPylr6aWo/wdVbiFYvdI4Rb3zB27o99u2iyOiZWeItsJXLRl+nBu3x/xh9oLR2RPdAIHshKU3rXpr7iLfaCpjvuYjsnMslroMs+i6YvD/klIMc8LNXzODrrZOi+F3mV+//rrrw/mJfEpbSLb7+ntGapUSdpGP6jqmmoFBlQq7A6GczYo5k9aQ01kd3cPwrVhNDY0IJlO4afeF3B16CQFkkYBQjEr8h6/lza53sHQGcncV8qUCMFxS3jsKutS3pllUDQNZJmrJDBS8c9+H66K3o9YJoWjA7MwxqrBfN94TPbXK8BAQkCAIMBB9R8Wfpl+Eed4FmAK6oc8urd7+/G3zHJMssJ40dqKa6pOQoOnepCBAkkrhUu7v49G7I3PeQ9HEH5MCY1BMhofTDNb5ZiIxQQAMia76cCUcOQ7c87EVGD3DxCgYUrqppQv3uoERpKSVVJrUw0rURdTpk5FxpBWxBnKBATFhkY6aQ+c5sLt3nC799y2J/e5YbjFtrm7799dc1Go3+Zc6fXNnk3uD2ZO/H/9f8GXq4/DIn8234jZrpn4jGfZ9HOgEGMP6S3UJ7bR0rIFs2bNHjrnss/k3EsbJqCRc2Kax+zvMue5kGazUD/5PSOe9l6wN3bu2qmyMpOGbdnCvs/UxbJ6e5Q/EOtfRCMRVcaZeVsIGgiCakI1qtYKL57n+fPnY+XaVXh8zA78x9jjlLZ0FCC4WYnRe9QMUEok2mRxEzOWtpTpKUSURD1uovNS3lPKMykrjfWZDmX7vCOxHL1WTBWHScWTQ+FE7D/9GG61XkfMSuNL3qOGVPkkbulMGv+RuRcdGMCtVR+EP61jw+3Z15j8hUlg3kzvwkeCB+Kw2CSlHg2FwkOqewFIMmfFMFfTT4JzIbUi7MmSOM+i6jUZuanFMNeC0gm/o93SZN5sg34RUuuCko0urVuj7jd/Slmbt+MzekxvfUhkOXOzp4GN/X2UZhkCKIox7rX7k6tUJc4PBvfPOzTJ6mjXuFFDJma0fNo4aVzAxqZNmzBv3rwR0r7Y9hnRw/TobFMiKOgXwHPp5JyZq/M8GwRFOiy0+MgGiVxg5BSZOcdLAaahoV5VxOS5I0gi3WY/CdQjkaiiQfozCkoWBmIx9Sw1xL2JKP7pW4fL6w5Xa5EarEg7GuZYzul6jzyrCOGg2j3fgSu02U1Jwc3U5ZIe3Tyb7x43KJ7hkU8n1uMXsedwpXUEFnk1YdiS7sT38TR+4jkFIQTUvFD6UIcvk8GN1lJcl34eV1edgPOxcLDQU2DIUchN37VEr6WqXHZPYbhO7Q2XprQaUzQKdgcyfs4fne9Ba0tMMwHfY2oeSBBFhZorLbS0QYmFIZKm+tUOckQCKxRJYh9nMTZvpzkymXuhfetmzdzeIzkD3Ny/J/vlpj+l3pML9IsNnMBYAAK1B5f234afhc7CJBfJkcj4eFbsdIn/O6VEljHI3BI4k7lSBU/pWxz/uLez+Up0/Ql+p4uWNajQY2rPCvka5AMJqiiSnpw9comgIVlG6azIQlUEGtSI/s33Ji6vPVxpJUYBwh5ZknfHS4p1UrSPupDWINcslcME8j3rBiBQOmHFtw1WF35qPYd1VgcaPdU4LrMR5/kvxwTo4kW8JDFPvyeBz2buw2+8Z6GhuhZeo9KlrrVeuA6EtCngyDQV5BuTnmM+7QwqBATolLgsflLCP2wAACAASURBVJWVgvi3c3y6Tm9NpiaX0pIoM4L2x3C6aHLYvGULZs6YMZTe1WzfKcrFiVAKeHACQ5UGj3uSGWsApQuQFRPu+k6iJm7mk0DTnjRsXbodv4w9h2vDZwz5A+Ubt1PJY3Ovmu2b50f6x+JkLS1bMX369GFRCzzT1AqQDphtcO/rs5TbuXIk/RuZIn5ggOne6VRJYF5Yi+DmHrf7g/MgYZEsGS8+G7/HvzCtegwuCOw3ChDcTubofVAqKKJ0N6GF5ny5ZQSVnuN8jFQYizCf1atXYey4cRg7ZuyQNCCOPLod7bBI1fl3Eo+iCwM42NuM7l46+IRwcHo1wpkInvLvjwEPsCS9Grd7P4SGuvoh6UCr3+O6SloOpmqfA5HCzXBCOxMdTvC0JMKwMam7IOp9iVww11BMC25VsaJpEBMF8yL09fUPVeHju0XzwLFyzPQGlz6aWgQBjIWkJ1kjk+DL39KuG7BX6f1VbHv5ALIT0yq2/bfj/fkYGsdMCVxqA0j/k1YS34v8AZfVnItZvgmuhpXVeDEfCSuRZiVyfieqf6d9ws+i0YhS0ztFLbjqgEONGPM5J1qkkkAl4oPVYbVDpblHZAzSZ7f9sNNefSa1/xRBDsEU8yDwkpoaur6E9s2KByx8L/0kDvBPwaX+xeqzURNDKbP/HntGNAh2QpeP8Dlt8t1JzIUgudU6aOaTweo1a9DY0KgIxIaNG1FfX6fs6+272tHXr1MXU5XYYvXgqjHP4ncDp8HXk1Cf87DF0QF4e1FdNReeKj8+mbwTN1ddiHC1tr3LZZavdbt9xM5J9b9po5V2nYgwmbNIpSQKHKMOoxyZSphz4NavgW3QfumU5Mks7sSxMcVxa9tOTJk8SaU6dkrcJGrnQnMh5g2TWOYzrwwnkqV5iRfqUzHfM93t5i0tmD1rlmKIOvHUgPIop1qbHujU6vT39ymmyUycslS0J3PvmQ53dpBeqnaumDGUcm8+gCBgeRgjhYWn4s8immnHaTVnqzkp5rJrEjgvnDsyQikyZnfSZVpi3iN5PYp5n9t7ef6cIr+c6FQlgIF9/4v/BP0WSINYG8bpEnNP0pPBkuQqnOHbexQguF3k9/p9+UwMdkLghmC5ZeIy727Ua+IsZoYL5ls3kTzefPNNdWjUQUrEkUoy34FXEWt6+/apNMph/Mm/DBM8YZySmg2flwVbUioXAIkOETrviQYtXBa5HXfXfcyVetTNvhICJ/e60Y6Y7ZomCrt0JQDBLXCzR01IHnip/SDtSPZFEiX6IFCT4KT9yK6vNnfYGb+s0UjzR3HMw8087657CBAi0agKQaOnOXNnxJjAJlyrKnBSC0PfFSXtVuuwtNraMFpb21Bbp5Pc9Pf1qzZCNTXKia7Yy835KbbNQve7oQNmG6tSq/BU7Bl8IvxvRYdSc+7I/HKZqTiH4lwrlRZ5f1dXl3K6dlNQKdd4c/lXZM9rboCg9zdNdd4RAL5YbS3fl2/OpS6EnTawD/zOnsly1Aeh0A4f/X5oBsr1Qcg3leXakk2Gyb+lYJG9uJET8Rj+bp3O2AyF1Ojfgx5PAhdGbsFfgh9Gky+kU5EOpjglQadaf1ekG5+tfwT7+6bgx+HTK7J7yDh2ZHox1dcwzGfATEwkL8pGLSh3UvWxqaJ3cg4UoqLv1dkNc6n97er+zs4OJe2awEUYuoSdmU5dZhpoc3JMcCIgwf6ZTn7zzgEF5vi4PzinO1q1tNpQX6/2WVd3t2L4kliHY+b31CzQeaypqVGpvjmXdCJjFBGZ2uzZsyvq2GaCh0oCiWLaGrCiuDHyJ3wifBmqjARibg+RNhVEc5rv+D39YrgfqY2hYx4jFmbOnFmyk6GbvhUC3tpsNxIguGnbfo8bQEbayD00frw+t0Iv+ayYHqTdUYBQyiq8R58RgFCM5F8Mgcg3rcW0wwNHZk1Ca6YXzaVKl5oKhVTWrCh3fGoGjvPMcsxVMGAlcVzPb3BBYBG+GDpuBCsTxyYyg1ye//Y5YJ9XJXfiW7GHcWv9xfAP5mOQNZAxCTAQYiTM1GTo/NuePVHa4djJsPjbjX8EnzMzx9mZPfsjzmdkbiRITMrS2KhLUptARfrMNgQc2H0VzMyO5YLJUo6vgB43c+PcvgaeVHMT8DEeKEvMdXIhCfXTgI1gSD+TfaeuOKrX3NkxtJSxOT1TzHmr1Ll9JbEUvelOvL/mpJKGIeW9c4Fbmrw8Xh+q/H5VfEwlQgpWqzTlua5i5iHfvYX2rJPmrNhJyPd+8zunLKmm6ZMgS/xCRgFCsavwHr6/GIBQDIgodUqdDp3JME1bXi61o8lo8wGEmJXEVyL34xrPCQgFq4eItqjsksjgzL4/4H3+2fha6IScci7vdwsQlMo0k8SV0XvwvfBpGOsND5PUNSMZ7owlzFYYsAkcnDQOwpQFSDj5FjitD+8noSFhkTCvbJIYHR0hPg9kfFSN11QHldSWS4uT9anQPgMmoNNrPdxBNhcjKGU/5SKuXC/+UP1caiibrJMJhErpo26nsKd7qW2bzxViaKW8wylawWznroF7sZ9/HmZXzS9qnDKvAlpz7VdKzixKxP0qTryUmN3635QyZnnGzXwW0jSwLSY0og8Qc0aY2rRC+0KcrIevcTZhHEORKbTsSKxGd3wNZvhOUNqEUYBQzqq/x54txsSwJwCCffqzBJgMSsfy2xmmeWBNdZz8bTJWk3D0ZQbw7YEluDZ83rDXKsnSsvDNgQfh9Xhxlfd9KnVyLklTiJiZxCXXNuK9A0ipEtU31X5ISZ1yuZ1fN0RHIhPYtoAIJ18Bk8HJ3Mo4xfGLTNwkXCJ5t7S0KB8PjlvCwwSciLbAvlbiWCljrjQhF0fOQsV4KFHJeOlHUezlRu1bbJu7+35JGuRUXXF3vfvOgbtwUOAATPfNdAUQ5AyYzJc+Q07AkWvNH6rVKwkszbnItc5uzqDbOZUMpjx3+bI2um3Pft9LPXfBbwFzvO9X8zSaSbHUmXwPPucWIDgxL7cMrZxpNRlYoXBMsz/ynIQB8v9IpB/BYLWSNpJI45u9P8OxVfvhVEP9KSr5JanVWJnZif/wHgbfYC31chyezDlg4pI/x1/FinSbKiQ13zchrxXeToxyaVn4DiGUbgCCvt85WyCTxtAJUTQwwkzlf4IH1vCgSpfggUR86tQpQ05oZPxZ34lsjY9sO6Jy1zNjOlyaWoZi944wE65xLkAn5ioZu1M2zOFMonQJ36lGRrFjqtT9rGYoNUd2F0O19/Wm6B1Y5J+JgwIHugIITmBZ1wXROQpMDSIdERkpUqlzWWie7WDaLbiVc2BqM03tgN7vxYea5+qv2TY1Zcujj2PA2opFvgt1iPJgOORomGOhFR/9XuVBcEMs7GDAZFpMtuOU8ayc6a0E+DAZlAYIEloWxIZ0Bz4TuRN31n0MQY+OV5ZwqqrqID7afxt+UnMGpvjqhw3DDkLczJ0wYtN7mdkcX0xuwY3xlzDWW4tLgoux0DdxWNVJebEJCPKpNc014X2mc6KTqSUX6JNyuyS8mslK8p+soyPbJ7ERLQO1CQwjpR2d2ej4Oeebv6kCppbBJLDsj4zFHu7o5MtQaJ7ZNk0jApKobWJUQS7JU5iO3E+p2q51qISWgGMTc4ZbhlLOucn3bCWlXrd9XBJ7FBO99TgwcIjbR0acN9mn5ppxTrfv2K5ynHCOGcrM/Vpon5TUicGHnHwKdpcjaDn9lGcJlhVN88SxNP1reK0T0eCbjP3D09UtowChErP8Lm/DLUAQYp4LKIikLtNVLnF1Y98rZWmk/PJDyTXwwosTq+YMSTaSBChSbeH7A4/mzPhmEgonrUUxRIrErSXTjR/Gn8Qsbxifqj4CDd7hoMQECvzbDaMRcCTz6PSME0AwmTYJMp/TpWSHm3ZEEyDtCpOnVmHjpk2YM2cvZf9kKCnzyDNngjhS2U0/HJNdQ8HPeD8vt5EOMp584JIggkSTFwEEgQvz5/MZOnEx81wpYWi59iLnU+z0TiGdJmgqZT8X+0wuu3Yhe3ex75H7X4q/hDjiOCZ4TKlNqOdkf/DveJzRI/ozzq8kPxNTg3zO3/b6JE6dKHXspT5X1kS4fFjAAW/neeuzevFIZgPWeHrxrVpdYnsUILiczPfybW4BQjFztDsOTiWlH0rvX4suwaerj8AMb9PQ0FTkg8+L83r/iC/WHIujq2YOfSdjEv9BYSL2sTqNPRfY4ef0wqaTHwnZ0sQL+En/rchUHarCKWd6x4yo11AIOMn7haAKmHFSt5tjGpmkZ6Ra3STSKpdETY0xP1lfCnknGaIUn2EeirbWNlQFApg+rVkBhlymkiwwYKpa5xBI+8e5mLoJ5ggAJUxTQArNC5LzgYOhP4IbAFbMeci1d8sF0cX04a26d2niVfRnunFs9fGqC5Uas5k8SYCsZBTk3uzq7lL+Qww5XTB/vlFYrHRzkcwhTTXUmpoaJy1csHhS9kxk76eGVZvZsmdD+/XYAWKptNMe0UDtHS/xP5IzlfGkUBtqGAUIb9WBeKe91w4Q8m3QXPZUJ9VbpeehVIDgJE3SvHBm7414vem/VIihXKqWesCDc/tuxh+tczGpIVuToZjxmNKwPJeL0YmkLwTPU1OF1kQPvhi/H9fVnoWpHn2YC9ko7fZ+/p8PHOQbD/fAkvgq/Db2JK4Nn4+9fHoeOC4SQfodiAmBRFlswHYHUSGI9DSnpE4Jnc+1trXC7/Nj4sSJQ0RMpL5cURn2/rolpKIxYt/ISJhGWsCE1hYwNXBsKLrCHjNezLqXeq/bsZTafjnPldu3b0f+iuP9c/C+4IHldGPEs3ovpodCRtetW6d8Zug7w4RTAoi55u3t7apSY6Ez5NRB/YyODEil0kobJGdZ9ju/pjbKDsLF5KW1cLpgmvSB37Fd8ZWRdxQDTkkzOjo7sGH9BixcuFBp2jRISqnKsyz7TO0foyN4bjWojsNfpVMyj2oQKrol352NFaNBkJhkSSQkTIOInclKyAAks56dsORT+9pnNpdkyfuKUd9L/8xnNqU78a2Bh/HVmuOxYDAnvJR1JRPbEmnHl/Eg/uA/X4U+ujmwpmrbHIt87qbPHDOlbb6PhGZrVT8+3Hsr3lc1G1dWH4Nmf8MI1XfWwTAbSy9zZOaBcDMG+xowBHRZaiu+MvAQ/qP6SJwfWDTsFlPKt4/ZBHPC+E0fCI6VMetkxiSQ4tAofgniyZ1be1B6mmXuUwFT0icSVhJ/Etd8VQLfnRSgMqNySrH8Smorboy9hB+FTkcIep1LuQqBFA3yBhQIZV4OHe+vNU+U9js7u5QfTKn5Lvh+JrYycw0Ic4/FWHfBq/ax6UDJ++kDRE0Zf5uhxgIc5KySgesCX8UnDHvt9dcxdcpkbN/RqhJwcR3UWI3CawToBDHsQzq1FTNnHzkKEErZiO/FZxSRdFHuWR+2DDo7OxVh7+rqVKlkeRjNLF5Tp04dnEadKKZSVzEAw4lJq/7DwjejD+LEqrk4rmqvodsYL0zQQwIwkEng8vSd+Hn6AxhbI9XQRlZElIdNFWEpUoDZDomc+HJQVRnLpPBEcj3+kViGXiuGbmtAmR2+EToRU71asyAgyFT/y2e5whsLrQmlbDod1tSEkJgYhA8+TPM1KCLJi8SQYIbrTuc+9pm/2WcSouFqUx2eapo+2IZSA3d1YcKECcNyEWSlMi21OTlXFup/vu/ZN6pfRbsifaU2gREupTKxcvr0Tng2H5OmVM21JIOm3wn3wgOJ1bh64EFcFzobh/qmqSHa57aQuazQvPDckunnS1DG9d28ebPyg5EIpkIhsE7vpZaJc0AQKeMQbQKZu9TU4P4nSBFtq2mGY7viAGye3awzcKERj/x+/fr1mDatGZs2bVbzwPbHjB0Di+bLWEytRUd7B0LhkEr3vbNtO+bMW6gaGtUgFD/f77knMum0UsHxcDNkiJvfnttbkufwMCoVcWur2nhyLw8BndPmzp2rDlCpzLwQYWe7pRBwAoM1qV14ILkajyXX4R/1H0XAk/Wql8RASnKFhW9FH8YhkfE4tnrOkO3SSfoggRPGLP0qh6FJVICo7GUe2f+WdDeiSGJ5agfuSazET8NnYZw3PMxHQaR6EyDInBYzb6yCx2Qq4VBYMXIyT501Ma1Ul7XhsJKMtCNUQqk0qTql9E3iq6NavCMItzBj/iZx3bZtmwIaJHAEIyxqxHTEbMPcQ4UkyFIOLQmpaZYZ1RyUMov6Ge4NaoS4pqx/sKU6gisid+A34fMx35dN2W1/A/ePnKtSQhXdmh0FEDIZEfet24ynZn95tqQ8tCTXMjWHIv3rMGmWTee7hkfRcL+xDSdNQTG5KZQpVKWO12ZECmnirMm2JaKMn/Escm+LFoMmh9FESaXv9ffck12dnSpEiJuOB5zVz4i4eSBot+PmIlKnapabkhIfAQU3P5PkkGnwoKxa9abKJc/Nyv+pdivGG7wQqBBG7NRuLgbSY8VwU+xl3Jp4FQf5mnFGYG+cFligQgnNZ9h2R0eHGh89oV/ItOC3sedxXepUBXg4JqdDvSd8L5w25IOJ1bg1/ipurP2g8rhigSkBBQJaBKiUAlik+A2B38qVK9X+ICFXPgSZNDo6OgErowgN90FPDzUw1Zg+bbqyAVPLxP9nz85qaUQNrOKwB0tFs6/UStBRk6CUa0tpTHwT3nOH8R06YAIE0g5eaU8GX7LuxzfDp2G6L+sA7DQ0YZjcG/by0JWeCr6jt7dHaRGKYcampC+OuYVMAbmAi4S8mr4LjA7i2dJMPJsFMdf4TVAi93D+eVZ5hsThlu8QWsz3EtQMgZjB6KBRDUKld9m7sD3xQeAmokTHKoZUL9NUQFAgiJfahRUrViimsO8++2Dt2rXYe29dNpSX2NCJzkXSJ5I1CyQ5TZ8bYGAeSLde0GvTu3BSz/W40ncELvMcCJ/HO6xoSS5QQTD0Wk07bup5AdcFz1TMTOyrdsLg1Hc34zEJgd27ObfdPet9TS3HBX1/wqupFlyMNlxZfzXG+sYOERizfQFUTupcu2OjSXCWLV+mnL7IwJkAqbOjU6lpOR8EBCxrHAqHVc6DjRs2Ki0AwxuZAz+RTCl1JgGmuT8IHgi4SKDFz0CcM0kgW7ZuxZTJk0fkIyg0p5U+lrtDY1HpPlaqPaexFjt+yXfBvdtu9eHU1A14remrqPEECnZzT60t38NCWaRJZiGygh2s0A0aDGsQRQ1D1iShw4fdZFAsZJIhUCAQMNOHc21IY8TUQdpBrQKvUYBQocV9NzdDgCCblxuYDJJOLvzNA08GIEiUkmF3T4/iVE1NY5TNWdC4AASRBLIq9/LDioqZ/x5rAL+PvYxnU5twbeh0TIzXKM2Am/A1XeylCkuDrVjbtQMX1x6YLXCSSg45EmVV4Oq45+yeXSIw7eumyl+0I8VI+zGkEMnE0ZtagycG/oGP1n1bhXXlAhjmO8wOD1flu/cZMZ+TvyPRCGqqaxzNQNwfkp3RKVKBWgtKaNx7xZhDitkbxdzrFogW0+bb+d5iQYE5FjEVEOx1pSM4K30Lnm38LGo8zJ/h7irn/e7eoO3/BAnNzc1uH6nYfaSt1LZynHa/BPMs8T7xU+AetEfVmAWYCnWOAh7fZTePjpoYCs3c6PdDM5BJ64x7wkBks3Kj8m+xcXGzcqORCJjeumyIUqHY9/i/tMH7eCBpl2R7VDu70KKVvDq/HHgO6zLt+FBgfyz0T0QdGN6j1Wvm5USMzLj+zkwUV0Xvxy9qz0UVsup7tkVGJofWPg/yjlxAgN87mSVM5k3maAcWJgGxSxEZK4PbY6/gz8nluDx4KM4ILITXGu7cZwcHTmrKYsCJ2wWS98qeEN8WIViyv1rb2hTMMh0WC0lLudS4bvu2u+/bEwxvd4+hu6cbGzduwn6LFqG3r1f5pDj5CoiNn3s3lUnhgtTt+EHd6dgnOVZ10c4Qc/V7d88ZadAbb7yOuXPnqayfurpmaZfsbbdgVpwcKYDo9OTDL56/RCKuknYJXZEzSa2sfEb6w/ksZObINaq16XbMgjb9jGoQSlv799RTjJXNxZDsRNgk2mSW/J/MV7yJuWnF+YsmCX7Pevfi2c7vKH1Tohebm5Pangvg9gBQZfZ4cj2+E30E5wX2xeXVhyLkQrVpX2QTmdMp8NP9d+DLNcdhr0HVPeeCDnk+n39YdjYnLYEJBGQswgw5Lrv2QECD/XNTipX5sDNO1S4svJDcjJ/Fn8YMTxA/DJ8Hv0c7+glzlvGaAMSc492h6jXnhn9zjs0Kivysu7sLgUBwmJ9HIXAgY3K7R94uB7pSDLBS7RSalzVr12DGjBkqZG7HjlalheuP9CsPea6jzmjoUY69DfX16O3rQ224FuujbfhDaDk+370/xtQ1gkIINUNuHEErMbZcbXC/bdq0SZnO+CPRDOW+s9DZEWdCM9TRnHutwY0rOilZPk26Ya8VUowWwXxP3Erhs5G78Kuac0cBQqHNP/q9ngHF6JlB0IjBtUuYToSYEjc3vEQtUIoguqV0SLMEgYOUDNabPWtqkNrkJgp3Ulm7WaN/JlbizsQKfDd0CiZ560sMrLQUsTMJ2MPJtejJDOCC4H7D0gCzn1TdkcDkY1R2TYHkJXACB0IMijU7OGkCfh/9G/b2T8Q0/1xYqEGDp1r7X3i0E5T5jICFXIyW4VoERMUwYlNrIOsn7yRApEnKjLbYuHEjZs2aNaxWA+/PBWSye6KyYbRu9lq595TLiMp9v/m8hCaPGzd2MAx1ZG4JAnkWOOvt7VMRTq2tOzB27Djl7BcdGEA6lVbArq6+ToXScc1UNNT4cbgifhc+mN4HByYnIplKKp+U8eMnVHIIRbfFfdXSshVjxzYhFMpK5fkacrtmhTRanEs550wUNmH8BKQY6eDX+SE0PdXZFZm7gdoNggbSJP4tplyeIdLYUsqUM2SawtQ3gieMAoSid8979IFUkhs3yziE6cnvXCo0EhizTK5IyJL7nP9zU2eZS5agm8xSHOXyqbjtEqUc2gEric9F7sLPa89FNYabEZyWM9dhl3hm8S3gs7+KPY+5vnE4qWruMJMJv8vGP2vTjCT7MVG/MEWOK5czYK6x62dVa467Mhcx4udppPDP2IP4Z2oHuqyAKkSVhoUzAwuxyDcJ4z1hTPJQvaoLL5lza/aTkQW0mZIBOIV45pKaBBjZO841l2RaMs8kmpToBCCYzxQCJYWkNrfH2Y22wm1bhe5zy2zctKPPZ6E7nb+nBNrW1qbWnvZ4pyJVpAmMVtq5qx0L5s/DmjVrMFk5kAaUJigWjynNQJD5L2pq1JnYtWsnJk7UkU+bvN34ys67cEP4Auzc3qbeI6C6mF6L3FLqWO3v4r6m4y2FmD15iV8B6em69euVMy73/85dOzFh/HjU1tahbWebAgoYTGpE+kozz8yZM1EdrFY+PDtad6C+rk79zSih4enOc+8J0sorI/fgB6EPoM7SzqOjJoY9uQPeoe8iIaaZQZiDDMMNAbar13UmM8YBazV61l6ps4TJIedzNEvwkBZC3iZgMW1zSl2Y6cRPB57GdeGzC85+McQ5ZaVxSf9t+H3thaj1BEe0LfkK+AVRP6VsuwZEwIKYCewMTxKp8HOTAZtAK9eg7HNmMjn5zgQoSSuNHww8hl2ZCFand+IHgVNwQGDqCBusOQaJtZbMmPa+OPlSmPfI+LgP2NbqNasxe9ZsxUiobuZ6MHcGmQZrUcilAWl+7YD0U1S35hwWw/B575YtW9Srp0+fntM50pxv0+xTcNPZbijn2WLfle9+hjHL+jFqqdQMg/ps0iM+W+XTfO9ZvTeqfB0008lF+lCK9FsqUOA4JVKGGjFqEBYsWFDWmItdC/aBGkpqBqiRIR2kFoFny+/zqbVgeDnB2JimRqWx4RxJUiamceYZkbom1CzQLMfv3eZ0+E3sBfRbcVVjZtRJsdgVfA/fT/uiOCSa4EAYnDk1pnra/FscGUUtbDKnXFMrQMIkTnZJOxdIEUK7K9OPr0Tvxx+YD6DES9v/EsNio2NWCpdH/orfhz84VAraiUGKStD8LqsVUDOovnKShp20CqKet2tt7OBN3mdqXZzusWtlOM7rrv8VaurDqBqw8Ml///chYJPtj1ZzauLvnP7VfJeMTcwCfI6EmM5tJF68l06doonYunWrAgiMgOGz69atV3ZuMe/YgZa9D3ath31d3ABbeYZaMLZHR1oyylyMi2G/JOBuiXExYLTEbVvWY9u3b1egrbl5qtII7K7r4/1/VQXRDvbrTIq8GCnEtXbruFiJvlEqJ72RugelZFIstx/sA8edNevp86VMBiyFPph0jd9nwbVOTKdrKeicIxqsepTvDkGDRJjl61+nNYAP9v0J99T9P4Q8o4mSyl3L99zzqSTzhg9nBk6ElsSeDF3sacxx4PdTUxAsSg0tE8z2ZOPLZyaT7OnpRmtrG8aMaVL2y46OdmUDFQJMh6nrPC/ikuBizPSNybluuaIW+H4Sfaq+TXNJxErgPyN349e15w8r5iRMk7/FI9/uu6EzlmW9lO3zKOYVvts0aZhMl0TCLgnLvORyLDQZtH5nFqDIxLz8yivq84MOPFCpj8moGbZ6//1LcPhhh6o5fu7551TOgxNPPBGrVq0CmcmiRfvizVWrVa6DI484Ei+//DJWrFyJI484AhMnTcTTTz2tquYdffRRKsnWvLnzkEgmwCRcBxyweJiWqD8SQfuuXSpHAk1QvJ9/24m26R8hoMAOiGSe8pmnCh9mOp9q5uF0ca+7KRlc+D3vvTsu7PsTvhs6dUQ2RZHoi01YVCrwouROzQFzu5SivajEyonmRISbOE00GW2eFHpCAGEmO+LnZippGT9pA008/5+96wCTo7jS/+SdTVpJK60SCigCIkeTk0giBxsTbM44HmCfzdmHsbGNA07ndMbgcLYBYwMmB2NyFEiz1gAAIABJREFUxiTJZCSBhHLYXUmbw+T7/qp9O7W13dM9syMOo+nvk3Z3pru66lXVe3+9WB1nzQnv66s992N2aBw+UbWvurmiQfCmWeWOAQqIiUHS5brZfkX1rdN60onM/XRsCnslpgwHSP23tpVJmyI0eaKjylm0CkzcxKx6PJGuX79BJeppbm7B2LFjVB0AZvh7t74XN3Uuxk/GnKLs2VOnTnMMxbIn3DQTSOimhA81Z7vx6/7n8M3qBY7rhKo+PmOGSrmd/s0GuLFN7YpJFycnRu9FSt+R/F22Ktx+/umnn1LOZuz7srffxiEHH4LbbrsNH//4x/C3++/Hvvvsg+eefx4nn3Syqk53y19vxYknLsTtt9+B008/DY8++hjOOP10VYeDWoG/3nobFhx9NB56+GGcuPAE3PCnG9X9NB+1trRi1qxZyr9Ap37VIWViAxbhwPTKY8bQUS6gUi3TXCMRLma+BCfAJKYIGbffkDNvuha+o1RBNdL3FnpeF/vxjv55r8wcG7Md+Ez3Hbip7lzUFIgqkn0jJ3wv35NSaUibvUQDjOQdxWiozL7y4NDT06t4E99PkwOTmA3109JPkBbyHqcQbd7j1ydjWaYVX+i5G7fVnT9oLq0AhFJX0Xb4HE0M4jlrhtjYQl6YMDeZbbM0BROfE0Eo4MCNcYv9UsAGF72p6qZqlxuKKJs5+vk3Q6qmTJ6CzZtbVVKjQH0Mp/Rcj4dqPolIMIRYdLjPQGHGqvOjs4+i5t6Y7VROildWH6PSMtuXRHCwr4MZylzU8eazbiCA9ON35knVpqnfpSnlje3549+LFi9WwnqvPffEU089jRkzpisQcOghh6gUyhMnTMTrr7+Ok046CTzhPPzwIzjppBMVEPjwWWfhwQcfxCGHaFAxZ+4cvPba6zhx4UI8/8ILOOnEE3H1r67GxRddjNtuv13VbyB4oDaF+S9CIapHs0pbw7TWdFrjGLe2taGutlaNX/wdSF8BEIWEvtDICYT6pVc576NTp1OMu+6ff6ZeTJ80yCZK1Nn43g8Xw+k+1f2/+Ej0Q1gY291Xl4RnSISLzLvto+OrMYebuO7o80JHy0LmjUIAwM+edJ5nraWiic+cIzF5SHe3xRr5r577cUBkKk6Lzh+kSgUglLqKtsPn8qmWdSyuja5FYHNzcHHTHkZAYW4Wt99tRzY5BeZP0cOZZv79OWzZuhX1dfWq+h5Tk9J5h4KD6nEKGyZg6ksmcGzgT3iq5rOoiVQ5emSbgsScYgIiQev8XHI2ZHJZLOz+Az4W2xvnxvYalieCdlRqUrwKzNhaBTd1NenCf+ZpwQ8zKna5ko6333EHJjQ1oaW1Fed89GzcceedqqYGTzQ7zZuHlxa9hJNOPEmd9KkxWLhwoRL4Z55xBh555BEcdNCBuP6GP+FDBxyAF158UQGIF154UQGEX13zK1x80UW4976/oalpPPbea28F5Ng2/Qx4UQDwNMe+0El148aNqoaHaA04bjpy1dXpMFInoGM6fuo1pR1gR3IyLJaW24KZ2+MtZjylnmyLHXeh++kT9FpmE25OvILjIjvitNgeCKK0ZESlgj/uMQmnNYUx9/q7767AzJmzPMwMWisntGd7bvkLCq0Bc/8qk0A/q0Hmta4EdQTOfsFtIX7gphVK5tL4bM8duKbmdFQF8lFeFYBQzlX/AW9LAAJPbW7OdPzcVIXZgt+NRKYjHn/nJqUQNFXHfslrq5jlOZ5Wju78LR6p+xSCGW22MKuo2ZuYfeA/nijGjaM/w1AGJtaQzkw/Ptr9Z9xa9zGVMlYYsDg16vjk4doFAQXsn4AqfcrT+c/lZGSekoWewtD80rc02mltBedB1JQauJh00BXhhOa6P8zwKD/1eMR0IJ8zkRTzvN977704/PDDlTmDY2dInVTCo88HgRhLhdOcxDCvxrGNQ5g2TTjiEGj6Zpj0E/r6ZbA2rQoJoFKEf3uuG5d1/x6/rvuCoi9pKurkYtsrNzjc1mYFavXuTr6JvyRexqGRHXFBdF/UBred82OhdU/acW/xp+lUyjlZs3Ytpk+b5htIkk8wJJFhnGbBMs2//GmEZA/JYUS0lJJQTgrBec1RKQDwjfQmvJLZgPNiew0hWQUg+OWclftUljTlh5DJDMniZTJg/k6AwEUqXrZ8RoSdk/AW5M1neVqkzVo+E8Ep5C9WIJqbsyXbjVO7rsfToz6HELRzH8dCdaJO3UunynwiKDmle21wRjLs2/ELPFL/GTQFaweTDMmYKcSoTRFfCnMpaac5zUDkd+1Qp4WzODiyr1KkRcwLNpAY6RL1K2xkDuQ07vReE/wIHeQz/uS4Wje3or2tDXPmzFGgQqfh1vTnO+hXQo0FzUVU9dKsYIZSCoPnd2Siuty0BmiSfMtM1VyK34FZ6pnjFO9y/i6mnmLpzhCyi7v/ij/UnYdsmqWBWWGv+n1RV6LYsRR7/6L0Wvwl+Qp+FD8B4cC2N3PYwtRpL9sClWtv+fLlKqeAXYbZHi9P+1xjNIVRy8X1wXVBPtbW3oZJEycNmiNNs4F5IJA2RdsoKdoFnMvhQu97f2Cj2Hl5Lr0aW7I9Kv26eVUAQrGU3I7vF4AgJOAi7++nqUGfgM18BrKo/aJZ3scN5JVi1W97cloUoUfL6+/6n8foQBxn+bR16ja8NyQZ/oXdt+LmunMZ5T0EIIjK0MyJ7nUCMJeYqY3wE/fvtjz90s0GcAIGZH5Fw+Gk2REAYIawkqmZ2RA1CNI04nzTa5zgSLRO/Jz5BrgOKPCZc0A7aiUG88pzTgigpC/SprnmBGgKeBVm67V9CUzNGiJu2gR5p9d6dXrfQ6lleCPdjC/FD1Xv0kKGTmjOxau8+vyv9P13+x7B8ZF52Dtc/iJIXKt0euUJXq5i9prJ17g2u7q7lDPzrvPnq9LPYvJi2C19mri2WZW0tqZG/c7wVuE7/Mm1RAdpXZU0pmoncB1v2LgRUyZPUuZXOlPT94Z9FzDKtvhPzJKmudEPPyplPVQAQilUqzwzhAJOAIGLV2JxJVmHafctJJhMYaSZPX0X/Nkh/Qo8GcBdyTdwS+JV3Fh3DkIlJll2Ww5MLnRK13X4S905aAjEh4SBuhVMscfux4bs94Tv1E+/9HLS8JjvLRRB4QQQRJCyT7YJQDQFAiB4WqPAlII+4rsh9zk5ZppMXYCJ1LkX50UBEoUc8wSwyFhtGrLvol1if8TBkG0WGyv/474nlCPYrFDj4GmTbXD/vIMt6iT3och0R6fXf3WW9Nnu2/Ef8UMwL1T+VMqcI1aRpblqJADBXFPU7tCfifkvKJypaaRAJ9+TnDDUcmm+NdyMyLXNcvc0YdBMVldXO1jplT41/J6HB34nGkv+NKO/tuWcC+CoAIRtSeXtpG0bIMiwxalG7Kj2CdhE1eaJ2BQefgWYG6ndnqfNk/bOJ1Pv4orqozE11OAa9lMqOmdq0mM7f4f76y9U4UGDWosBVTqZB08c5iWC2BSq/N4LUAnNijW1eC1R6QfvM00CTozWzZ/CBBci1M32TMZrtqtPWxnFLFnps61NF2ViTgsxq0j/CjFi0dZIoiUT2Nh0lb6S0fN3G7yY9GLfTOBAcGDSQPtoaF8LPxqF2xKvYX1mHb5QfYJ6jYztsfQ7+FPyZRwUnoETozthUnCo86XXHP5/fc/+00+HdDBNME79uaz7RnwufjSmhSaUvbvsA9eL35TCfjrANSlrg/xBOyGGBuaM60Y7ZLsBfK4vAgFqF7QPgeKG6tWSI4aOuNSazZ8/v2iw6WcMXvewT08lV6I714/jozsNub1iYvCiXuX7QQqozeHgbMdTHzeJW1Y/83M/QKBUQW1PVXuuDz/pexKjAnH8e9WBKjOYeeVt/3kzQikqSfogsPLZb2rPUKe+vGDSzEBUhyI8zMQ+vMMNLNjjsUFBqRoFv/Q158rWeKiRGWvByR/CBB0mGJTHdMhdvh3ez5Ma6SRlsiXBkQhSNy0AGTnVubQDC1CQAmBimrHjwSXnvRtzZ3/oSGmCAwIUe52bdHJzSDXnsh8J/Kr7Vvw5vQ4HRuahNtuOmYEs/pnN4tu1Z2NcsNZznb6f2JLY3KVPFIRuSYZ+33MjTqs6BmO2gQbBiSal7Gdzf/jdK27zYeZQcYtk4vqh5oNaBrf1M9J+eK2XJ9Pvoi+bwnHRuRWA4EWsyvfOFHDTIBSil5sQG8mCLwQy1PsCAGuZX9n7MP6tal8cFZmlfAP8XKX0iyaGs7puxJ/rPlow0Yuo59kPU/DZ/XJyprM1DfKM2ONtge1nrH7uMYWjaePn5xSWfpKwFDrJC1hgOzTHECDQ74DP2MDS6bMhgncgPIwnMzJbAgaaGcTBU/wmBKxQ81XoYjz60ItjZgjY0L7JPRyDhKOZz7mtKa6bFDLIIqPKh8UCMQR8hPrZ7ZWyZp3GnUz1INPXiXj9RD9LY/Ae0pHqdvMi/Z3A3O+7/4TT4se+hwDB24eoqMGO4Ga3eRJAy/XPcGwbsJZrfgt1/dHUO2olHhOpAIQRTPH2/WgpAMHJpp0XbsPLxoqgMwVTMVTnIr8r8QZuSb6K39aciYagLu5TyiZzE8p2f2jGOKnzj/jf2rMwIVjn2l1J9mSPzRS8+TKuDBPMF7YpREcZH3/6EdjF0NMNIEgbEsnA/okA9/KnIB3YTxMA8HnmNOCJnfZYc+zyLi3o3UGJDUZF7S+CiqpcaVvaLAQSbNOCuW6dkhzxfTwlUqNWKDVwKWuxmDkr9l45ZX9r019wZHsEh847y3cTPPmK1705725ahC93/RpfiJ+MKWE66Tlf5aRPOduye1uKdsJpxFw3XDPM2UJ/hm15udHjweTbSjvMirTmVTExbMvZ+IC17QQQvDag1/cmiWzNgNcGtAU4//5z/z+xPLcFV1QvGJEzopNglPhkCgH7dPS57ttxZmx3pa0wLxHsPGHxOa22zgzmd7DH6CZcvQDCMNAygBSkfaGtl/B2akfobIYMmv023+E3lNBJC0RhvXbdOsyaOdPRpltsWCFpRqbLS7J6UnCJiUcDKh1NIZf0i88SrNjrk1kfvWgoQMFeI8XshZGyDg2wxL9haGtO/UjmMvhK799wVfVxqC6Q7tjuF2nHcFSaFMyyyKQzL9LRVK3/svt3uKD6TNQFRxc9xPeSfkV3boQPUOvFcN7p05l7wZ+j9ghfOeTxvyWXoioQwlEDAEH2dAUglJPKH/C23DQIToLc/qyQWUDIVkgIupkqzGeWpzfj5/1P46c1JyM6ghhrNxUuQzqpXqYDnZnymZ7Oz4TW4tHUcny/+vjBVcC+ScgchYUkxDEFnTjzaZX90MJNtqZBzBJOp2sblPBvM/eE1zOFlq5Oe6zzUwjTl/nlT1PgjmQLcLxbtm5RNexJY3PNOPk4mEJd7OB0UJNc+qaaWyJttJOZZsDSJrM36loN2h9iuGlBv4ngwAYSEidPfwYTOJQS3TAS2pXj2a/3PoATIvNwYGT6YHMEALJunfwKGIrKqBP+I+1Fc0KAYFZFZIMd2Tbc23cfzqk+B0Gf+5OJs1goTDtA+9OQ+b2vHDQrRxviJLt27RpVH8aMCvMCo+V4P9u4NfEqxgfrcFhkx8EmScdUOqP+vu3WW3HmWWch0J9IGiVdyvX6SjsfBAoQIJiCkWMyBXehjSmnUFtQ2ULAtjsL0zYd+eQzk1mzHdYx34wefLNmQUmqdienRXPexKlNmL/+W5svOiIpHNn5G7zS8B8IQ3s59/X1D2QQDCjhb3o7SzZKXbktpOKszZO4vFcYhPz0chb0axYpZj1SSPB0T/W8CVpMrYQfAFjonXy+v5/CRmdG1J7oOvTVduqUdSc0kegHnXnTf/Idcywcn2bUOr+CvcZ0JEp4cB7tsXCu2V/pkw0QvLRhxcxHMfdyXFKszCscc2mmRTnb3lf3CVW6XOZd3qfj+XXKX7kYOSCOeOb65vzRRMP4f6HJ57tvxsnReTg6uofvIXCPsd/af8QfQPDd+PvoRikzzTwOkWgEqaTO4srS4oXCc8sxBJpIF3T+Dt+PHou9ozsMMf1VNAjloPB20oZTHgQyUz9qZSfBYgoVOUk7RUKYAkLQNpm1dnDjfzon+s2Jl5FBTtVEMC/aSE2GNm7cOF9qYh2GpP0AJD+DPinmGRXHQGbI9/5H9134RvUCjM5WKeYqYEjGKR7KMgY5zYqTkq5+qdXaJpCyha+TMBb6upkS/Fbws5cy+0P6sa+iNhYBbd470pMO+01zAOk8evQYY36kwJDWiNhAU/s+6LTOFIYUYH7Wo9l3tkkNiQ08zHs4d6xaWeiS0sRsTyIo3gvW4KZd47spvBk2yosJhLxKGP+o7wmcGp2POaFGpRUwk1yxDRMkSJInW9PF+yTUVO1r5PCn/sXYkuvFJfGDEIF/EGfT74MKEriOJcW4rHPuO35GzZ1XRsdC68wLvDNM+9COa3Bn9DyMC9UOCdWtAIT3Ygd/QN7hBBBsW7TNeJ2GLgvWZixOanC5h5vGLK7iJAQWp9fhb8klSkibF1MpiwqU7fEkbOZed+ojy0bzBCSXU4ihCEVJEHVV76NYEJ6N3TFhSFy9OQYKGgEEfE5i6MnEGSttahGc6CP9se3+tuC0x+TFJDQokZTP+mlJDe0l/N3AiZ93Sj9V5rquTiXoacuWiAP5Xr8jX7JazC0UYJJlUUw3pZy4xByk/RHy2R7Fli8x/n62cjHj9tOen3vs9ennGad7bkm8gsZgjbJFOwEEggICYq5dqWNAUCc+G9QocG9RqKmEP8jhgeQyPJR6W5nfWKtkpNe2Agl+2/V7XzHjlP1LmrM0vOw90ptmFkY3yAHCzVxoH8LIL/Ucaadg8j2nvfFKer2an6/EjxjW5QpAKGYWt/N73XwQ3BiinIZNsjkJdqdTsxZQWt2r7dwBJJO6oiJTnTp566/JtOHq/n/gRzULh8yURuc8XcY9NQfyIN8jiUykL/zpZG9nH8kMr08sxphAHMcF5gyaYkwBx/skmRQFkZRw5ed2GWlbS+EkpE26C63c6DsSHwQ/y97pFOtHUJrjFGHPzHMs8UwhIz4OwtjE8U6qhEq9ikJlef30n/dwnUh2PBOIsQ9OScC82i1GkJTDBFHIT8Orr/I9E4q9kF6Dr8QPdwQIVIFT0NiX9t1IqY85VwQJwXAIDyXfxj3JN/E/Nae8J7UX/I7z/Xgf9wsFuqmpIw96++23MWvWLEVXHiS6ursxRvllRAZNPvSjIY8TExnNBj3dPYp/Tp48WfEXHpRYKXVI9BByuKTnbnwrvgDjgjUVgPB+XBj/Kn0qJczRFJBOTEUYs6mOl/tsb39+XojpLku14PrUYlw16CiYQ1cXVcc5ZQuNRPxXjdN1AoZ6scup1U3w3ZNZgo5cP84P76mG4HafCFOCCnFIktzrZBBSaMikVyEfDBPAyInXBFDFRkDY8+RH0Jtz4/Y+JxDhtPY1YOpXAqq7pxdN48cPSyDDUxXNCaz2KKlpRwKC+E6pK2LPHb+jbwPLiL/fr5FqEt7NbMHJXX/EKw1fRKKnf4iJgcJKSm877WV+TwAxqqEBS2NtuCnzqoqt/0X1KQi9x575xYCz/885ldwotjnS5JusfLp6zdoBUBBV4EslBuvuQqI/gfUb1qsy6HTulQgIAWwCbLmG161fh7FjxqhcHuLXwbLbn+u5E3+tO88xtXdFg/D/uTr+xd49EoDgJuxM9btNDi9mZ2oe2M5TmZWgmeHS+GGqKaJtU1VNkEDv+KEXVdfajyGfS12EBXPuayEuQMZNyDFM7OPJW/GD6HGYFsgXi3EStvKZaAW0ANLVDMUXQ2ySFIJmeKH9rPTL1hz4FepeoKuYJUqmLCcYJ18SN9BUSGXKk8/WtjY0jBo1WKxJbLW2VsVrvXiNRUpQO80ZxyNOfm79fb8IJVOT4LdPch9Pnr/sexZLM634QWAB4BDqKXRvy/VhcW4D5geaMDFYN6hxuLTmMcyIjMWnqw7ADqEGhK3kT/QVkWqt5mnZa36K+d7vuL3aFP8W3kdwxHUgQt3cm17tuAFhtsVcEqzxoPeic24Y8jLJN8GKpqLJ5JplGndzvzmNXUA3tbB8H5OR8ZmVma34Ud/juLb2DMchVABCKTO7nT5jAoRynEq1YKRwds5yqB3Q8uF/5sKX302QcE3iOewcGo8jIrOUSo050Cl0GSZF9adsLHP6Nm7cgLFjG9HS2qKyLU6YMAHNzZuUtkELWWb468PEiROwaZMOuWpr24qGhtHqtESHR/bhrsxbeD27Cd+IHYXQQHU22fAyDlNAmqYKGaNOspNWNkP+LipvXekw7xMg7Up7Jhjw8hfYFku3kHmD73Mq8GQCLa+1xO/JIGlG4D8yas6lG/gqlQZCbyca2QBhW9CxnGDNzWznp9/pXAbXJRbjpcRqfB4HYIfAqCGPUStwbfYlrAm043DMwMO55XgXbQikskgGstgzNAk/qTsZUav+iDRCQSfmO86nV3SFnz7b95QLIEi7jATRGkRdfZQXgXsxvilugpttS4SQ29rle6kdKHVtyzi476h9oy8UedlbmWbc1P8yvlNzXAUglLLQKs/kKTBSDYJtMy+02EXomACh0FykkcVHu/6Ma2pOV7Y0Cm/WaKegpfOfm1c57d1BlZ0vp2q3t7a2oLauTtnvuPnDEa2Oy2ay6O7pViCCKj6egqhyrq8fhWwui0sS9+DyyBGYGBiaSTEfaaHNIwRDtumC79ZRGQHFOE3AQGYqSX60UCVoySdSMQWBCRyEVnZyIS9h7ne9ewl1aUfAkWhyBBiYYMk+NTmti/b2dmV2GD++aTC5kRlyR9BAOnl56RdcQ5bfiXmvGbYoNLQ1CeUWSn7notB9fs06w8AWcniu+13cmH4Zc9CIswK74Pbcm1iMjVif68D+gR3w74H9UBeIIRPIoSvTj5b2LVgUawbiEXyy9gDXuTABAt/r5NMw0rGXYy50CHJYHTbEFCjrWeaef5sHj1LeS3rwPW61GkZKC/v5TZs2KZ5I59Jru5/F5L5qnDh2D0egVtEglJv6H+D2SgUIplAQYSBq9WGMacAxUQSQ35A1mhbuTy5VFRt5UWNAVRqFu4QJOU0NT6b0Gt6ydSty2aw6odJG15/oV1YHEdr0rFde9gOmANr+Oru6MGXyZGSyGfxH8j58KXJIQfOC29IQ4GT/JMMQAW96N5unAac2TdMF6WCGSA3VNviLK3cyV7iZMOzP/TjOiWlAAI7dBv8msybgo6BubBwLOmUpABfWyYsICEkvYbJ+141JP3F4dKKpRKoU2t7lcDR8P7EP5VPQ240fZZ/GvbllODIwAxcFDsD4QM0Qs4GMu7e/D18JP4JLQwdjl5rJBQGCmO34LAF3KSdjrhv+s6sp6s/81Qlxp3cOr732OubNm6fySFDTyfdQw9fW3qYc/1pbWgcqNAZU5dFSMyCyv8wBUl093Emw3OuBe6m7u0vlaNmS6MIP6l/Er2OnYt3adcqPwY4eqgCEcs/AB7i9UgGCbGSJ+3dD2eZ9QkY/jJ520y/33IdzYnthr/DkITNQjC1eHmQ/KFhNp0T7NEnwQXAxY8YMdaK9N70EvYEUPhLabfBWLyFqAyc+KM+I57wITfP9TidYsy15hgyemg47vbBTJEahZVsKDU1amidtWxAkcmmksxlEA2EErfoM0gYdRgmQ2A8KagoUOnNSyBD8ca6kYqa8i6DIrfQyQ+8Y+x1FCBEjo18hgGCCESda6ZoU+TBM+x5qQChoaGv2Kgldyil0W7Gdzq5OfC/zJJ7KrcJvgidjeiCfIlmr2rWZkL8ns2n8Z+BB/CRwHOrjta6mA86dRDywBbfCTl5jYipsapU41/xH+otzsVfZaa+2k0maKDchFA6pgwPfxbXFYlw8GHBvSV4J8kX63jAUsdhL9jJNCHZJ+GLb8ns/30ke92xmNZ7MrMAV8QXKv6G7pwd1tTXK+VfATgUg+KVq5T4UCxDMk6GpknbSHogKj2QWIOGH5Gz39vTrWJZuxdeqj/ZZs7Fwy4Vs0fIkTyjMkyAC75HMcmzO9eDs8O5DAAJPHeZpyQQBttA3wYDQiLSQUtpOgkPoatJa2hEhap7QShE+ZMJ07izmlOdHtf12phVf7f072nK9qEMM+4Wn4jNVB6ABVcrrXdpoaWlWGoNRo+pRU1uHCOPrsxl1miNgYOy9OHcKTROBDHqrc3gktRyrsm1oCMQxOzQWqzJteDq9Emuz7WjJdqsy4BdVHaji8wvNu5gYKAylTLWf9WneQ5DAMdH2+69wEXjf2fUKbk6/hk8E9sTLiZW4yCFWXoA0zXyXZO/Bz4MnojoUc801YmdoLAQQvNZRV1e38tmR3BU60kT7NPmpm+E2D5wrmj7eWf6OEp411SzFHFWZPpnpsKa6WgEIziW/p48SfZlKubjuCHBN4OjmCFtK+27PsNrtR2N7YE5onFqXdHjkmBhGOW/uXKUBqgCEclL8A96WX4BgqpVlg7uZFEgy2ybve3MEcvhK9/3oRwo/rF5YliQs7I9TiKNMrXmaNkHCnek3kQ3kcEZo/hCAIMzTVPubQMBs1+lzfmaqt81IAaGpCEfRtgjNqT0gOHFy6POzVGWsZF6SIMdPEiLSj3bODRs3oioWU46f4h/Ak140FlWJWf7cuxgXrJuJ3XeYi+q6GqzMbsXV/c9ic64XH47uhuMi81A7UDiotW0L7gwswWPh1aAT3bhsNY6omo3TIrsg2ZdQoJKnuq25XvxX9iEsy23GnpEpOD22C6YEG1QIVxIZ1AeqMCU4SmXzSyCFx1MrcFfyTfyw+gSMC9YqRsnx2hedViWbph/a/avf051L4IreB/FWuhnX4iRUpTK49Z+/xjkHfgnRjK5nIWBJnAwJKC7p/wM+GTgcOwd2UOY6JwdEzpOZ3dSPBsHNVCXJnEzzDtco3z0k3t/IUCog3Us7yQMA55yr8rqiAAAgAElEQVSmLWoH+LfONZDVeR5U+metOSoGPMvaMMF9Xquni2xt64vg+Mq+h3F1zanKr8rkQ9y7HB8BUgUgbOuZ+AC1X0w1R3PxCwmcNiQ3l5yw5Xun+5zsu/ck38Lfk0tUcSaeAEs5HdvTY2dQdJs+EcLs69ZAP77Ufy++GT4K0weq1JknH69+2aYGEfyifpQ+UPVHNTWFNQUucwCY+Q5MMEJ60S7Pz7wAgpPDodfJzY0uZP5MyEInKJ2fQKtmRf2bTKdwXfafuDe7DNcFTsOk+kaVYpn3NDU1KZC1MduF1/rW41ksRSazBqsQQ2cmjDOSc3FAZBpiddVYm+vAiuwWvJhYjTeyzdg1NAFLMi3KNv7pwL44MDgV46P1BcsuK0EBYFFqLX6V+AcujO2HQyIzhgBEberh2npvK+x5rZlysxWZ7/ZcH65NPI93M1vx71UHYNfwROSSGWWqWpRdhRsDT+DnoQuAbD4kj0JUKl++lFuHJdiM8wN7qPLBXHtOwtN0VPQDEJwOEvxMTE/8XdY/a5swb4VU6eT7pdCYX7ppjaYeowBDrZrXyducyn37bdsECJIYyTxAFDpMme8YyRr5Y/9Lqt7GOTGds8XsE6O/uBdDRoh3pVhTsbO7Hd7vpkFwEjCmVsBJI5C3vWUHkb5sEpuhOG0E2q6P7Pw1Hqj/lPKkLsclmgNTjewmKAc1I8EALuy/DR8N74ZjQnOGIHFz3Kawt8dnvsPpffKs1BnQjCqr7PC1tTWKacm79Fzo0FEBCJJW2olRlwoE3OhNhk317MSJE4fUolDCOJfDK5kN+Grv/bim/3jsMLpJnTDp9EVJTZuunKRY2S4YCqF+TB3e2LoK9TWjsVPdZAUmxRGR7fUlE1jWvxFvYwsuzzyMa0Mn44DADqp7qwItGBUPYofwdAStWHy7/+uzHfhN/3OoCcRwYdV+GAtdrriUk2E51uJ73Qb9Mm5M/BPPp1fjtOh8HBaZqXw0ZN5oxknn0vifzD04Ojwbu+a0pkzWHeeCICIYDeO/cg/hwsDe2CUwXgnSeLx6GB25TrlWxH/Aj2ZK+iI/2YZoIrSjona6lT0goMUPSLbpLWCAe8lpv5ZjXZhF0OT95mFhW60/anou7rkL364+FmMDep0LTdknlp1mxkXOTUWD8F7vxH/h9/k1MchiE9WbuZlMW7kIOlHVFbPpOnP9OL7j93iy4XPDErGUQmJxTLSFtZv6UO5jspgfpZ/GVbFjEMwV1g06aUHMvnq9SzsP6XfwpE5NAm3xvAgCJH+70FgSu7hpEATE+TbpGIzEaW75NR03qd2gY6TcYzK96xKL0IUEPtY/X9Vc4Hdk8gQVVAvTztvR0YlkKqnySWSyWZVJUWhngiRpn1oV/v4s1uDm3OvKh+GNXDPGIIKjAzVYHojhG1XHIh7UtS+c1hnJmkQWtyVexZ/7X8bYYDUOj8zE4eGZmBYarUwUehzvjQq4lDU8kmf+mngVy7Nb8IWqg1EzYNYx2xMa9+R6cE32Rnwp/EmEcjyp6zoM/ElAyrX2VqAVX07fgetDZ6ARjUrQmKmwFbDr61O+NV4Om4XGRFMQ/5kZSeV+6Rf/5u+lRkqMhKaFniUNxBHaDM114wHl7Mei9Frlm3OZgz/Jhg0blGmB86XW+wC/qWgQyjkDH9C2BCD4X8RmdkJNFDNpzkjQMlWhn+y+zTVFaDHqN3FOcxLgeXugc4azl7Mb8Fa2GeeG9xxm4nCikxdIcAMMymEorZ3yTG0BhSsZsGQX5H2iCREAoFW4VJHn7aVec+iUlIp90+BDn9RMU5D+LKecnBobtVCwL6qtf9z/BL4fPx7h3sygnViAYkdHx2AefxmvOGiaabelXT0Gnb1RVM3rc51Yhs3YNTwBjRmWjA7gh9mnMBUNOD44G2MC1YOVBp22KdvL5HJgyuGb+l/Bxlyn8mvYMzQZx0bnYufAeISoj3A4WW6Lbe81T+V4ZwJpnNl5A/5Y+xFVqMlegzoPACubAnRE/EzyBvwwehbGZHWaa20iHFqae2V2JZ7JPYczg6cgHtDFm8x547i8fADcx0Y/EdYeSAyEHuqQV64D9kVAoOm3wBBCKVU/EpoVw1f4HpvH2bTl96b2ZFvPN30PPtV9K35QsxA7hXT2RvOiFoggXw4Z45ua1NcVgDCSVbOdPGtqEEpZyHxGGL3NHMz2/LS9Ir0ev+1/Gj+oPXtEkQvsj5RmdppGW6PAe8wT6B3pN7BDoAH7hqYMetLbjoluQl8YiIAGM/ywkDZBkj5xE8tpTHIAcCya4eTQ1duDrlwCgfBSjKvaGdHAWHW/E+1LYdginE16tLa2qlOhmfyGbb+UXotf9j+L/4wfht3Dk5Q62k9ugUJbyxQAbI9/m4mmBNAw898fcovxfG4dPh84ALMDjWiqGz0M5JjvorBhe1SR9+SSeCK1Ar9NvIBqRHBN7ekYHSD42PYXx0X6+S1G5Wfv2L1mRMe3eh/Cb2vOHFYzgY55jNF/6umn0Nzcgup4HGuPH4f9MQW7ZBrx9FNP4ZhjjlEOfIwaYGQJL/qVrBm9GhtzLTghdFzJoYxue/L1N15Xa4hgtLenV6nEJbER54x1NSSDugbVdPaNDa4Pv/Qc6QwL/zCBggB8nWytuOigUvpDk0J7rh8PJJeC5bwvix+Jj8Ty0VZD173eQxI2mh1wcqoAhFIov509Y5sYnHwPnE6ewshNYesGEKTNQoyOeon7e27ElMhO2D26d9GzIO8oFPduN6qRvo53lou/3ZJ6FXOC47BXaJJi5GSUklTFjbmZvhZCEzMcstCA5Fnph5yK+DdjtOXqSyewX/fV6MomsSAQxQ9rP46GkC4nbZt8BPR4mXjM+bOZivy9ctUqTJu6g0o2Zbb31Z778bGqvbFTSJ9IRnqZfSFDe/mVl1EVq1JhZzRd8OIaEwdY/k1z0K9yL2BxYA2ODE3E2S17YOaOM313hfN9Z+J1/CzxNB6s+ySqHVTxvhuzbhThZn7MvdTd3aPGYKvp3d5DwUyhWczVmu3BF3ruwnW1ZyMaCA0pc852CBBeeOEFHHzwQcpZ84ZXH8S9qbdwzrrpyKQzqvLm7nvsjreXvY01a9eCmiDOz7gZTbh7j9X4SegcxCIx3yDHT9+fePJJVZwoSgHLyoW9fcoUxQRntTW1Ctxtat6E8ePGqzVBh95FixcrX5e9997rPcs5IGORE7k+DGTR2dk16MBZuibFm1LLMq34Ru+D6EESl8QOwlHRWQgP+JYU5jNaS1jxQfCmceWOAQp4+SC4qd9sNZuTIDLt4ZJ4xY3wG7Kd+Gz3bbi7/t+GhOj4mSjZqFSZ0ompkArQbE8Ai2ki4Gc0MbyUW49Ph/ZVjFWAhJvTlQl8hF629kTe6yWw7fFStUpmQy3CsuBWfLP3AVwTPBkxhBFBUHn0m+lc7VONH/p53UOTB4XUpEmThmTS+2LPPfhq/EiMD+oaCm5lg73aN78XoEfhunTpEl3wJhBEMpFQJcHbOzrUHPNvFuqioOjp7UUyksWPo8/j3d7N+H7fYdhzx519q7sJEj7XfTtOjc3HcZG5xXTX8V4xB2kNztCKkfyMzoEyT5xfr+JGtGu7+Vm4dZYnzPO6bsLF8YPwofA0dZvW9ulqpgzte+aZZzB79mxlKnj4n8/gxX1y+Pf23ZDs61c1T/bZZx+89dZbWLduHU499RS88MKLmLvLXFwevBU/qj4PV/X/DY3BHtQHq3FQZC/sEd15SHdyyCLg4UhqPsAU6dxjfPf06dOxctVKzJ0zVzm8MmcBeUh7e4fKkkqwypP6G2+8gdGjGzB//q6qKW0+dDYdjmRixdzFeeCeIy1F28f9Sc2BmdzJ3IeiRSxFo2f3+areR/FyZgOuiB+NncLjVWhvsVcFIBRLse34fi+AMBLSmAjbq537km9hY64Ln4rt73VrQabs7HPgzDDcAEI6kMXnEnfha+EjMCVbrwSNn3h5G2iY3uDSaQEb4nwofXA7yfM5AgB+/2D6bazq24zzgnlVot9TqBPRzHcXAi6cR6k9z3S0ZJJ/YuGf1Dr8pOZEBAcqaPv1Wi80wUIHnrDb29tUrHpzSwuikYgCB0yHPaphFBLK/KCzMOqTegijx47BX5qfx5PV6/Crxg+jIZT35vZaVM+mVuFvqSVGWXGvJ9y/p7AQgcyfpiMq6ciwWxHUHK/MYbHg0auHTFX+td4H8OvaMwZDdeUZzunf//53lWacJgbS+tAjj0D75q3KwZSObZyD+lH1WL9+A44/7ji89dabSIfS+Oes13B+8BxsDLWjsaoKm7LtuDOxCONCTfhcfIF6xeOJF7Ak9SqyyCASGI0z4keq7wuBdwJ87gsCIgp6FlRj9kOdKp3JyXQaZp2LIazAAuef69E0L5g5B8yQYS96uX3PNpiSXS7yAzEj8N06tXv9EL8DSRJn8gBx3C61H2xrz/af4Z74x9GY1fkotFOzponT+iG9TWDCeysmhlJnYDt8blsChGLI+d3eR/GhyFQcFZldzGPqXnFI5O9OAMH0fnZq3H6GG+oP6UWYEKrHwqD/E6W0Y2oP+D6efMjcRO0om1b6K8LE3OD5NnKIxXSkw8rkFlzeez+uDB6FCdCndtEgOJmGzLF6fW/32aYTn2cq6nAkgufiG/HbxPP4n/gpGJ/RTm3lAAfyTjmd0cueAoyJmYQRamanAR9Pkbz4HU/h9KJnX5ZH2rFTZIJSrfu9lmSacU3fc/hl7al+H3G8zzZxsZ/skzh4UnvAdSCVD82IgW3hlX9H4nU8k16FH9Qcjyg0veQikCHNuLYIgGlqEJMbPxOPfHNtrMpuwp+zj+Py0NlDTCRbs524tPsGXFlzBuoD1bis6ze4vPZ8le1yWXoF5kfmKcdGveb91Qsx/U/YFwFTpN22oJXbxJtZIk0gT6HMNcooD65//nPTHLrxnWIW2/Op1Xg8vUJFKiQHHDq5fqQui1m6XHiKyWPkXRUNQjFU387vdQMIhU60fknmlxFQHXpl91/wserjsGNQ5z43ndW83sdTmXkysQW+V5SBE0BgXv/L0w9hTrARx4XmYFaoUdkZzROJeQInc5A+m/01tRTmpnW6xxSQ5vdkAhI2dV3LE8jEu3B28MghWe38CHjTLlpIu5PMpdGa68WjqXdwQ2IRVmba8IXIgRjbFcJdNStQFYzgB/GFaOgPoaqKp7t8wiG/c+41p/Z4KCDM5Fv83TyZO7UnQMP0D5G5ls8ErN2fXoqnU6vww5oTvLpW8HunjJ3CxKk5oKOdFnSMYNHhrLJ2t0XoHvcWcyFQQ3J17WlDwof5XvoiSKSAvebEoVP74OjQxxXYisW59fhwYNdhPhSLUsvw876H0JJL4sux/XF01UFFmwvdiCvqfH4vTqtm5U95rlzrz+wHgZSdiVP2O7UtBKfsizgB2j5BJp8w+apfjVEKGVzW83esyG7GL6tPxQ6hBtU9mj3Yhpg2bNrJu0wNgqKfilCpRDGMaKNvLw87AQQvcOAljIqlXSLXi3s7r8Kp9VciPHDq8+pDXphS/Z0c8spiAQIfdgIRTOP7k+TTeBdtODe0Ow4P7Tj4nmJoYG5Qc9PawsoGEDYDyeSyuCF1L2aHOnFk/ELVF7Fviu3VTVDabZlMS97LVLyPpZfjpuSrWJNtx9zQOHw1fgRGBeL4Vs+DQCqLhR3TcOKM/RTjJ+N0YtLFzr/X/eyryaCp3hWNAsfvXlJXh+kJncz3yPgFKP2k/ylMCNbhvNheXt3x/J50EcbNfgtAoPZABItKWJNOO6Ykd8tU6PlilxsoYC7qvguHRWfgnOiew9LwUtAIuJU8BtQsyFqV7JlCR9F+cB7cch4UEtSckSyyKrTU6yrUjrNDdWn+B07vYfsEdKxnIDxCfoqzrEQtCEAwx2P6HtigQfacF0hgsqv/7LlPpZ7/7+oTB51onfiPk/bCqf0KQPBadZXvBylQqonBaYF6ndT5UmHI5oZ7JLEYG9Ov4fyafyt6ZtxqLPg9SZjjMPtvClB6C1+WfFBlVjwwNE0xWPNep2I/9mYVBmE6broJc5M2g/0AwOJRP0k/jQfrP6VSqsqlAYguOMT3FKN9IQMiw16bacPXex/AoZEd8YnYfggbaYi12jypTvBMfjRu3DjlNEkVfzGhZWIbFi1MIS2GSV9bQ6RPtjrlszhx2toRUePzWWamlGx8JqiS/B1810W9d6pMg2fH9vC1Bv2sL4KY5uZmdcJj6WC+b9Om5sGU2tS+cAziXMsXj8SnxO74EBrm0vhE919xVc3xmDaQOtxcP1xDBAoU+OLXYYIEWZNsk2uNfffy1Oe6oiaO5punUivxWGo5JgbrVHheby6JxmC1ihZiKmzaxRuDtZgcGoXqQERpOpjIyr5E4+P1bl+T6HCTOa9iLhKtD78T4CcgSZogQBAtn+xBMTnIPV5gwAYNfN+qdJsqfnZj3UeH0UNo4QQ+Co2/AhBKXR3b4XOlAoThzMjbruikFejM9uMLvXfju9XHYXJQh7L5vUzfA7dn/IAW81kRtDYA4un66vTzKpvfWMTx5dhh2AGjhghkGZ/JEJzG7KUdMcGJ9P+5zBpcln4AD9R8EmMixdSYH5rsRtruQD++2fuQKqaUyKQU7b8aPRzTQ2N0OtZ0Wo2NQIDPSFgeAYKcfCl46URYDkcwJ7Bg0pPvFBMDhZhoFMT/QZiveark6U4qNjqtDxOs3pJ8FW9kNql1aF5+gIDb2uvt60VXZyf6+nQ+B2oGSL/qmhrldEmTA0MeqaKWHBOkqRYsQ1s1k3sxrq8UmrPq5bX9/1Agwen07iR8SUOpf8AeiUOgl7DbkGnFhd1/wcpcAl+sOlQBT0bdNAZqlJaQwp+aDSZ06sumsTzTik3ZLizNtuKV9Hr05dI4I7YrahFDJpDFqdH5aAjo6AH682ifiaEAoti9LhS2Dy3m/iNIooZSwAHBk6SCNhOHMRLEXINsu1gQ47TWHkwuQwcSqtCZCegEsBXilW5+RxWA4FfCVO4bVu65FIZYyjMKLQ/kD/9IdHfFQPxe3MCiYvbzjHmqLsTY8khcZ4u0fQqYnKc5142tuT5cl1mMqyLHDua299MPNeYSqsTxmf9NL8KeoUk4uNp/jL9Tn9RJEUlc0H0LPhrbE/tnJ6O/p1d5/AcyOeWISEHc2DgWm5pbMG3qVFWoieGEFHCquuLWreoU2dg4zlW9X8qaEEbtFBLLfpNZC9PVZX+1itqcU/md99MDPhyO+HKgZPIphjp+bSB8zO98ejHolStXqvcTBDBUdPSY0ejr7VM1KhgW2tnVibFjxqC+XoPjcpsXzP5lkMMxHb/Fn+o+iknB+sGvKHA5X4UEmheolcaYlfGnfU/h0eTr+Hb1AuwSnoHaIuqqcOexJsu6bLsCDL1IYWO2E3cn31SgZsfgGKVxiATCaM/2Yn5oInYONyldQ6kAYajgpRZO59ogONL+DppbERwIYDadcu0Kl35o5bevL6bX4KbEK/hZzcnlWJKqjQpAKBspP/gNjVSDUChPgrkJnATziswW3JF8XWXiM8uTFqI63ycqP7+z43cz+m2PDOCy1AP4fPhATAk1+M67YLdfqF/m6Zn3/S79Eg6ITcfuuaYCNnfvEaRyGVzV95hKr/vdmmOVWYKlYGNVMQQD2hly69YtChCwfgKBGJP06GyZAXWaoiDhidcp9bJ3D4beUSxgIsOm01wsNrQao92OaD3YV6+TnJy0lqZb8MvEs7i06jDsGBpT7FBc72dfeOo0VcL8XTQ1fJB9KKd5wREcIofzu27G16uPwjwjJa+uZshTuf+oD7fB/jXxCu5KvoWra09VKbC9Lr9AkocJphRmSXEmgWoK1ikg8VBqmcoF8L2a4zDVMp14vdv+3jTNcb2vWrUSkydPUZoeggSCUr1WdLQCf6cmg2XDzUsOGl5aFj/9eyezGV/suRf31l/gm0d6tVsBCF4Uqnw/SIGRAgQ3UpoM21aZyzOvpjfgkdQ7uDR+WFEzIupmW6VfGFhIzQJvUwjbcRI4Zvs/TD+JBcHZ2Ds0uaSTi/TdLYGUDRBoCohmg5hZO6EoWpk309/gh32PY22mAz+uWagK+PCUtGXrVnVSqhvQEJAhTpgwUYECsfPz9E4BxhPUSE65tg8Gx+klwEsesM8HTVXs4vR6/L7/BXwxfghmh8b5bMH7NtKSNDS1UpJpUwsaVki0Uz0HylKCWHrH+b+g+2b8uPokNA0kt5Lv2L+RAIQ0Mrin/yUV/npL/WcxKpDPAOpNHf93OJ3OF6XX4Y+Jl/DlqsOUiczrkrVsF1SS58S0tnz5ckycOAEbNm4E83+sWrlKAYKJEyepPBHTpk9DfV29pcES/jK8Zo1Xv5y+ZwE7+o7cUneeL6dOP++oAAQ/VKrcoyhQKkDgiUNUvH5JOQQ0APhd//NI5DK4JH6Q3yYG72N+eCk24+dhOa3bP92eFaFhgxA5FTybWY27M2/hM+H9BkIgtdHYj3rRBCAiIOV0ye9MNTk/J+PmSd6tgqOf8fMeamyu7X9OhfKJDZo2cZ5umZVw1KgG9TvfRQ2C9LO3t0dpE+hvUM4882420kLjkTVkPmuDOQo77TORN0P4pRHveyvdjP/ufxKHRXbEEZGZqEZUeY/TMTQ0oiohUCBB/DskokGqWXJM4vxmrrty0fzV1DLckngF3649a8TVUoXmyzOb8XhqBZ5OvY1GZPDdmjNRbYGPYmjvdq/sDzuXiPz9T9ZxSTyPb8UXYEKQQtv9IKATMRF86WJQvOyiT3TKXbrsbVTFCKITGDN2DLKZ7GBWR5qLpk6dqlKAc/44dwL+JC9BOcZNTR8Bwu9qz1TZU3mx2iuTSEkCqULvcaJDBSCUY2a2kzZKAQjFqoWdSPlQ8m18v+8xVblxnANDkYXNE6sWjtoTXS72wY8fghlqVIj52OpAU+thCm2zDYY/XpV8HJdGDsZOAV1FzQlQeGkjRCVpOktJOxQitFUzMUwxEQNmP+k78UjyHVzR9yB+VL1QlTyWi+8kKJBSsGR8Y8aMUZqF1WvWIF5VpRggTQr851cl/F5uHyegIevDPQSycA9pivlD4iU8k16JV9Mblb8Mwz4JFNj2f9ecqNTcI7nsqA6zLYnc4Lu88j049YHPMaySworPJ3MZXNB9I35acwomBHUcfalXKptCc38zvpX6O1Ygowp1XVR1IGaFxpakBi9kpjQBt5fKnpqE3/e/iF/WnuKrNkEhfvDMs89i0sQJKtX3Cy++iH332VftCVVuPRTEiuUrsOeee4AVJc39q9vUkR5O6bG9xuDUJxbd+kLVIRgdjCsASQ0fD2d2iGmh9SS8ie+vAIRSV/52+Fyx5Z4Lhab5JR9thyd3XYe/1p2rYuy1AHZG/NyUkqLUtnnrzaIrzXHhS8ZCv/2Q+/Lqfu305nSqd9MMrMq24bTEjfhO9BgsDM4Z7Iu0I30z++QEsEytgXmv2NBNdWih8dn9JK2/3HMfMoEcvh0/BmMdSv/y3QRbVKWOH8eEUEBHZweaxjcpkwIBBLUX5TwZFTtHhe43AYKp+ZHSwbJunOjuBXYlZl8Uxiwb/XJ6Pb7d9wiurF6AfcI7lHMoQ9qSKB1qQiRrpN+X6SQ6umw2525ztgeX9NylHBQZQljKlcj14+XkS3g48QKacrU4JLwAc6pnDKsWWUrbsv9NE4zsiWKE6s/7nlHVCS6JH1xKNwafIf3IWwjQ2Tc6u+oqnPoWnX9Dlz9344mi9eCz+qCi/UyKvX7f/5LKMrtzqEmBPmdzlP9WKwDBP622+ztNDcJ7dTrkHtua68GYQM2gwpabjFnd6PBjbiIKJzIIrYalH0F+ykyA4DSRbloBEdqyse1Tv1NbpiBhu3mHpgBasj04L3GL8tb+bdVpGJvTzlluQr9Q+9K2nEo4RnrA+2WSJkCgUDiv+yZ8OLo7zq/ay7GwS15ln8Gm5maMGT0GGzdtxNQddlDOWOLNTcZEEMEqf377MtLN5Xc9Ciiw/Rv4fhPslbPf7dk+fK7nDhXX/+HY7hiFuArZW5/pQCKQRnu2H825LuVI9/mqgzEm6O2w50QvcQ41172Xz4akBhZzGgFCC3pUBUDWZXDKL8B3J3IJtGQ24h+plVic7cLGbC+SSKtx7Ld4BY7ZlMDE0y7E1MgM1ATrBvOBjHSe82tWAxpZ+6W0uzXbi6M6f6PKd0uRqmLb4TriWpeoGQpkgoHubu1oyou+CLrk9PBcDfI+2xxWqqmIflpMG75/ZrICGnr+dQrvYsNd2XsJF66Uey52ZWyH95diYnAjUymOTsLcidh52cKQzE5SmHLT2mo1MwWvU7+ckhjxvhUrVmDmzJno7OxAQ8NoZddra2tX6nW5nAVUDuvWr8eUyVMUSGhtbVXq58bxjfhB6ikcFJyGD6UnI8nEQumMKknLE4QTWLFBhOkfId+JI5tbxjpzzCY4aM/14Vs9D2GXyARfBbAIRHjiZllfhuCR+fHdzDVPRsT3s6BPbW3dYHKicgpct3H43ZJyWhNAYDJpEahOJhy5z0vo8j67qiJDI5n8h/+IdHcLTlSx/XWBmKpwWYcqLMu24PX0JrTmupWJ4pjIHMQDEcXYGcZHxj8KGcwJTUE8yII7QzVpYiqx1diFTCemcOOYCa57Ihl8svtW3FR37mBoLlNqP5d6C48lX0Uy2w4aUs6OzENVsAE1oSY0BUcpR1ZqHMLZHKqDMd9+R17gzgTlUriMQk/mYSRra2mmBR/rvhnfjR+LBdG5g4cQL22RAEq9JhhWS42BBgTirKtNPxr802/H7ZK1Jryr2GqcZruLU+vwSv9anIVdEK/SRZpKvZiNNTfgd1EBCKVScTt6rlwAgRtJKphpdRrVct5hUwIqNFBQ0cxDqE9mJ5uM9+qNNpSJSvU8p2kToWsLIAKEuvo65YXMML/qmoETHvME0GkvFkOG3uUsFlQVV34AtO5p6YMAACAASURBVEeyDyxHy99pk1+6dKn6yee/jsdwZv8c7FMzHV3dXWgY1aBK0zqVoHZjgDYTI00Y1udVEtgUiC+l1+KPiUXYRVXX+1BR3s98f147ElQAge8m3QnWOHb+PmHCBN9e727mmXJuM/ZZMiPqk5WuYmcDgJGYyKjNYtvF+jUwrfDyzBbclnhdgQMEdPZKhuvVBMIYk+tFX3YT4qFZ+HjVIUoo86ITLk/UtnDRVQ1lLww/wQpAYBuDAjcSwhf778XFVXujJxDEO5mleCa1FE3BJiyIzMOHovMRGXhvuefF1gjI3NgmBK2tYmpqrTG0wV4x/Vqbbce3ex/BLuHx+ERsf9QP5GLwAxJkjRA0c84lI6L8TCa1k6OYH+R3ti33lLOA2epMG/7Y+yIuDRyIkCofHvO990iz9dkOvJzegOfSq5QD7q015ytSVgBCMStqO73XBgiygQqdAPxsMj/kJJOj8CuW4ZptcxOLV7LTO500CJqB9mLzli3KthsZYPrc1IlkQuUDoBf/mrVrVSlcYXD8yZwABAti9mA7zA2wIdGO39S9hq9074dIIKjLryKAsWPHDNgftbrbZo6FTiBkmBTO4oPhdq8IwlwAuC3xGh5ILcM34wswLaQjEQpdTILE1Mm6rkJsUGXJuaFwkneT8REg0DehKlZVVKhjudZLoXEIQDXnyn6vCCQnp0Z7vdvAUpw52SYdRv1oHLxob36fyWVwfWIR1mU78KX4IagNxAdDbXW4KYEC7eHOKu0t2V68k21Vz9+eeB2RbABjUI26QBRRasaC1Xi7rh+PZplwKIyDIzvg0uqF2DHUVEw3i7rXNuGZGjKncXB98Z9oy3gwsM1GxWgW0rksru5/Fnck38D5sb1wZGQWZoZ0MTinywSV4tzMfUF+IWCLc9DXlxh8XNYY9wf3D81yfg5Gbo61TuOjNvDLPX/DT3Gc4lUIB7E4t0E50HI1xBHBaKatDo3D1GADxgVrlBlpWaYV/0itxq3JV3FcdC4OCe+ovm/I6RDUCkAoajlvnzeXS4NQLPXE+VBy6Rf7PO+3S+s6AwRdhY6XufnM06UbGGLGQAICzejyWgsngdeGPnw9+TAuDO+D2cGxqIOz+pGMx3TE4u/SnpyY2E8yR6+4dKZ/bs12oznTpYor/T7xEvaOTMHX4kcNnkJNmjiN858vv4y5c+aAaYF7e7Qz4patW9A4thGhcEhpV+isuGXLZsW4CYaYVInlZskQJ02aXMrUbZNnJP2y0E3Ajcy1bWooLGyGx7GLsGA7BAnlvjg/f+l7Aq+kVuDimtMxJdigQCZDUblOJGOfrB8Ca0ao/C25RGUvnB4ajQPDMzAjOAY7B8ejDlH0IYVN/a2gM204VoW9UuOoL8cd2WW4I7AMd9ZfMHi6Lud4zD1ngi0/NLf3l+24WAxI4Jg2ZDvxl8TLeCC5DLWBKK6tPUP5jjhdpuAWbZqYP0VTQPNDIkEtguYJ/JwHEc4H+Zlfh2Lz/YVAdE8uiQ933Yg/BU5HpLoK3+x/GJtzPfh+NVNmB9CHNKhlYMVO1r1II4dlmRblP3J+bG/lA8PoG14cH+teVABCOVf7B7gtvwDBCfH6JQtteRQmxW5sp/ZNISde6mbhFFutLBvPtD+7mR3cAIZphxSg4QQ21uY68FD2HbyebcaPI8chahRUMtsWwUWAwzHYdJE+U1ibcd/ybia8IbO7pv8f2CXchF1DEzAnOB47hccr+3cx16uvvordd99NRTB0d3Urcwn71dAwaqAgU0glUqJAZC6Evt4elQ+BpiCaYOjMKJefNVJK/oxixsM+cD2QWZumDVtgubUpZgo6qDmBALbJ9kdiB/Yaz5L0Bnyn/wlMCNTiivjRqM0NjCWrY+DlCkXDuLD3NjAkk0KPtQq8LtKBDqdcV7eFlmAtOtQ7Rnq5mXT8tivPO2lmuOdTKSZyGl5/wa19J4FLw85zqTX4Xt8jqiDZqbFdhpjf+H2WGSUHKsqKQKWZje1R8HPNByJBYgTk0plBR01Jp+13vH7v417vz6VxWtf1+HLkEFyRfEhpCq6rPdtXRg4nk1olisEv9Sv3IajQr+S095dlsBSykeE6RSKU0hY3q5kDgSo9mirMy1RnmqBBhKz5mf29Uzt2P0WoD9VEaPXvVakncGJoHnYLemc9JO2pVjUrCxI0iNlFTAyD4CCQw+e771JM4hNV+6nICVE6i4DOZ5qk5iOAWMxdcHR3dynHQyaG4Qk5GiXAIH3TA6BO56Xn/G1t26o0CzQzsH4AY7Htcs+mNsRk+uZ8FDPnxZonCvkYmCpvJ7s4PyPtOR9yEhyJc5mfcTqBVT7HBDnvprcqFfmabBtCgYBKADQB1ZieS2AqYvhC6lV8s+YELIzuVFRNEFHlU7vwjexjuLL2WOVUOZLLScDTfs930enV6/KaZ9JJR3T4C9EsBFYpcGnO+Ud6FS6LH4k5oUY8lXpX5VCg4+ne4Sk4Lbor5oebFBCgSVHxnDBUivWl2IzJwXqwHPz03GjsFmxSVSg3hXrxZqZZOaTOCjZidqgRu4caMSc8kZkRvEigvk/lsliUXouH02+rSBgWEKOWgKG1Z8f2xNnR3bFvZGrBhF1eGpcKQPA1FZWbSAG/GoSRUosbTJwM3dry8nyW59iWqJPlMxHY/EnhJh7RTloLbcbVqZedwIPZpn2PrS61GVtvLoWvph7AZZHD0ZiJY3Nrqxo3wwMlPEkcsdgHttfS0oxJkyYpkGNqDPg71ctM98pNv3rNWjzctAl9rR347MQjEA0P92Y2y18Lo+Dpxo6CMBm6psFQlbokTxJbLE9RZCyZdAp1dfVlzag4krVlagkKnUJNpilgy9YCyfP8nOPn2AnQnEDgSPo8FIAWBuU8QfZmk6rAFlXNTL3bl21HbQCoCY7DjNA438mJOCbRtomp6+XcRtwXfgc/qlnoux2/Y6dqnr4T1B6WS+PCPaJV/YUFrhfgoLaAjqP3JN/ExmwXdg1PUJkzWT1yVWYrnk+vwSuZDYghhP1SEzE/0ISfZa/HlMBsXBw6Rtn9WWVxSa4FLbEE6CdAP4DdQhPBSAFGqDSjG6HUW5ida0E0uwmpQAMaIrti5/gpwwAD5/Xq/n/g4dTb+GRsf9QEIthhwJ9gbKBG5TL5avWR6rORXhWAMFIKbkfPmxqEbT1sPypov32QksNiwxdBxufJHLSDnRbAphCx23dj/vzcdnAsZCKRdm7OvKYchD4S3k1pOTY1b1LCZuoOU7F5c6uKiGDfx48fp6IbKHjb2ttUNEU6k0Y4pG2YDDecOGkiOjs6dDrYANCXSuA/Rj2Bb7Tsg/3n7j4QB63jxuWSiA5T2Int1GTShcbNtqgxkMgJAhyOo7amdjCioRzmIj9z7TR35thE2Mu8634N9x8wAYKsFREi+TWinzXNUX5PrH7GUsw9piZG0gGLUCQ4Zr/EY17bwL0FJk0LNqBKIYsfBJ/BJ6v2x9xw+WpP6PnQCdDKdalTfCqlHIslNbLTOvQCB079kTVlzj01DWtybXihZyXWBDpQl3kAhwSPxpzgoQOaOQ18/OyFdC6FZK4Xz/c/hAdRhY9H91MhrtRc3JV8U2mMPh8/CEeEZ6mU3vb19+Qy5AI5nBCZN2JyVgDCiEm4/TRAxkKQ4LSpStlobpQrJKRLobatbTBPziZIIFN1E4bc2E4OjKawMRm19NNJXa4YDIDPp+7FN6JHoSlQq5hZc0szcgN52lVFuGhEgQDmW+AYaEpYuXIVUAW8WrMK72ay+GLDkSppUTaTVqd1goXOmiyuTD+GzZF+/HzzYdh11rzB/ApDAQI9rIdqRqS/1CK4lVIWwEVwok+ZOWWa4LgY6UAHOal574chljKnTs9wfsz8FzKX5k+zP26CUoNGbXKx1fpympafvFfqJAgAkXeYBaxsOvjVgPmhTaG9x++43jlP9JqPxaKeAIH3S/pm21F2XaALPwv8A1fXnOYonPz09724h/NHsM09Iz4m22ItmntegANp91Ty1xgXmoVdY8eVHHlFLvFk6l1VlZKahonBehwamYH54YmuZiKuqy2ZXvys/2l8u/pYX74HheajAhDei9X6AXlHsamW30/DNhmymTBJPhcmbwIEG6jYDEY0B/nkLXrEcjK1M5eZjHxTrguXpR7EH6NnDDgv6Wf1iZUnKuZ60FEMur0AGK+9Od2DP2YexczsFsyMHos9chPxaG4FdqmahC25XryQWo3XM5vwsdg+OCO2q4qP16l3Jc5fH9Mks6TbCZv3MGmThGEJLXiypEOkCGPeJ74FbHPzls0Y1zhuwFt7+EnVPpUKvfwCzEL3id1Z5knGJuvQZOZm1IIJhAQcyPeiyTLpxPYlj4eOb2f+CZ1qNw8uoAQzfS9K9VYv5/4RoMA+Su4HN4FJwSrjswFSVbwK30o9irOiu2HP8PColFKAT6EDQSntkW6qDoKqcRApm8nCaz7MNfJi/22oDzRgp6oFXo9tk+9/13E5zq2/HNWB4vxFzD2i1nVG+2tVwhy3yTR9sBo1AUJeEJZ3jKbNv7wtD22NvgdkIBK3LN+KYDAZo6QbpbA0ExmJn4AWDJK7QIciCjgwVbrSDt/1SGY5Nua6cX54j2HDTIAez0AklxewDFM8LPE71AWrEMoF0JNLoCOXUHHMH4/to0DBqGAVzovupcKyWNTKBDvmfPFzSQ1biMa8j+msOW5hfuL5bzscsh1+Rw0GzQ0UjtQi+Ln8ggOaRNgu3+0nH4b0mfMktDfDQbXw1+DLVBcL3UxtAcdh0kBMMTI+E0jwd6ETn5GYdz+0+P++h/2lKUuycpr7gL8THNJm/l+99+MPtR9GOODPoa6YcZXTvFjMe4u51450sZ39ftt7I+aG5+Lw2H7FNFu2e1/s+V/MiO6HcZHdimhzuLmtAhCKIN/2fut74aRon1i2Nc0LZVaUd4tQMQW8CFxbCHv1V8b3+eQ9ODS4I84Mzx98pB9pXJC4Fe1IoC3bi0+F98VYVOPe7BI8nlmJQyLT8Z3oAoxN6PBECmI6HzoV1LE99M2/OQ4KWrm8bLMcozgu0gzD/AZUo0pon6mKX/Huu4gO2FonTpw4LM7bFNoCKuR5L9pJCJkIqmJUxjJPcsLnu5TJTGls8mYWU6VuanDExGSDGbvvIih4n2gU7FNZMf32okm5v5eMgEIfjkfGIep6frdP+y/w0KhPYUygtLoRTv22he5Ixlaq5qGYd8qekvmVvc2fdyffwAPJt3Ft7enFNFm2e9enlmFF7y9x6KhfDss4W8xLKgChGGpt5/e+FwBhW5DY7YRqJ09yAidO+e6Fecr9xYAE3hsMB3F8zx9wbnh37ByYoBKyLM5uwJ3ZN3FubC8cG56jPJ2ZK6E9R9iQRTwQxkHh6Ygk9UldTvBOfgLsn9OYTRWopK12KoNtgwsBQwQJprDjs1TlSly3pFhmIS3mQWC0hYArebcaf9A9Rl1sx1LTwTQXECDIxb74qTlh+xKYzFzoJONzWnsmsJAxSHIbU+sg/cwLOZqahia6kveYgGpbrPdi2mSiq7Fj8hkD2X/OqdYehZXGTEACfUtoYho1qh4f6bwR/1NzqmPIIx0lNUDyr10oJzgoZvwjvdc2QYlfy+U99+D4yHwcEt1xpK8o6Xn6L1zadT3Ojh+J/cJTS2qDD1UAQsmk2/4eNAFCMWphP5n+thU18wJhaIiYn8yKbn0yx659BbQK3u/VHUrh37v/B6eFd0Mz6lV2s3mMhQ40YlZwrFLrm57XJnAhQxLh7vfkbfbLnjdxRrPvsYWmPYemJoA0aG/vULZe/mO4JbNKOmV3dDMhmfTjuMTBTIQxxyxZ6tg3tl1shkLps6QilnfaJ3r9ed5MZN5nOjaKUDM/0+/Q/iN5s5MWmKKxEFrbGTf5OUGXH/OJ37VW6D7SdOmypZgze7bKgsm8Fr19fWhsHIvNmzerfjCVOLVsnE9myBTt0VXTX1MJl0YHdQl2r/VTqB/23JdjbNuiDRMcs31z/s01xM/v7rgECxt+huhAVkK//NJtTRbaw25jfSK1An9KLFZATmp2FEuXCkAolmLb8f0ECHR6W79hA2qqa1QmsfHjxg9SpLOrC7FoZOBkF0AymVC2bsYjk+nIJbKUSUXskyArHtbV1aoQv3JdTupGN4DgrEXIhz+yT8LstTDQ4Vl+TSNE9j9L3ocxgQm4ILKvA3Ol05/OJOnGVMxT8UhVqTZAcGLWFMZm2CPfv3XrFlWoakLTBCX4NmzcgOp4tRLi9FlgWmU7SkDTbWgZbmG0tmaB88N/IizNokJCNAIEM3zPSwhxrOw7ARhPt05RDDaDFlDhBMbYlpNGxNZasO98N2lo+27I/GnHWV1wyW+xrZHuj7a2NpU2m/UySAupQEkNELUfGhTqz7ds2aqKjjGleHcggW+PX4yb6859X0cyjJQ+TqBH1gO/E1Bgr6OObB++1/l9fL/hmwghX4TOj/B36rMNWE0w4mWuujXxGlZkN6skT25tF8r2WQEI5VxFH/C2uBGSiYQKx2Oc+7K338asmTuiublFheJR4POkwRNUV1f3QPx+BolkSj3Hk4hOeRxEbV2dcmhj7n55jidPpurdad5cxOPls206oW8ycdMO7zV1wshNcJAHPFp7MDTqQH9rM4VEtgePdP4njhz1E8Qd7Le2l7nJAKjutfM12ALX70lFBLPQQPopP4XpCTjg5+LZ3ta2VQE4gjuqnPk5ndco/LTnPjMyDk/jbDufmepZN0bHNcO2RPUtNBczBUGC3zETsBLQSWy8+B/YoE/eQYEt4YFOp3ozo6UpMGyAYJpJ3MbJd+kxuavli3XS9FrTrLZJP5Hm5mY1f5KcrLe3BwT7zIRJTY5OJV2t9nQ8XoU7M2+ha2wYl1Uf4fWKD9z35n42tWjmQK/rX6TSmDOKaFtcer3nazu49YPvZv2Nz3Xfga9UH64yNpo8y97rTn2tAIRtMYMf0DapQaDwJ6NqaW1FV2eXPoUFtMMcyx5X81QXDKG7pxuRgex9yVRSnSyZRpWqzAlNTQoI1KoiNgHU1tWir7cXTU0T8O6772LGjBmesdqFSGwKDKcTNr93sr1Lm/nTotYQmKdq8e52er/pk2ALglQ2hVQmhRVdy9He+SYOnna2Y9IUvou2XhFaks1OKiRKyJzJqEz7rSmovJah5IMwx2fSQKmYB5Lq8B4KitWrV2P69GkKIMh4CfrEP8HpVC5t2oJTbNsarDDrXd5pUOaNQosAkgKUJ3++03QsJD2EXoVOU6Qj1y1PxSZ4MU+E5tj5uXZg1aYBqt+HmxKGl4gW4CXz4HXC85oj83sxs3DM5dYy2ECWc8P51hEsGCwIxmyNH+u6GV+IH4x9w/naGsWM4/14r9P4Zb5lf7HfsvYKzautTbTXmJdpsFRNgxtdCVg25DpwefyoIbcQ3PMiyHYbTwUgvB9X6/u0T6ncKsTDMwfUqjqePocskNMJZSQjIRc4f9eJhwYGQ8SbzWfyowDgPYVU6duKDBSMToLB7X1OZaC9+mZu8o5UF25YcTP6k72YFh2HM+d8RJ1inQSzgBuTLpq2usokv+dJ3QQjtuCS+wsJa2lLCkCZGhL5XWoLyLuoOWCbrMdgfidtiVCUdWDTyM6PL9oY1nZYtWq1Wi8zZ84cXBcUUDpNNoV1Qgkrts3wSfaFiaHYBoW+mWuApawlYCswUEFP5lvGS5Dg5HsgtOO7CTxMGpIu1OLIeE0NhAmkbAbvByT4FQoSglgKQDDXfCEhpfevjl6Qi5oEPpOJBPDR3ptwU905qrbHv/Jl+hCY+0vWpdDIBOA2GDdBg58TuRe9zMON171O3zuto75cCp/uvg3/XXMimozKlFzjPCix6JpbWyw4xauSB6GU2djOnmnt/Rl60IeZdV9n5Di2dv8Ey5JPYY+GaxEPvr9OE4U2Gr+T+gw22ren1P6+2PvXZDtwYt8f8FucgP3is9QpWQSG00nDzLVgCiBTCPN3ggSbIfkVMuYYnZwU5V0mg+TvZCYdHe0YP75p0CfBFH50YKOGSfwyTA0E23RiruwzT/dLlixBMBTEvLnz0NXViW7lyxBGvCqu1NorV63GpIkTlNCi+pvvJQ3a29oUaCD4YPrputo6fL/ueSxOrsOkSDW+Gzwc45OjlSMpfWZoGtPaiIjSCkj/TQFhC/Q8WNMAwRSuIkjlGRHCJmDwCxBMcChzNFKBYa9nrzUifhW2g6mEA7eG+/Dz5DP4UfWJBYsAFcsayz1Or33qRhdz7ZthzWxPzFrm3JjtOM3f/zcd5P1rMm34Uu+9uKnuXEQG/CLstTqMJjRRVBIlFTuF2+/9mUAP1vXfgdbUIkzObsS4qjMRqjoZkUD5691vSyqbAMEJEOjP9BnU6ZTvhrbJQB5Pr8BPU89gUqCOihW8kFmLC8P74OLIgUPSnrJdMuF8oiZmfdPREKawkXeZWgQKXjPGvlhhZDI4u5CVCUREEAoNyCw2bNgwaAIyBSUFJzUBtmAznfJMhiTjpEAiQFi5cqUaf01NrUrUw5TA/YkExo8bp4Q7P0ulUzq/fjCEAJNcJVPKbEWfmER/Qpmq6qldSHcjk0gh3RTDV3pvx8WRY3BM9Txl5mJInwnQTLOHqUq251juM9MqmydNL8Hr9b2T0JE5L3TaL+c+Ec2BCEIzuZTMHQsOPZ5agYuqDhpxGt9y9n34Pi6u2qzMj8ypuQ/MPejVZzHNUMPjBxg6AQyvd5TyfTKXwYldv8ed9RegBlHfTVRMDL5JVblRwhzTWTqiZRAKlC/S4L2kbiGAYDMDL4Aw+H0AeCq7Er9I/gPfix6D6YHRyCCHTyfvVPkOFoaGFk4RZqyFgDbHuGkW2CfzRGQ7zHmZEtyYUL7U89AQTROkyHv5GQUsGR/V82adAQp2rT3Q7Ygw4bM0pUSjupKk+bl9YmRf9P3MVqnrBtAvgc+L9oKn/nQ6pYCbNhPpGH3+TZrQuY60ZP8YDcM8DJvT3fh46kZcV3ceJgdHD3ECtJ0mzT6aNCd9xUFT0hR7nRZNWtjzaqvv7bUvdJI+5DUY5almZPfNXOOm1sgsZS19XJJuwYOpZcoHIfC+hgilcRRzXZrg0Qa+bnNGAMu1bJuA/IAFe0+UNgLnp1hM6kMdV+OJUZ/FqIB7SXf76QpAKOcsfMDbIkDQ3v8pX0Vfyk2OUjaQWxiggAQyf8mnL6F1QxlyPh5exsPCKe3ox2gCpFwOz2RX477MUqzMbsUXo4fgwGA+McmK7BZckXoYHwnthlPCOw8jiZOgcQIlwrgpoExHKVuV6sTUzJc6RRKIXd6JCQr9KCx4im9qahosA2yCKVPoiKAVtazpFGiaGcz5NE/YcnJ2Az6mv4R43ss7Gb/P+aSfApl1VXUVvtbx37i09gI0hvIhuWYf5XehnUSGmEzdtFd7rev8GJWIV7ebWiGJHCGocRMcTuYYsx2vPhT6XtM6ryEz++DUH3NuWrLd+FbvQ/hl7akIwX8ipJH018+zfjQ0Yj4RLYHsHbd1ZrcpwM2+3wS+EsUjIN5Pv+y16Ge8fu+RPUY/BAKEp0Z9DvUVgOCXfJX7iqEAAYJ50vNCxbbwKuZdbvfqBZ9nvF5tFpMnQECD3aaEL/Jnc6YLV6eeU7Xdp6JBxYGzSNK3I0djfFB7A9s5k5ZkW3BF8mHcVnXukKb5PmoOTGfNoe/WtRBE0PI7p1OvPFPoO2FCppDRYC9vFrDHLYxUGOCqVavUqdyOAijkK8G+s9KjlPI1mWz+pMw5zWtQzBO0zYz9zKcUoiKTXpNrxo9778Ev6i5EGMNL45pjtnMvOJkcpHaD0FNoZNLX/MymKR3D2C7/OeVFkDk2tQ7ymV4v2nGwnHtLwjXNdW722xSArBPyka4b8WflpOhPVW3Op7Qre9iLh3jt7/z3Q02CdrsmgLVpJ+Db6V0CGmUO+NPMDirPUJvFi860NKsVo9XzP8bS72Qtl3ntP8brDZfqg43Pq6JB8Emoym1AqamWzdPTSOnoF5EXek8hITM8gVIAoaowWrM9uD3xGq5PLMKhwRn4bnQBmrPdeCPbjMNDO6p6CMJgTSHM39O5DC5PP4TzQ3tidrARVdARDLbvgK05oACxHaMKjUtOhtpJUEeWeN1v+yCYjNQO6eKJnIlymDDHbJsgR7z78wxTZw8Us4FpFjGZrrk2TJo4aUL8gANF73QaLMbFhFOPJB7BjPAMzArPciWFjJmOePxdIiLMMDehra6MqS8nhz4bpAkN5H4x0zhlmTQ7aLdjC3Hem18bw7VcfveZqakQR0QBgOb6ZHuKBsEAPt19O74ZPxo7hBo8X1OM5sWzMZcU4kJbe706tee0rpyBoNaOeGnk/PT5/XBPR64fh3Rcg+dGXYSaIqJPKgDh/TB7/yJ9KBUgyPDyp8j3fsDFnLiEUSaQxgPZd/Cn9MtKUfy96uMxNzwO4axOGOV2EjFPXDJSlnf+3/QivJbbiCMCO+Izkf0RCTHXPeP/hztDmlEKpjAWgWM+I58Vy4wlD8Ig8zcYsAAMcyzMR8A5ZJijfC/mABMYSN9M4SihmbYQFEFnCt38evEGOU4rSezA/O6BwJvIBsM4Izq8aqbZZ3Euc8qTYPZHaCw/xTxl98MEWvKdHwEmc2ECYfN3obf4MeQ1DXYqcX2idaqHIHMq7QpYoXZD5sPMnGmCzWwuh8t778UnqvbHnFBT0RvZXBN+HrbvdwJg5rq3DyMC4oaGqw5fVyY4l99tLUAhDZ1yng2F3neaA9KY/gef7rkN80MT8OX44UV5jlQAgp9VWrlHM5sCRXaKIZHfk6BXm8UwGz/vFMbJE+iGXBd+mHwcR0fn4tDIDIwN1iCIgDqd8p8ZRcB+6nTLVJPr07sUuRGGq4VmFs2ZbtyQeRmPZpbj4vCHcEJo7pBcENqkMFSFLEzP7TQjdNBqzqE270I0pC8JHQFt4a7Ho0EL1/lvWQAAIABJREFUT7xSA6GjswOjR49WkQCS48LWetiMVoSLUz0OoXehHAIyNreiVE7j4zMEP/zXXxvE13sewE9rTnLNR8/7Oae838n73Dxl28LafL8peMUsZAIsU3iZIGrLli0KKI5TERu6umRe8A/kGxmY2/xca4dQU3iba1xn3dTr0Y1GNvAU04doJpy0UAwV/XrPDfhU1dGYEZ7itUWHfG/SzutBc5zm+ufnAmhE+Aut7TZNcMB7KMRN4OPWBxtAmXQytUqyT7nnuEeKrQ3iRYNyff/NnoeQQgbfqzmuaMfSCkAo1yxsB+2UCyAMJZW2HfoR4DaJueEZdjd16tQhKu9S2hoUksjhjuQbeCy1HP8W2xf7DDBBYehkOuKHQUbipJ40GbcwG2lfmM272a24Pr0YV0YXDAoE22nNZKhe/gVsPy9wKRW8Pd5N84Ip2E3tBLUpTJJDxkiA0DR+vMqiaJpTbCFpAw625wQQnEwNTgLXySlMaOy27cRUxJ8PR1bhd31P4ac1CzHXobKdACsnTQ3bzwOEfHIvs09COxPA2W2Z/bQBHx0rmazG9u0wxyhrzRTaIkRNMCF9sYGErA9zHTr10QmcmH2nueyT3TfhO9UnYIfQmLJxPXOf5EGhcylu6bck3vJr76eTLQGgl3nHppVN50SiX+XQEJ8Vfm/62ZSNKGVq6KLuO3Fl9bFoDBafvr4CEMo0CdtDM24AQZiXn41XiE7FmiDkhFsoVWgx80KoQj+DtzLNuCR+EEYP1EqwAYcwYTFFOAkrU8jaQk+dZpDFF5P34YrIkZgY0pnM3Kr42SpUWwjYAtkPmLDNC6awMPtOnwPOq2Rbk9OaGzByGis/K6RBsE/LwqDNPjkxbdM50ule9pGnc2ZEfDH4Dl7NvIST4odjdmSu6qYNikw65sdBTQq1LFqjQrAkGRbNd5qnVSeB5aT9kfcz/TjzOdgZMk0hz/fKOjeFuLTr9M5iTuz2mnFbQzyJHtD+S9xdfwEmod6Xr4u9B+1+2UDbXA+mpsUco5M5zdY6mPuEz9JExrnzo0Vw4xtsk+2MGjWqGNayze71OgyxVPwl3XfhV7WnKQ1osVcFIBRLse34/kIAgcJScuK/FyQyIxn06YOJenTBGykRzM95ajAZOhPsrE20oTFai+oBL+z2XJ8CBX9LLkFvLoXvVB/rmUbWzAPA99jRAE4bl30zmdMDfUtwW/p1Ff54VNUc1AQLp651Ax1uDFhKRjtVorbrMNgClm1SU8ICWmSGYl91qkWRF7RaE2QLeH5v+yDYAtP+2xSCZnum1kE+571O4JSfs2Ihx8HTeVeoA/fkHsakyBycWnWIY5En871yqjVPtKSb6XdgCjCzDyJg3YS0KYAJYsaOzVc7FbBB2kuuCp58CSJsusi9buDczSzltGZszYbTmmAthot77sSXqw7D9OAYT0fYcvMCt3Xh9B7zXmobyaP8aBCcwIe0z/oF9oHE7lO5xzyS9p5PrcEdqdfxw+oTlHkhm+lFR66ZxcwxJrxjwaaVyWmAeVRSLY9kFraTZwuZGCgwR6pBGAkZm5s3KSFNB7qGhlHq985OnZEvHI6o1MqpKPD7wMu4vvsFzK2aiCMjM1U0+N+TSzE52IDv1ByDycFRvkLITLu02DfF4dDptCv1AuwxJnNp/DO1Hs9n1uDU6C6YXka1rfkuJ0FFGpl95v0mCOF3rLjZ0dmpPOCmT58+aCO3x2iPy0m4iAmFfeF8EDCJWt2P1sOJEXsJSOkXn6UTXluqA98N3IIras7BJIe8CLzPPqmatON3FBIciyRNEq0K3+UEDOyxCfCQ95DGrKZohs8J6JSKmXyH2Lht2sres0GpX3BgA7pCe5n75Vt9D+HEyFzsHZ5a0qm01H2eB6L5vBJOQMeeQ94jxdmcqoz6bYPt2gchs0/mOnFa/6WOu9Tn3slsxhd77sK1VUdjcrgG6fQy9D54JdbufQRGNy7ElOjurk2n0xnlnxQcCKutAIRSZ2E7em7b+CDkCeilLitE6jVr1qj0u8y1T2HcurlV5eWnUKB6lkVHfjduCUKxCD69aR5mz56F1dl2lS9meqjBMX9BsVNrqu1NweSkXhdBLIyEnsY3JBfhQ+Fp2DU00fHVwvBFUBbDhKTmgl2h0azFYKYRNvvP9/X09qBh1CjlfOl1YnL63kn7wfts4GQKUyfB6mRKEMZcyBZNoS7v+0f2JYwJ12CP6F6DdHYCUCLIzb4XikQo1Ibts2C2yXHa2gdTyPF3asKY/MlpjGYIpIAvZpykr4ho0wqtZSethBstV2W24MjOXyGQS+GRURdhRmjCsKZHso/97jmzz3kglC+BbLcjmkSTHl5zzjkyTThSetxsW69Rfz4/fsfmdp9Tf93uXd5/N76W3IDTt7TgoDceQ8Nh+yEc2QOx2GkIFOGLUDExjHTWtqPnywEQ/KrJiyErNw5Vydz8PI1RCLZ3tKt69ploAM+3LMNrdW14LLQKv2g+DHU1tZg+bVoxr/B1r0Q42Deb9Qjy30m9wfwnqVwG1yUX4ejwbMywNAnCEG3NhVfH5CRqnnTI/Ekj8aEQYWTeY7arT059A86JwxNB2ffK325+DfI9x8I5y2edI4PX3vf25QZKRIjzfhHeTgCKqZdpauJJ/Q+9f8eMUOP/tXclQHZWVfp7+9Jb0ul0ZyUQAkmAyBoCjEDQAVQUFFTQccEFS5ySkkJHZQYdGdynUEodBS0YKUahBi1E1oEIiiKEAEECBLKSpTvdWbo73a/f6+63TH335vQ77/b/v6XTHSLpv6qr33v//e9y7v3P+e45556Dc2JLK5FvVNZPP8Ep88IKOW7XP6Gcj4A8w//ahCLzIloSfncFvnvPmiSyxmfC3S1rwOMHLlnGBSxCJEbjuyG9AktDM7A8ejSaAglPr3gvgDCRoEGbBNiOnODQIJd+A9TAeAEEDcb0gqhWK+qavTRt3ffWzz+lWkfLigsWw+jr/TzuxDTsCk7HJZHjcET4NETC9ZUf9SgxCRDGRLZD86HxAAj7Q7lqmQzjF6wYXoeb0n9GPWJ4a/RwxBDB+6NL0Boc24tSTb/JKLQvggjiSjtuXTd9IG4bXInLY0uRKNiwyvoqZx/16qN2pOR9LTx1vzQ4cHcq3CHt3r3HCFcKcz8g4bavtSRu/fJdEk8VgaONqljt5eWT4AVMRAhQ1fzb7ofRmdyLq+o/XLEZ0WLwP4WvnyOpHp/2S9DC30sou2tD097VpggIcjstSZW4VuSznyB0wYsL7qRNlpPjrWLaWJXdapxrqeWqdOnjlV4+MPJ8LRsGl1biB8RxC229TtdQi8i5I0AUutjyxQBTtm6YnCIsIyYJarj4vABZWf8uCNDvlQaLlea/FjOQS/N0YQC/yPwVDYFGzAo1Ynn4SDyR+gUWB/K4aHgIdzV8FPNDRd+WSnPmdX8SIIyFaofoM14AwYvBkbGIffZAOi4+n92OldmtxgGHu5uZwQacEZ6HWJCRC0dPWi2Cu9opF0EiTn1+O7VyYOep7BYjhJeF5o6yh9eqziSjE6HhCn6OSaIget0TgWSOk3Z0YPasWcYkoNPg+tGlEuPXAEEYfOnOf3R0QN5nX/hfO3vq0wzSH6nLBUQUFFtTnfhy8D78quEKRAI2dLHfRYDFtSw7ddmVy25cCwCpw4vpyzrQdJY6XJ8H+a7H4GWG0HXycy3H/rzeW00r0pnHLwkKadogcL1u4CFcnzzfN56EBqDVvi9uOb+TTC5N2VdJLy7tioOy8B7OtUTHZBkb2jq2Lx150aNfv6N8hs/T9KZ9Zrzm2e27+w65c61BkfTZq95cvg/pQAj1+05RyXO78ik8sufPuKg7gMjgMJ5OP4bBY8/H4vgy7Mz3IwECobXYEjwCz2TbcV3yH8c6DSPPTQKE/SbhoVOBCxD8hAp/T6XoyBXz3XGNJ9X6CoO4Z2gNns1uxxcSZ+Lw4NSS6v2E8XgDBK/6yrXhdy9VGMI30yvwjcR5JoSzMDAv9XM1dNR+Bl5MnPRhPggvZkWmSx8OCgwKCjk9onfMXkzeBWRamOm4AyJwXSBFJymbudHGvmc/yLxFqLK8MHA/vwQ/TcJQdhjf7XkEZ09djOWRI029rF8Es965857dQYbMWXcpw9+lb+K4pmni1SfZWcq8S11+IFLoqn0M5Dd37VgAQ1+G0fkmCJi7C2k0UI+2DxC5/h3ud7ZDsx3nnvk3VmTX41eDz+PW+g/6LjkvwKP76wrISmtXv7dF8GL9DLimBTQJ3flfwCZp5mrzKPitua9QYoZgPRpEl3NkrIZn6DL8rI/GlhtzavhZFDJ3YiC3DXeETsGF8XOxIPIW5ApZPJXdiB9mnsZ5kaPx6fipQCGP1FAv6mOlsSj4FjPuwb8kzh4Xh+eqAAJ5R3sPMFwMulZpbifv/z1RIABMrwfqy5+yqzqSogUINjXw+NnWRhOUR65+P/Qybh98Fu+MLMTH4icjWiEhzxs1Le4OiDZR7s48bdMo4OrUvfhi/OySUxVu5sJygkXak2iJ7g7WBQNaLe6qa+l/QGQQj9k0sdRiSIIpqUcLbhc8aIbJuqVvBB2kgdc4KHRtimVr05eQwbpuMnzuCr2EnZcGQ9Tr27ZvA5oT+GL2QfwsfBGyKYbNhjnOadNIWzMH67enYaz92qqobWrrjAmWEzXSakdnp9Gu8BkZm4TKFqFlx1Ia/dAFCl5rUzQXWo3Ocl5jZn3a2ZExC1Zn23FL5mm8lNuBhcHp+FJyORYFW02/y/lssA2JLplNBHFF/934cmI5TioTPdFLc6LXhQanfmu3HMjQ9Fm9erWJPJlIxNHUZI9/Dg0NoqNjB1pappl10dNjT4fwXkdHuwE63LRwXq1PShzxRALpgbQBvxyv9hfyW1de2iDdNz3PBDKSLZVryI8f9ud349Xez+LYxhsRD83F3uzr6Ou/Do3hRViT24P7CxGcVfcJAxDKXVxhn0/dg2sSZ+GI4P4HsqoKINz1bAB/WPtGsdbJdg8EBcJB4MYPFBArk/DOy8QgKF+/FG5//exsFPDcLWcLeSQDEYQDQXPs0AihfUE9/IJ78NnbBp/BmuwOo/ZsqJCApFr/hQNBa7bBXYWbM163/T+Dz2EIOeOLQGWo1y7Si4GRGUmEN8uQYY56akHuggNpVwQ/v0u8AwpqBvKZt8+pU5sDymkRXIbpBVBYRnwQXLqzXWtOMKMwTF2r3r2e9RNQpdoL64S3edtm/Ff7HfjaydegMJA1IGRPdzfq6+pMQqpINGJiE2zfvh2NDY1oaKjHxo2bsGTJcdi2fTvCIWoUYva5Pd0GMISCIbS0tCCXz2HWzFkj/h6iOdCgRYCS1lx4vTfmXfBx2hSBy/8MgcxMi0ym1JfP4Mns67hl8GmEEMAv6y5DS6gO7fm9+NeBB/Gu6GJcEl0y6ogi3ymeldfhdHIo4DP9/4tFoen4UuKccXk9NK9wP7sgyqtB0nPlypUIR8KYO2cO6urr0b693YQBp3NyMpG0qb4TcaP9obPy66+/jjlzZqNr5y4k4nGEwiFz4qm+nkK7aGYqrukAGDGR3zVocIENT8cQjOgoqAL82E/e15ffpmDr0PNoDLWiKTRbFc+jkO8HmCUW5U1huo0nhzdjS74bl8VO3O/5qgogXH9/ANt79rutyQoOcgp8+70FNNf5d7KSk2I16jepnWrPnwz8BqvzBUwP1uO1XBeyPI1QGMCRoRaTFIk2t95cBtcm34amQBwb87tNVsW5wSl4cHgtcsgbpkUmOJ5XLeMYa7s6bbZXHYOFrGHmdAi7JPaWUVnl7M609EQBtTalDms2YU80Ghm1S9eM2AogCk7Z4VpgkU4PYCCdQVNj40hwIK/MjZVoIPR0d5M0I1hHzsio6HYECNafg2XsOLl7d+3uXkdIvcCJbrtrZxfat21C3+ZHMW3R+8z4uAvt7e1BXV29+U+AxLZ5PK61dbqpkmW6u/dgT3cP2lqnY3BoCD3dPUazQFCQSCTNrjSfy48EPhINgvRJ+0torY3rh+AHDNyxsf4Xch24Pv0IVufazRFZCvM5wSlYGpqDk8NzEA0WUX+mMIwfZ55Ee74X18TPNinKV2W3476hl7E2v9M89/HYyTgpPNvYtf85dY/5fE38rIr+GpXWgdt38ZkQOgjAExqJxkeeE6DFgGgbNqxH24w2ZNIZM0eRSNikWqag5lxQ2yX1E7zxmYIJ/JPH1ClTzbHdOXPmmN+mTLEmSdKSz3Deaa7RYMBvnVG7JJeUJ5jVJgsNpDVAmKhNC/ni5X134faGy0bgnrRVa5tVAYRv3B8wJobJ681Ngf0FCF6MeQQQqAQ0Q4U0nh/4BSLBOViSuBARhMCAQX0YRKAQQCIQMbsbnkZ4IduOJ7ObkSoMM6EyEoGwSbN8TuRIvCu6CCFU7/F+sM1epeQx9K2gqYEA6KfJi0c5LGoGSoGqba4UpjayZMgwT/ci0xJnLmG8ugwZXF8fzSANRlhKcirtKV8NPb12iJrxyg7N3SWzfdJHrx8tbAV0sF9+oXP1uIRWIoSeHNyArb1bcFnb26oZxogAKfa91InS1VKIkCMQZP806JQ+yG9e/gpe75JLN2YIvSnzBEKFIC6NHo/DwlPRGIgjUCjVOLn1M/wuHXrvG3oF9w+/gitjp2NZ+DAD1Lfmu/G99OOIBSLozPfhE7FTcHF0CWKBMqrFMhSsFmy768TLRGQBY3YkN4ZocKQN7tapLRsYSI8K2iZlxOwpa0n3T5weS6OFMo9I2DcInAYIAjL43zXTCYn8NAhVL8IqCvYXBvGVgQfwo7r3eh5DFUdMXZVkQGW/NRiaBAhVEPxQKTKeAMFlcOZ7AFg1tBp7Uzfi6OTnMDt6KgLKCW8sdK4VEduXtzQ17ljaLfdMtUyxmnZpgvlJ5i+YFWzCP8VOGtGVaIbKesgci6psS2wKWa+dj3bG8+oD66aNlqpV5mAQZs3/AhD8xqh3S7qPfiYGti9mBmoJeIafz5FJa4BgIlrtG73Uy75wfH72bGHYLF9ijgkAj6VuxqL4OzA7fEQ106ASYRUBqWglNC00aBMbvj7KycbEr0Aa1vMhQMwFA1roMPztvUMv4dHhdbg0djyWBecaoKyzHLI865U1UckXSM78E2Syv/RfMA6y46Sdc7VH5XwQXFAoY+F/cSjluATgytgorLlmaVbwqp/0kSObXutXTvxo3wy/HCIyH9SyWX+cYpAm0USwjBu3gtqmcuu1qsVYphBNQl8deAAXR4/Dac5xVHmPqWmUSKCkpxzplLVCEENa8m/WbGvyKBtJ8c2kQUhGgRPnBrAnVUAuD7zWVaQ21eu0wXf02t+WHQ488zrte6NnhMGzzj8WeHDN/k7pwfP8RAOEnkIGn++7GT+svxQtPtECDxQ1JhIkuL4BfmOqpEGQ56hJuLz/Ttxe/6GSI2bZXBb/PbjK2L7fM7wA0YJVwYuQIePS2gNtw9eC3Kt/ZCLUSpBZiMMdy+ndlV8d+ndXTSxCW+8QyUT5XU4paGGo+yZMXYSNMLlya0Z267oM535N6ma0RE/FjEgxmqJfPdKen5CV+yVCfF9MDHF8k5MYGiCIANcATOjlB8C6cn348eCTSCKCT0WXmjTk0i6fdQGBV99GaRSyWeMTI3NLITreYdPtmrAgzwVU7hzLdxck6bl0ASdpKbt5as9oJnAvGZcLrqWcm59EtFN+YG3Dxg2IRvaF3EYB8VjMOKwSVM2cNdO8lzSP8T2n5oImkM7OThx++DwwrftEXGtzXcb35HvJCwzA87okLoTX+8ux0mGTtGCOkOmtraaKQwYgtDUBbQ3A3+jIXAcMDAFtjQCd9GhGCYeAlnqA64tA4pUdBexOwYAJluvcC4SCtszbFgXwsz96oIeJmPkDUOdEAQTp+q8Hn0ddIIYLo8fs92hcFeRECvxaOqt3SpV2CtVGaqO/xg8yT+C88NE4LmxD27Idag1ygQKej+3Ey+nteDfmoTUy3RzhInOjYBezAxkVf9fM12UQmnHzMxkE+zhjxoxRO2gvwSN1uwDBi366jLbL+wlGXYfYd8X0US47nyvcpf6tQ6uQKfTjqNhyz+nVIM/PyVbmQa9FmXM+IwDQBRYydmlDhLqfUJY+r8124YbMCnwycgrOisxHKGCPwGrByc+uFkKvyYF02pxGonqev7NvXCM69TeBlz7qV+u75fUOaBrK+P3mWn63tCyNOCp05X/OuzjNsqyY2dh3e7TXagvlcoGPBpxyesUFK26SMX1//Yb1xteBAJdCl74OiXjCnOCiE2Q4FEYsHjM+KewnwTYdftkPpqgf74umo2tSv8dXEssxK9TkGfuFbXJdsr9eF2lKLQeBLbWIhyRA+NQZATy3pYD0ELBhF5AaAj66LIAVawtojANzpwbwwJoC3r4ogPteLOBjpwXMMr33hQLOPyaAmU3ATX8o4NNvDeDmP00ChGoWOhfvlX2/wc0N7z+gCV5KX3g6Hk2sz4L2WK8EEMoJHpemtBdHA6FRx5zkvHd/YDc2Zb6Kk5puRTgQMY+L6tBvp69V0CLspF0eGeOOhyYGrXLlfa+cDS5j5fdKqn95xgsgiBreL0uj1G/tw/72cT0fMsbhQAZ/6b0apzT+BxqDrSUCVu9M9c7eb437CU+3/15z7adp0gJfhO1f81vwrfQK3Fp/KWYEG0Z1R4SdgE5X+Ep/eCojmUwYAUq6DWeH0Tp9Orq6uoy/CR3+eHyws6sLs2fNNOpzxqOg8+b+XH5jLQI47Whc/Kx3+1KWfbfBq+hUaONRiLnJqs+ZnM0eV7WXrY8nFrTKX+aO4EBMFy7d3DDpehybNm/CYXPnGp6yZesWDA0OGVDOGDCkFx16SWPSmwI5Eo1i185diMaimHfYvHE3NbyW24lvZx7DrXUfKGsa4lipMfK6CK74x3VkMlfW23k/JDUIZx8FrOsC2nuBj58ewPNbCzwlhJfbgY+fEUBHDwxQuPLsgNE03P6UdUy65twgbnw0jyvOnNQgVMs4n8tux48yf8FtZQKtuHVVs5uslmn5qRVF0PgJ0Wrrr7acdbJi5kt7xl6SJ1UCE78begnNgSTOjBRt5i7z/PfUHfhC3SVozMeMECcTKKcW9/ILIPOlEOEuh4KC9egdMtscC0Bw6a/pTUZKZq/LVLKdy+63mux8LngZRgY7sptwWKR2TVa1a9KrnB6z9J99E0Cgd9Z6d/t0biu+lH4At9a/HwtDrSMqehGYdk6oTbA+B3rOpR4x33R0dBghxiN8/I0nMxgxkeYq0pIppSlk+/r6zUkNxg3gOpo5k1okS8lqaVDNO1HJHOfShOVtiOWcCVxFc4JcojHo7d1rwLH1USjtL4+rljOf6NDkpCedHoXOAkS8xqXHwbbl3dIZP8eLbn6g9GsDD+Pd0WNwanhuRdLrE0+6sDhRkjeZqKl5q3U8ZAAC1xPNCZlhoC4GDGVtAKipSSA9DIQCQEMcyGT54gJ7M8C0OnuPv6cGrYmBvgr0TdhVesy14sQczAUmysTAMK0f6r8Dt9R9AG015EIYrxfqQNNcv8A6ToTsUnRaXy8h7YIFHlu6KnUPrkucO7J7tA5ZMXR17TSqSzK2B5K/xJLweTg6Ox+p/pQxDZCZSiQ3JrKiRkAYntvO8PAQdu7ajbbWVsPgRNC4AEHuiRCXmPgCJqzAowahGAVSCxZXy6LjLxSZfTGokLsORGj4pdD2ApoCBMkYKSDHYmOvdj2yHOfDSz3tahJYVmsMNJ06C/34XuZxTAkmcGX0dEzneXhlUpB5lLFIoiIZq55fe6zWRiCUHThNTlxD3GHv6d6DumRyJA8Bd48tLdOxd2/vPmfV6tKge71rfnSrlp5CExs22R7btRoQa0ZzL+2wK2tFBDjXNP/EWdEFjzYFOoViYQS8l3PwrNX8MlG8aHOuG9/MrMDNddTQVndRq0H68P2lj4TXOyGnGIYYeppxPzKDQ6N05m8mJ8XqSHdolpoogPDA8Fq8mt2JqxNnHpqEBYzAIJPmLk1s5q4GQBNHM/eeQhrn7r0Ff2r8nDkCyothcCUULpldU1Mj/pzdiDW5LlyOE63p1nhRh4xqcyA1gMGhQcyeNVvt1IunOchAef6/oaFxlOe1AATN0K2gymHbtu1m18nve/u4c8uisbEBwUDQZNYkA6cmws/Ry9Ue+O283efJtKvRHujdn9ipJyI/SLXCzrXFa7AmQa7IrLuRxrUDD+KT8VNNLINQwarJXZ8DbVLQES61hkKEgAZ90l/2h38iLITOpJHr21GrMNQaE1nbGmzKePyYgg5nzT5qPwl+59pmSmv3vZHol0Kb0gRN1hxRLsor65ajgF7goFY6HAim928DD+G40AxcFjthXJsTgDAyf14AYTJQ0rjS/KCtbCIAAuXUl1P346r4P2BOaMqYxn4wvpC1DkSSxpD56KNWwqjLmRhez3fju+nH8OO69434b/T0dJvAPFQZizrwN3XrMC86Daf2thjBTAAxtXmqAQsifBhuVhi33rmzDkYQbGtrKxHmmvZkuD09PUZ9S00EAQej1hXTNctxQqY7Dpp2xMyhx6wFg+SBcAW5Hz2kHIVXNc6JWjCxTslLwc86OmMlYVXrfLvltbDUwlsH1CGtZD3cG34N00L1OD9y9Kj00TrAkETY1ON0hbFu29UGyT1qVviZu0jXSbHasZfzMxD61vIu60RL7vhk7jger7XCZ9t3r0R9dC7CoaaR3bH43fD90NEPWb8Ga1511tL3amk2HuW4gfhY3524q+EjIxuIsdbLd5vAnhFBeVUFEO5+LoBHXxnZlIy17cnnDmIK0Hxyw4UFxO0G1fOqFEnR66Ft+V7clH4C369795hGX+3ObEyVOw+5u5vxqLNcHVq1LDtDd8dCprQ2txO3ZZ7Bd5LvGqlOBIMNxEMv6gyuG/4/fDZ+OmYMJxGL0tGImeki+04y8CwET+mg5VHgAAAIOUlEQVQUHfr0eCk4aYsmgBDm6NKDgEMy4jEYDZksVdTaf0CPV8ZEcwh3bF4xC8RB0XUm9KObCDQRZJXKiWCSckJznc5X76zd+iZy/cnOnnMo8fql/Z8XVuGU5DycFZ5fkqJbBJmMywq1ovOtzJnModDVCn+CNisIeWm1u0T2lFMB47X2uU6pneBacWMClGuDfWQeEY6Nz4mJRPqvhXtxvRqqWMGWzWLD376D4PS/Ihlfjlz0fWgOzcBgLo0CsijE+hAM5zEltAChfUGgJnKux4ueXvXcNfgCXsx14IbkO8bcjCS/4jvOdUE+wLVQFUDgpLzaCXT1jbn9yQcPYgrQL+O0w6l6K9/JWgECY7v/Z/pxHBNqM84zY7kONGqvtb1KznSVmKDcL6dBWJPbgQ/23YEXplxtok7qa4TZo4Bb/vhtfOiMqzAlarMu8r3VTlfuc/oUA+uh97VNnmQXggsQJBSxy+jFadFVKYvTmNVO7EZbmz2iKXXLZwmlLDs4zahdukgb/F0i6VW7rtz+0b5uvcyLScV027qtattgOa/nRBi7Y5RjePS6l1TWpMfD2XUmr8LFDSeUOMmxfgFVblwLHVfBpZu7u9eArKhRslqfctqbcuvUzmvRbMXPNDlx/msJEKRpJHZxxjWgSYvti6lOg0VJhiV+MOwLtSJpbMKeocexO/8Qpg20ILO9C7sXLkEkUI9osA9B5looLMOCunciFkkiPdiFfBhoCLf5HhOsZS2MZ1mv8Oz0T/pI36/xleQ5OD40q6bmZK6pMSCtOE/Nzc1mDUiAtKoAQk2tThZ+01LABQh8Kdvb283uZ+bMmYbRCgPhfvVb6T+gK9+PH9RduN9HG1016UQSuVaQIH2ptY/V7ljShWGc1ftTPNJ0BaYESm2udKhiPbTH/i3XjuNCM0doTSGgwy+7AEHUs9Jv7vT8kifxWYINOoAxiZEr5EVwieDRAIP1S0ZE7dWt++MeufSbX01jOquVO+JYaY0Yh8W6GGMQjhwLq+RV79LQiw5+wIJ165TM0pb93Z7iEF+A5wrtWI89+HDkBCNceU+DDNnp2zVk03VrgKCBmF9/tFB1y1cCAl601Q65Y3lewJWeA6965L0RbRC/G43BvsBF8+fPN93jb9Si7dy5C83NU/edGoqZdczfmdzplQ2rsDl7L1o3Po1Vb12EEx/bgcXnXIvm5qWVlk/N98fKV6QhxlBgECPNZ3+eWYm+Qsb4d9Ua9ZJ04PFWXjYzZsKsMVkXfL+yKnaKWetePgg1U2LygTclBTRAoDqaXu9is+ZiW79+A5YsWWKSKF2V+h2GCzncVHdRWbsYBdhLL72EhQsXls1ueKAJ6vUyux7owtCqZYaaUYtAKOchPQI8UMC1qYdwUeyYkvCpleqwiWds6GIXxLhmBJblWW45n621B3p8zM/AKHDiIOhqGfyOQBJYsB9kcLovuu5qQYI8L5Huxro2SJvnBm7BguQ70ByeP+qI4Fjr9RLIbIvCX6f81QJfTEb2+GEO6wq78FRhGz4SOH7EW9+NFyHgRMepYNviqe/23+0X+6R33FLeXecukK1kivMDJJXo6aU5KPeMbod93rBhgyk+a/Ys7Ozaiba2VnT39CKfy5kdMTUQ1GhwLTLTY3Y4a/xujj/+eAwN70Eqn0cimEQ8kqzU1TfkPgOX0U+F6n/OG3Nl3JBege/XXYA4ytiGPXpLcMz5l/dR8yExefGxmHNKZBIgvCFT//fRqAAEMrqtW7dg8eLF2LRlI9ZufhEz5s7EzGlz8PUNd+OpcDfO6G/Dh0MnIBmKGrU1gcS6detGcgNwEfKPLy4R8fr1641666ijjsKrr75qjhlNndpsHO14sQ7ZGYwntbgDJxjwF9Slkdx0214agHJaAa3WrRZUSHvXDzxivNkviC72HH45pk3GSHuu23d+t+p9mhdSxn4rKajdKI/apt3X32cixolPgfalcO3c0ibnmo6V06a1jMrI6CXI/ACKBhfURpRzVGRZETqiLdFtsd8v9f0WU+KHYU50acV++a07mfNyc08gzD/3eJ0eJ583oC6XxU+zT2NrthvfCL59pFk5nuc1Jj+hLIBB0018Q9x7Qi+7LkpzTsjz1azb/QUIGryWe9e1syZpyzDGPb00GwWRy+ZGQgYnecqnkcA0YMok62w66AyjH2YGDUDgJQ6s/FwpS6hfv/ZXS+BVL4NXcd1IUDRZQz/LPIXFoek4O3JkzSxRThh5nQQSzSPnkSeg9DUJEGom9aHzgACE9s52NLc2I48Mbrv/33Hu0gvx2OqH8cnzvo4/vfIcogMhHDt/oXFg6+iwoUUp6JkKl+rplSufwWmnLdun3gqYY3LWg74VL764xsQq56a3s3MHjjjiCKP2bm/vwIIFC8aV2K6ToK7cxmW38dzlKJV++b2YoN+OXn5nXV6CqtKgmDjnM31347t1F6C1hjgSpYCA5gY6fVltgivMyIRsdDoee8uZs+AU6lTDasc13t+xo8PMGU9RaKFiGauNcOc6HZrnOnegrbVtxKNc90F/dp/1UzOzvXImkUp0ZTsv9t2OlsRbMDN8QomK3m1T1K7yu5czn9964tgIqsmMtRbAFdq8N5jP4JneO/A09uKDkY+iKc84BcWLgsv1vrd+DEVv/nKgSN/zAzZe9PbSntlYF6Wp1msBB+KjUkx2VOr/wPsEsF5XcY3YVOUsKz4KkqjMxoVgULLQvlgTQRMV0oZopi+PfU4HW2JbEq+kGu1epTW2P/dJS8kwKWtnZM2ggF9mVuE90WMxLVi7xiOVGjB0oBnB7yLtck4iov8HfslLb7Vcd8MAAAAASUVORK5CYII=;" parent="3" vertex="1">
                    <mxGeometry x="3" y="118" width="546.22" height="250" as="geometry"/>
                </mxCell>
                <mxCell id="14" style="edgeStyle=none;html=1;exitX=1;exitY=0.5;exitDx=0;exitDy=0;exitPerimeter=0;entryX=0.5;entryY=1;entryDx=0;entryDy=0;fontSize=14;" edge="1" parent="1" source="7" target="13">
                    <mxGeometry relative="1" as="geometry">
                        <Array as="points">
                            <mxPoint x="754" y="550"/>
                        </Array>
                    </mxGeometry>
                </mxCell>
                <mxCell id="15" value="Get optimized Route&lt;br&gt;by Route ID" style="edgeLabel;html=1;align=center;verticalAlign=middle;resizable=0;points=[];fontSize=14;" vertex="1" connectable="0" parent="14">
                    <mxGeometry x="-0.069" y="-1" relative="1" as="geometry">
                        <mxPoint y="-1" as="offset"/>
                    </mxGeometry>
                </mxCell>
                <mxCell id="17" style="edgeStyle=none;html=1;exitX=0;exitY=0.25;exitDx=0;exitDy=0;exitPerimeter=0;entryX=1;entryY=0.25;entryDx=0;entryDy=0;entryPerimeter=0;fontSize=14;" edge="1" parent="1" source="7" target="8">
                    <mxGeometry relative="1" as="geometry"/>
                </mxCell>
                <mxCell id="19" value="ICS file send back" style="edgeLabel;html=1;align=center;verticalAlign=middle;resizable=0;points=[];fontSize=14;" vertex="1" connectable="0" parent="17">
                    <mxGeometry x="-0.1294" relative="1" as="geometry">
                        <mxPoint x="-6" as="offset"/>
                    </mxGeometry>
                </mxCell>
                <mxCell id="7" value="&lt;font style=&quot;font-size: 14px;&quot;&gt;Fast API in&lt;br&gt;AWS Lambda&lt;/font&gt;" style="sketch=0;points=[[0,0,0],[0.25,0,0],[0.5,0,0],[0.75,0,0],[1,0,0],[0,1,0],[0.25,1,0],[0.5,1,0],[0.75,1,0],[1,1,0],[0,0.25,0],[0,0.5,0],[0,0.75,0],[1,0.25,0],[1,0.5,0],[1,0.75,0]];outlineConnect=0;fontColor=#232F3E;gradientColor=#F78E04;gradientDirection=north;fillColor=#D05C17;strokeColor=#ffffff;dashed=0;verticalLabelPosition=bottom;verticalAlign=top;align=center;html=1;fontSize=12;fontStyle=0;aspect=fixed;shape=mxgraph.aws4.resourceIcon;resIcon=mxgraph.aws4.lambda;" parent="1" vertex="1">
                    <mxGeometry x="470" y="511" width="78" height="78" as="geometry"/>
                </mxCell>
                <mxCell id="10" style="edgeStyle=none;html=1;exitX=1;exitY=0.5;exitDx=0;exitDy=0;exitPerimeter=0;entryX=0;entryY=0.5;entryDx=0;entryDy=0;entryPerimeter=0;fontSize=15;" parent="1" source="8" target="7" edge="1">
                    <mxGeometry relative="1" as="geometry"/>
                </mxCell>
                <mxCell id="18" style="edgeStyle=none;html=1;exitX=0.75;exitY=0;exitDx=0;exitDy=0;exitPerimeter=0;entryX=0.719;entryY=1.002;entryDx=0;entryDy=0;entryPerimeter=0;fontSize=14;" edge="1" parent="1" source="8" target="3">
                    <mxGeometry relative="1" as="geometry"/>
                </mxCell>
                <mxCell id="20" value="Automatic download &lt;br&gt;of the ICS file" style="edgeLabel;html=1;align=center;verticalAlign=middle;resizable=0;points=[];fontSize=14;" vertex="1" connectable="0" parent="18">
                    <mxGeometry x="0.2189" relative="1" as="geometry">
                        <mxPoint x="2" y="4" as="offset"/>
                    </mxGeometry>
                </mxCell>
                <mxCell id="8" value="&lt;font style=&quot;font-size: 15px;&quot;&gt;AWS API Gateway&lt;/font&gt;" style="sketch=0;points=[[0,0,0],[0.25,0,0],[0.5,0,0],[0.75,0,0],[1,0,0],[0,1,0],[0.25,1,0],[0.5,1,0],[0.75,1,0],[1,1,0],[0,0.25,0],[0,0.5,0],[0,0.75,0],[1,0.25,0],[1,0.5,0],[1,0.75,0]];outlineConnect=0;fontColor=#232F3E;gradientColor=#FF4F8B;gradientDirection=north;fillColor=#BC1356;strokeColor=#ffffff;dashed=0;verticalLabelPosition=bottom;verticalAlign=top;align=center;html=1;fontSize=12;fontStyle=0;aspect=fixed;shape=mxgraph.aws4.resourceIcon;resIcon=mxgraph.aws4.api_gateway;" parent="1" vertex="1">
                    <mxGeometry x="256" y="511" width="78" height="78" as="geometry"/>
                </mxCell>
                <mxCell id="9" style="edgeStyle=none;html=1;entryX=0.5;entryY=0;entryDx=0;entryDy=0;entryPerimeter=0;exitX=0.297;exitY=1.006;exitDx=0;exitDy=0;exitPerimeter=0;" parent="1" source="3" target="8" edge="1">
                    <mxGeometry relative="1" as="geometry">
                        <mxPoint x="260" y="450" as="sourcePoint"/>
                    </mxGeometry>
                </mxCell>
                <mxCell id="11" value="&lt;font style=&quot;font-size: 13px;&quot;&gt;Export as ICS&lt;br&gt;Parameter: Route ID&lt;br&gt;&lt;/font&gt;" style="edgeLabel;html=1;align=center;verticalAlign=middle;resizable=0;points=[];" vertex="1" connectable="0" parent="9">
                    <mxGeometry x="0.3154" relative="1" as="geometry">
                        <mxPoint x="-27" y="-24" as="offset"/>
                    </mxGeometry>
                </mxCell>
                <mxCell id="16" style="edgeStyle=none;html=1;exitX=0.25;exitY=1;exitDx=0;exitDy=0;entryX=1;entryY=0.25;entryDx=0;entryDy=0;entryPerimeter=0;fontSize=14;" edge="1" parent="1" source="13" target="7">
                    <mxGeometry relative="1" as="geometry">
                        <Array as="points">
                            <mxPoint x="717" y="530"/>
                        </Array>
                    </mxGeometry>
                </mxCell>
                <mxCell id="13" value="Optimization v2 API" style="shape=image;verticalLabelPosition=bottom;labelBackgroundColor=default;verticalAlign=top;aspect=fixed;imageAspect=0;image=data:image/png,iVBORw0KGgoAAAANSUhEUgAAAyAAAAC0CAMAAABbsbiSAAAAM1BMVEVHcEwAAAAAAAAAAAAAAAAAAAAAAAAAAAAAAAAAAAAAAAAAAAAAAAAAAAAAAAAAAAAAAADbQS4qAAAAEHRSTlMAIDBg7xCfgEC/z9+vcFCPYzUPfQAAE/BJREFUeNrtnel246oSRo1ATBrf/2lP+nR3Oo4ZviqQLTlVf+5a93SwBLWpEXS7iYiIPF9G/ymjzIaIyG9RfnFzmPZvMoXgFq9kfkR+MBt6C2YvS9j0IDMl8vPgWOYaG59i5kUgEflBstppJ8pkV5k3kZ9Bh9lZYoQRkXeXYWPS8ZcR8bVE3ld03JslaplHkXeU0Zm9ixgndRKRdxNlO+Hxv1gpkIi8Fx57ZxFERMS5Koo4WiJvEpofgcevWGSRuRW5vPi4HybRy/yKXNu72vZDxYqfJXJhWc1+sBiprotc1nzY/QkyixERuaQM0/4UmSQSEbmgLPvTxMlsi1zNvZr3J0oQN0vkWu5V3J8qk3T5nk0D3L2IH/xVvNmfLJLNOpeohxUSQv6J3l8g0gZ/JnESKOZl218iVmZeALmC2H0XQgQQAeRsfAghAojwIYQIIMKHECKACB9CiAAifAghAogAUpiVF8gm6yCAnFP0fgqRiqEAckoZ9pOINDUIICcUZc4CiJHORQHkdDLG/TQSpftdAHnbBFYM9neD9BYC+xiuaKgA8oYBenz4nNTo3cxx3eTKLAHkXAF6ewAy69xtosNGP90uYYgAciZpDUCmpRw2kL8rImGIAHIiaTwBEoDE7KhpZkTqhQLIacQ/5wJRGiJSDRFAziItF2AZSuF7IThakzhZAshZJ+OwexEplzWKkyWAnELUU+8i8ZNksgSQS0ngRx8cFcavpAuipwLI62V9+rXT8KWm0tcrgFw4QucfbULvpZtEUQWQV4t+Ph944V7OIAggL5bRvIAP+NMKRlK9AsjZJuI5R8dBMA9ZFeWXPxcyg0mGYf3973WP4qX37u9ox+PP/jEQkOHf+B2/6z36PxPuFv/iejHXgLQnmDAvq7sJGfV9d3FYKgurlrss32TXseHH7X3TmwnusFy2avqxOiDHvMy4uvBNM6Z5eV3Cn2lAerQSYoQwTMj3i/u/1Gp8qk4Zdf5tdCIHbixrVxuXdEfo9+HG5f7xM22gvvh5ApX5sckOXQBBX4Y6RbkSgLFr9W/ddyluferhnycnmpfCMog5rTK0HmNCHo8O/53bIVfxMS79K9nmsUBWg8GivdAB8mYf2+e+rIkvlZqibgbEF19GM3fPtVwgM1tR62ba0e3U9hy6pbAQ9fC2j/ki10KWzPnE4hetUy0BQ6mCGkgu91Arxn5B9PE/EhXY135s0k2A+PrLcLKpwF49FxSP2M6X/LXHf8Y7BgK9f9gV8G8OqIW49M5Qy5s9fAVu6eb8QQ1on02fjYAoaFI9GxCFNEJM1BakFXRlZkWwIIU1clhgzWtzhwJ0jyS6oBSB7wJI3VbeG2RAqdEPK6Ifm/9jlNoAQYPKWhdEbny0H5vUZaEI3U4Zbzh9KU8uFkjf4PPokbEuaoACkP+NQ/0fImHI3AMQyJf84nlAd7xAH1YkfA31txFpAUThLoHxDEBGXJMJfay0TFHO+jmC8oDmZmQZEOjFFVgrQbRHtQMCxlqaxAd0gRftY/O2DRDapyUXMiC0mwu2/uaj6DhF2P9Iek6xU4iOVUAsqNrIbXVLMyDwi2pibFYlZKUfxecDQl1PSwSEOj7kZnG+F5t2bgc4hI3g4QpOiI45WAoutwPmNbYCMlHNI+56Vo490regOLIBWTopWm58zsvUk1csLybt3DrQ3Czgv2MdlHIEA4IUMZA4fWgEhMo/5QBA6L36kQsIpycir8EOebB2QriLlTbdEdrRkyoXbyBIXZKuioATMEXb8wD5NVG09hvXe3fkAtI3I9lp/Aoh/Os8k4QMUJxu0ViFsyVoigHpZUKmJwLyofDEVcvat2635R+owFkvuNf481FLlSTEAbrv0T1Y9dxwciP3MSHqiYAY32lO+t2Wf6QC51ao2/jbURY2GQ3H+v4a0VCS42F5mgGBTAgA6vJEQLpNSr/b8o99S3/wLK6FWnJ3922o7gELPAfzEwwIZELmTr+LLe2vu+ctIfX+0cTt3BzJT1e7rDKEEI8HZPr4mUoSL72HOXR26uMrloUFRp7Baf/6BEmPfoO7u7oYkK0+/dRyei9Awmen6YpFGp/d4aOOpCiktD1G9/f00sfl9/EoQIz9vGp/0NYQw4SO4wdyI96/AyBqtRPJsxin8htaOFfPMHBYsPyNUcCE1J31tQsg900Kqo7IfWucj4RAN7us0/djCqp6rzdHgcP3KVsDaXar42u8WV2TXuDheE6+uT5lnHxxZ/eHOpmao6CACalr6tYDEDvSiriPl6pmhjb4Q5hUODU60xmQ5HmVbJt6agdljJ/tGUmpgII2sVulgziATtZUCgw3fqt5VQ+QtG0dq3o2I3QAJKGaxd6+VB5Rgz5WLneda74o9yNRAcn2CWoDZ7KK4y/ExhoHq1/O38jdx6lBJ8vlI/RcM0TXhF1pZuuXUAN5rHZAklM/TrQ8e4aQBbOJpXu+l36AxHxWPLMjJLZ43vi5bl+FxZ2F9uhMU3TKOPmsM5bct9ZuVSykGpE6F5Y70Ao47MT0QGFpMwWrfH/q2tBUrQjIAW2NNEAsw511hPHLLYgWe6YJzdvW0oIO/Jc293BztyJN4OHxv2qUjxMDQcjSCEg2Elqo5jK1R0boESotZXlWaZEWJ+B7nJ5jx9d0PjJ/lFrYpF/gM6ZlJPHYFKIXTxXbEiL1mqVtBCT/8GEnAZW2DkBarn52xPcApD5RFpofx94mLbDBRQYfGZ1dwJmM6V9daXpRkrEBjwoivof5Ki1tpKqloykAsNUBTqJuBwRoME8eBov9xk+q1lSPEoCRZ7T2kFqjZSE4WEjtAR7q16QvyJmLLCLA0cY2QDQxACqt1lB9uplGXLWnAAcEOq2TLGErDBDokLGp/aFlRplJ32kFH8EY0jr39LBqefw6Is32q7y0xQT1QnVUpooKjzQTVs8O44BgodoC/KWjGtZKimqrvCaWIvXoWoFHetYGpwbWUByPbImpaxrLEfV9oP7aVlFhzX983QYI6ogGZp5h4o8/ld8S/SClRXe/udErWnt5WDQ8coiEFgNWX9pypwq1JLpWVHgm+qe16BUHBN1FfN3Hci0dP6rsY1n+8ir0qZBTbyVHmtxokjHenCP3CXWpA+JaABmJ+115Jx4qKmx4rnvehKALiGcyQlVFXYMBSe4RS2mC8JEt6p2tbJ3mAZJbYk9Oh6UuvqwPsjUAMlG1pUJjWYWHphzc1AAI3tKpqxPsmqy4L+2KQ8v2p+D4rupkBUa+JK/VhcmwrXgggIQGQMJTAdEtmpXM9fdIRVSTmKEOyNjC+VTKERCOjEb0uWpOVjnjR933i2Gusm14vBcgrkmzBj4glG8a2dqvuIZAqpLI2Jg5vixenhVnL7eegFT2QAyR/K3i9ceJlwEktHhY9SQyNxVRVR5VG59yz74vqHFo8LCSO8jC0apAd3VLUrWBdUSCbuL1woCQvgYwswGhXBc91vZh15BpSM/RmnfvSPeTG3h+S4d6ayVVIh+Ie1tGpPzJmfhGgLRt7SnN7JKKqO6QmvMYhBV12PQxMnCBUhEFS6rU2gW2LWVrIrUvMu1vDQhp6/VcQEKjmrmu48/Z8VUj2hvhyQJboYmAoE5CGpHqB8vG9wbk9hRAaPdP2oMByX+hyncfOf/3WSdLdQYEdxIeT34Zz1GKywKiGgHhX17dSYH7AOiySbZWQDTFAi3cDb93jF5QEGDhljcCxDcCcjsrIK7TPt8KCG2CJ2ZITQSkwXgjff5WABFADgFk5XpER8ToaROCzGt8I0BaY5DhrIDMncbvH4Pka2S5anp91+5YR6/YA8CAjPt7AzIesEG2KvDRWaztFEG6xftlmwChbU6KypZ+c0BIdTB91jTv1Gv8RhNr8Tf3/LTTUUmsh1dQrFe+GiBfETDkolSfQiFNzRiVdNL4hVloygGl/PHcJly49azqZNHu5id+qnwgOmfImRJzGUBCm4ca2IAMvCWCAaFogSr8eWzbgHEHp3hzz0xehoKMNEC+jA5dNtc3T/BqQGybc8Lv5qUYqoXRzUtxtHXBTLTtICvs4PiWXZ8GCJGPf48Gvfn8XoC07e0rHxBKEBJrFCfGpzSll1ou28Ibi07vWGnInRg3RGYkUgH51DnoFhroGebLAJLYuLYmzYJPFOKuvKpOcGp8nPOxhO/a5L0Z1PuuXo24EUPBTmWQr0pimVtCUyLt1YCMLQGU2hsAaTq37+rj457QUlLHsWVkjaon0L7kaW/QE5A/Sqd4m821AUklQHSD5uKAGDRWTNXPfMfxUw0ea3GCYOMXwdhrBE48lZws0r1Y7sYzIXM/A9J0L9aTAUnY9qlBcwnX/jg+hqbn+Lqc6Nn4JmRFPT/IRdpaHX8+IP9rHaLU6INcCBDPn0K7NwECbvGpJvAZUjDFxjyUc8zo+k7g5jM0a9XRgHjQM0PTabfrAJKq65gBtrsNgICpjFQiQEPjBzbmS0XNI9f0pRcLrPMVnCxKpXBhAPLxA55pMpNvciVANmYmMOc3E1wIJNhZENvj+KqwVktpCzWnVNpAFAqSI/0q5WIszwFEB6Yxbs0TvB6QgdnwGfZmQIBULPZ0jq0LyQ8BzfXETJ1tZUCjOSSNRXL/GXrkeVmA3BTT2Ld6ea8HJK3p1VewewdAqr5c+kNWQ7fx03ueB161OnJElTOm+Vsplt0fDgjT2De3S54AEM2B3O49AKlpcJqP0G/8iHjIijFymo8Azk3IbVyurfxwKCAESNWlAMlcO1byssZ57wNI+Q6AzGXjnjL+Subv0X2y5AhqmFDdHLLmSVEM1/RyQAb8ZnhKs84ZAMn0X+Y/oDzEvRcgpcd3cITHG39Bly9z3YjNZpUyn3gPoIO15d8qthXojgNkJHw5Yb4YILkkoUlngUZHTnEX/yIONAo9dfy0RqiAO8iZ8afMyDPuWZSSdMk43eHVzmcCMh6VaD4FIFnvMXE/8ajN3heQ5LfuFOn8aWX82RPGD5Q6Q6CM7MBUly6moIfWWvoRgAykI1vD1QAp9JKa7e5tvK1aUlYWMujxDsJ8RTZZf6+OH7W6Gz8fQ6Wvwc3XuuOCjhzBXHko/+fYGoQcAMhA+jIV6cTROQApNsuZ2Wn/IdoFZB64afpo3a9f8c4WdyPdPP4WGea/lMKcrFt/jbxspU6LVNprqeyvCg+qthcCQvxym70eIIzPpHYHpCW+6zd+6FGrRslOOlhb7cXSNm59HSCaOBPrBQHpqGKHKnCmHanb+PkGyjG2jbyBDtb9EyRNe1pDzKsAsdSpGK8ISPsO+QxActW5boAMxNaRJrdiAQzNCruB9jWAKPLG0Xqn34sAad0hnwKIvx0LiO4Xidb5SBIXICujWnysroAspu8knxeQboQcqMD6diwgumeuphqWBsiEKThSMocoaLn6wfE7xosCwiKEfbPibHrqb+LzB3Hvv7UNU0c+VjBScaiThfpY7pXmg3oz8JkAYRCi+be705VNU2bRcV6mb724vEDJ1oxUjiAZp6ecLP9kQDzP5VivC8htpCUkjG75/AFR2Yrds8nxabepGcw1J6dscu2SM8zoijpZ0zMBUZZnTafbhQGhOfPTcGv7PghliqO6EQGh1M6yDWEJdSW6FZkHh7U+F6wstGImO4vUFw86nicD5OZhz2ceb42AEJTNUWeROP6GR46KEpiazIOP2EGwQpye8MbAQyHhhXgQr/4+ISC3Edt3pzU3OkGB0SxI9DcWIKjPONEynyu+iShKXX4j2fWZ6/+1AuIb8KCG6CcE5CNXE4CNcbz1AASK9MzCmMXP8QN7ly81V0CmKf+9ZNQmFFvlBmxYbIXgxK5uqwaQizArvo/kdKGiPxPdylW06h8eieS7oSnwh7JF+Mfy+cbCpBBehoJI1YrMBV1QxCwa2vceDgZktXubMKzX95+MIzHTWPuDB0cc2TCHfFt7XMZCo5rRVECKNjtiVa2HjNXdpBR69KMe+Z5GwYxMThGTYWU7ljBZKWcFy/QOXDrM3iqcKr7yXwWIYYa7PwDe9u7fe1QjdGo+ovv+e+P96FQX6K/hThUO749atEzKmHkZdWuS1SbtSHADcdWBZRy+/YHCE14dtFQtXXr12vMD55JBb+FTBcLsPHe7Rb5yOyydfuzol7nXnNXN/47JTGFb/CtXDDIhC3Xi7LT3EX8TYQMi0kMQE+IIbGCH5H6oARFALmj0keJM2FzF1f44eOlC3DuLGBAB5OVCyDOZED5Q+S3rn/91H/+f2Y+RWVZHAHm5qKPUu12UrI4Acsa5PonIkgsgp5B4Tj6mUZZGADmD+HMCIhG6AHIS2c7Ih5V1EUBOIuN0Pj6MOFgCiDhZ4mAJIOJkcWSTNRFAJJOVb8oWB0sAOZWcq1xoBlkRAeRcsp4JEC3rIYCcf8olABFARP7JfBY+pMldADmjjFECdAFEpEDIKQJ1Iz28AshJZTCSwBJARE5NiPAhgJyZEEnwCiAiBdHChwAiUiLECB8CiMgZ4xAjfAggQojkrwSQqxMyCR8CiEheXlFTl/o5SZbW+2FFmgixz+ZjFj7a9rAgE/jiHUquwDqZI0z9yINIV/FPDNXNKvMtcjkjHp4Wfsj2J/IemRJxr0REvri5T8hmTZLdFREjkj9dK8kXkUsbkUMjkSjmQ+Tqclz3opHalsgbyOjEuxIRKYg6oLBuJbcrIogIHiKCiOAhIvIrFukSrhsneIi8qejmpG+QU4Mib+1puYbTVNMmxkPk7WXYJh4dUhUU+Sl2ZCHedB0WsR0iP0u8m6Gg3QQn3xsU+aGWZHVzoeM3zm4VyyHy02X0q3Nb+CKbc6ucAhW5ovwHmuBnpucrekcAAAAASUVORK5CYII=;fontSize=14;" vertex="1" parent="1">
                    <mxGeometry x="680" y="440" width="148" height="33.3" as="geometry"/>
                </mxCell>
            </root>
        </mxGraphModel>
    </diagram>
</mxfile>